<?xml version="1.0" standalone="no"?><!DOCTYPE svg PUBLIC "-//W3C//DTD SVG 1.1//EN"
        "http://www.w3.org/Graphics/SVG/1.1/DTD/svg11.dtd">
<svg viewBox="0 0 1024 1024" version="1.1"
     xmlns="http://www.w3.org/2000/svg">
    <path d="M503.808 782.037333l-215.168 89.856 22.357333-235.178666-185.770666-195.84 250.325333-56.746667 144.725333-220.970667 144.768 220.714667 237.568 57.002667-69.333333 78.933333a42.666667 42.666667 0 1 0 64.085333 56.32l76.544-87.125333a78.762667 78.762667 0 0 0-40.832-128.554667l-215.253333-51.626667L586.154667 107.946667A78.762667 78.762667 0 0 0 454.4 108.032l-131.370667 200.533333L95.146667 360.234667a78.762667 78.762667 0 0 0-39.68 131.029333l166.954666 176-19.712 207.445333a78.762667 78.762667 0 0 0 108.8 80.128l225.237334-94.037333a42.666667 42.666667 0 0 0-32.853334-78.762667z"
          class="svg-fill-grey-500"/>
    <path d="M597.333333 725.333333m42.666667 0l298.666667 0q42.666667 0 42.666666 42.666667l0 0q0 42.666667-42.666666 42.666667l-298.666667 0q-42.666667 0-42.666667-42.666667l0 0q0-42.666667 42.666667-42.666667Z"
          class="svg-fill-grey-800"/>
    <path d="M746.666667 978.858667m0-42.666667l0-298.666667q0-42.666667 42.666666-42.666666l0 0q42.666667 0 42.666667 42.666666l0 298.666667q0 42.666667-42.666667 42.666667l0 0q-42.666667 0-42.666666-42.666667Z"
          class="svg-fill-grey-800"/>
</svg>
