<?xml version="1.0" standalone="no"?><!DOCTYPE svg PUBLIC "-//W3C//DTD SVG 1.1//EN"
        "http://www.w3.org/Graphics/SVG/1.1/DTD/svg11.dtd">
<svg viewBox="0 0 1024 1024" version="1.1"
     xmlns="http://www.w3.org/2000/svg">
    <path fill="#fff" d="M317.397333 677.632h392.533334c25.6 0 42.666667 17.066667 42.666666 42.666667s-17.066667 42.666667-42.666666 42.666666h-392.533334c-25.6 0-42.666667-17.066667-42.666666-42.666666 0-21.333333 17.066667-42.666667 42.666666-42.666667z"/>
    <path d="M172.330667 41.898667h674.133333c51.2 0 89.6 38.4 89.6 85.333333v768c0 46.933333-38.4 85.333333-89.6 85.333333h-674.133333c-51.2 0-89.6-38.4-89.6-85.333333v-768c4.266667-46.933333 42.666667-85.333333 89.6-85.333333z m0 85.333333v768h674.133333v-768h-674.133333z"
          fill="#80A0BA"/>
    <path fill="#fff" d="M496.597333 494.165333l-98.133333-102.4c-12.8-17.066667-38.4-17.066667-55.466667 0s-17.066667 38.4-4.266666 51.2l162.133333 166.4 238.933333-290.133333c12.8-17.066667 12.8-42.666667-4.266666-55.466667s-42.666667-12.8-55.466667 4.266667l-183.466667 226.133333z"/>
</svg>