<?xml version="1.0" standalone="no"?><!DOCTYPE svg PUBLIC "-//W3C//DTD SVG 1.1//EN"
        "http://www.w3.org/Graphics/SVG/1.1/DTD/svg11.dtd">
<svg viewBox="0 0 1024 1024" version="1.1" xmlns="http://www.w3.org/2000/svg">
    <path d="M377.941333 80.384C180.992 136.704 42.666667 318.208 42.666667 527.061333c0 256.384 206.72 464.298667 461.824 464.298667 201.472 0 377.770667-130.816 439.210666-320.341333a42.666667 42.666667 0 1 0-81.194666-26.325334c-50.090667 154.666667-193.877333 261.333333-357.973334 261.333334C296.576 906.026667 128 736.426667 128 527.061333c0-170.581333 112.896-318.762667 273.408-364.629333a42.666667 42.666667 0 0 0-23.466667-82.048z"
          class="svg-fill-grey-800"/>
    <path d="M978.432 547.669333a42.666667 42.666667 0 0 1-42.154667 48.981334l-484.693333 0.384V85.333333A42.666667 42.666667 0 0 1 494.805333 42.666667c267.648 0 484.053333 225.365333 484.053334 498.730666 0 2.133333-0.170667 4.224-0.426667 6.272z m-85.930667-36.309333c-13.909333-198.741333-165.034667-360.106667-355.626666-381.056v381.312l355.626666-0.256z"
          class="svg-fill-grey-500"/>
</svg>
