<?xml version="1.0" standalone="no"?><!DOCTYPE svg PUBLIC "-//W3C//DTD SVG 1.1//EN"
        "http://www.w3.org/Graphics/SVG/1.1/DTD/svg11.dtd">
<svg viewBox="0 0 1024 1024" version="1.1"
     xmlns="http://www.w3.org/2000/svg">
    <path d="M128 85.333333h768c46.933333 0 85.333333 38.4 85.333333 85.333334v554.666666c0 46.933333-38.4 85.333333-85.333333 85.333334H128c-46.933333 0-85.333333-38.4-85.333333-85.333334V170.666667c0-46.933333 38.4-85.333333 85.333333-85.333334z m0 85.333334v554.666666h768V170.666667H128z"
          fill="#80A0BA"/>
    <path fill="#fff" d="M256 618.666667c-8.533333 0-17.066667-4.266667-25.6-8.533334-12.8-12.8-12.8-34.133333 0-46.933333l187.733333-183.466667c12.8-12.8 34.133333-12.8 46.933334 0l89.6 85.333334 187.733333-183.466667c12.8-12.8 34.133333-12.8 46.933333 0 12.8 12.8 12.8 34.133333 0 46.933333l-209.066666 204.8c-12.8 12.8-34.133333 12.8-46.933334 0l-89.6-85.333333-166.4 162.133333c-4.266667 4.266667-12.8 8.533333-21.333333 8.533334zM256 853.333333h512c25.6 0 42.666667 17.066667 42.666667 42.666667s-17.066667 42.666667-42.666667 42.666667H256c-25.6 0-42.666667-17.066667-42.666667-42.666667s17.066667-42.666667 42.666667-42.666667z"/>
</svg>