<?xml version="1.0" standalone="no"?><!DOCTYPE svg PUBLIC "-//W3C//DTD SVG 1.1//EN"
        "http://www.w3.org/Graphics/SVG/1.1/DTD/svg11.dtd">
<svg t="1583834983234" class="icon" viewBox="0 0 1024 1024" version="1.1" xmlns="http://www.w3.org/2000/svg">

    <path d="M560.128 60.235294v49.694118h13.432471c86.558118 0 161.912471 49.754353 200.643764 123.120941V77.522824c0-7.951059 6.204235-14.456471 13.854118-14.456471 7.710118 0 13.974588 6.505412 13.974588 14.456471v656.986352a239.013647 239.013647 0 0 1-82.281412 181.549177v64.572235h47.104V1024h-89.027764v-79.209412a221.424941 221.424941 0 0 1-104.207059 25.961412h-13.492706v27.346824h50.236235V1024H422.550588v-25.901176h50.236236v-27.346824h-13.432471a221.424941 221.424941 0 0 1-104.207059-25.901176V1024H265.999059v-43.369412H313.223529v-64.572235a239.013647 239.013647 0 0 1-82.281411-181.549177V346.172235c0-130.529882 102.279529-236.242824 228.47247-236.242823h13.432471V60.235294H560.188235z m-43.670588 265.456941a198.535529 198.535529 0 1 0 0 397.131294 198.535529 198.535529 0 0 0 0-397.131294z m0 40.176941a158.418824 158.418824 0 1 1 0 316.837648 158.418824 158.418824 0 0 1 0-316.837648z m-18.974118 51.320471c5.782588 33.671529-21.082353 70.475294-46.923294 98.002824-0.903529-13.372235-1.867294-22.648471-9.999059-35.538824-1.807059 24.395294-23.311059 44.333176-29.153882 68.728471-7.830588 33.129412 5.903059 57.344 58.247529 82.944-16.384-29.696-7.649882-46.742588 4.99953-62.765177 13.854118-17.528471 17.347765-34.936471 17.347764-34.93647s10.902588 12.288 6.565647 31.503058c19.215059-18.552471 22.889412-48.188235 19.877647-59.51247 43.489882 26.383059 62.042353 83.425882 37.044706 125.711059 133.059765-65.355294 33.129412-163.177412 15.661177-174.200471 5.782588 11.023059 6.927059 29.696-4.818824 38.731294-19.877647-65.295059-68.848941-78.667294-68.848941-78.667294z"
          fill="#fff"></path>
</svg>