<?xml version="1.0" standalone="no"?><!DOCTYPE svg PUBLIC "-//W3C//DTD SVG 1.1//EN" "http://www.w3.org/Graphics/SVG/1.1/DTD/svg11.dtd"><svg viewBox="0 0 1024 1024" version="1.1" xmlns="http://www.w3.org/2000/svg"><path d="M508.842667 42.666667a42.666667 42.666667 0 0 1 42.666666 42.666666V725.333333a42.666667 42.666667 0 0 1-85.333333 0l0-640a42.666667 42.666667 0 0 1 42.666667-42.666666z" class="svg-fill-grey-800" /><path d="M502.314667 707.84l275.541333-266.069333a42.666667 42.666667 0 1 1 59.306667 61.44L531.029333 798.634667a42.538667 42.538667 0 0 1-60.16-0.853334l-291.242666-298.666666a42.666667 42.666667 0 0 1 61.098666-59.605334l261.589334 268.245334z" class="svg-fill-grey-800" /><path d="M935.509333 981.333333m-42.666666 0l-768 0q-42.666667 0-42.666667-42.666666l0 0q0-42.666667 42.666667-42.666667l768 0q42.666667 0 42.666666 42.666667l0 0q0 42.666667-42.666666 42.666666Z" class="svg-fill-grey-500" /></svg>
