<?xml version="1.0" standalone="no"?><!DOCTYPE svg PUBLIC "-//W3C//DTD SVG 1.1//EN" "http://www.w3.org/Graphics/SVG/1.1/DTD/svg11.dtd"><svg viewBox="0 0 1024 1024" version="1.1" xmlns="http://www.w3.org/2000/svg"><path d="M238.208 433.792m42.666667 0l384 0q42.666667 0 42.666666 42.666667l0 0q0 42.666667-42.666666 42.666666l-384 0q-42.666667 0-42.666667-42.666666l0 0q0-42.666667 42.666667-42.666667Z" class="svg-fill-grey-800" /><path d="M238.208 629.333333m42.666667 0l266.666666 0q42.666667 0 42.666667 42.666667l0 0q0 42.666667-42.666667 42.666667l-266.666666 0q-42.666667 0-42.666667-42.666667l0 0q0-42.666667 42.666667-42.666667Z" class="svg-fill-grey-800" /><path d="M128 120.874667h768a85.333333 85.333333 0 0 1 85.333333 85.333333V896a85.333333 85.333333 0 0 1-85.333333 85.333333H128a85.333333 85.333333 0 0 1-85.333333-85.333333V206.208a85.333333 85.333333 0 0 1 85.333333-85.333333z m0 85.333333V896h768V206.208H128z" class="svg-fill-grey-500" /><path d="M238.208 42.666667m42.666667 0l0 0q42.666667 0 42.666666 42.666666l0 149.333334q0 42.666667-42.666666 42.666666l0 0q-42.666667 0-42.666667-42.666666l0-149.333334q0-42.666667 42.666667-42.666666Z" class="svg-fill-grey-500" /><path d="M707.541333 42.666667m42.666667 0l0 0q42.666667 0 42.666667 42.666666l0 149.333334q0 42.666667-42.666667 42.666666l0 0q-42.666667 0-42.666667-42.666666l0-149.333334q0-42.666667 42.666667-42.666666Z" class="svg-fill-grey-500" /></svg>
