<?xml version="1.0" standalone="no"?><!DOCTYPE svg PUBLIC "-//W3C//DTD SVG 1.1//EN" "http://www.w3.org/Graphics/SVG/1.1/DTD/svg11.dtd"><svg viewBox="0 0 1024 1024" version="1.1" xmlns="http://www.w3.org/2000/svg"><path d="M347.562667 331.818667h301.653333a35.84 35.84 0 0 1 35.84 35.84v301.653333a35.84 35.84 0 0 1-35.84 35.84h-301.653333a35.84 35.84 0 0 1-35.84-35.84v-301.653333a35.84 35.84 0 0 1 35.84-35.84z m49.493333 85.333333v202.666667h202.666667v-202.666667h-202.666667z" class="svg-fill-grey-800" /><path d="M994.730667 438.016a42.666667 42.666667 0 0 1-84.181334 14.08c-32.426667-194.261333-203.733333-338.944-406.058666-338.944-201.770667 0-372.778667 144-405.76 337.621333a42.666667 42.666667 0 1 1-84.138667-14.336C54.613333 201.770667 261.205333 27.818667 504.490667 27.818667c243.968 0 450.858667 174.805333 490.24 410.197333zM15.018667 603.221333a42.666667 42.666667 0 1 1 84.053333-14.805333c33.962667 192.597333 204.501333 335.402667 405.418667 335.402667 200.533333 0 370.858667-142.250667 405.248-334.378667a42.666667 42.666667 0 1 1 84.053333 15.061333c-41.770667 232.789333-247.466667 404.650667-489.301333 404.650667-242.346667 0-448.298667-172.544-489.472-405.930667z" class="svg-fill-grey-500" /></svg>
