<?xml version="1.0" standalone="no"?><!DOCTYPE svg PUBLIC "-//W3C//DTD SVG 1.1//EN" "http://www.w3.org/Graphics/SVG/1.1/DTD/svg11.dtd"><svg viewBox="0 0 1024 1024" version="1.1" xmlns="http://www.w3.org/2000/svg"><path d="M291.541333 640A348.458667 348.458667 0 1 0 640 291.541333v99.584A248.874667 248.874667 0 1 1 391.125333 640H291.541333z" class="svg-fill-grey-500" /><path d="M355.541333 669.312c174.08 0 315.306667-140.8 315.306667-314.496 0-173.738667-141.226667-314.538667-315.306667-314.538667S40.277333 181.077333 40.277333 354.816s141.226667 314.496 315.306667 314.496z m0-90.069333c-124.373333 0-225.152-100.522667-225.152-224.426667 0-123.946667 100.778667-224.426667 225.152-224.426667 124.416 0 225.194667 100.48 225.194667 224.426667 0 123.904-100.778667 224.426667-225.194667 224.426667z" class="svg-fill-grey-800" /></svg>
