<?xml version="1.0" standalone="no"?><!DOCTYPE svg PUBLIC "-//W3C//DTD SVG 1.1//EN" "http://www.w3.org/Graphics/SVG/1.1/DTD/svg11.dtd"><svg viewBox="0 0 1024 1024" version="1.1" xmlns="http://www.w3.org/2000/svg"><path d="M222.378667 667.306667l-166.997334-176.042667a78.762667 78.762667 0 0 1 39.722667-130.986667l227.925333-51.712 131.370667-200.533333a78.762667 78.762667 0 0 1 131.754667 0l131.669333 200.789333 215.253333 51.626667a78.762667 78.762667 0 0 1 40.832 128.554667l-155.733333 177.28 19.882667 208.426666a78.762667 78.762667 0 0 1-108.757334 80.170667l-209.066666-87.253333L311.466667 954.88a78.762667 78.762667 0 0 1-108.757334-80.128l19.712-207.445333z m-97.152-226.389334l185.770666 195.797334-22.357333 235.178666 231.594667-96.725333 231.850666 96.725333-22.314666-234.24 172.8-196.778666-237.525334-57.002667-144.768-220.714667-144.725333 221.013334-250.325333 56.746666z" class="svg-fill-grey-800" /><path d="M537.216 347.178667h0.042667a42.666667 42.666667 0 0 1 58.368 12.202666l25.386666 37.888a40.704 40.704 0 0 1-11.946666 57.045334 42.666667 42.666667 0 0 1-58.368-12.202667l-25.429334-37.888a40.704 40.704 0 0 1 11.946667-57.045333z" class="svg-fill-grey-500" /></svg>
