<?xml version="1.0" standalone="no"?><!DOCTYPE svg PUBLIC "-//W3C//DTD SVG 1.1//EN"
        "http://www.w3.org/Graphics/SVG/1.1/DTD/svg11.dtd">
<svg viewBox="0 0 1024 1024" version="1.1"
     xmlns="http://www.w3.org/2000/svg">
    <g transform="translate(0, 15)">
        <path d="M0 128v512a128 128 0 0 0 128 128h768a128 128 0 0 0 128-128V128a128 128 0 0 0-128-128H128a128 128 0 0 0-128 128z m85.333333 512V128a42.666667 42.666667 0 0 1 42.666667-42.666667h768a42.666667 42.666667 0 0 1 42.666667 42.666667v512a42.666667 42.666667 0 0 1-42.666667 42.666667H128a42.666667 42.666667 0 0 1-42.666667-42.666667z"
              class="svg-fill-grey-800"/>
        <path d="M256 896m42.666667 0l426.666666 0q42.666667 0 42.666667 42.666667l0 0q0 42.666667-42.666667 42.666666l-426.666666 0q-42.666667 0-42.666667-42.666666l0 0q0-42.666667 42.666667-42.666667Z"
              class="svg-fill-grey-500"/>
    </g>
</svg>
