<?xml version="1.0" standalone="no"?><!DOCTYPE svg PUBLIC "-//W3C//DTD SVG 1.1//EN"
        "http://www.w3.org/Graphics/SVG/1.1/DTD/svg11.dtd">
<svg viewBox="0 0 1024 1024" version="1.1"
     xmlns="http://www.w3.org/2000/svg">
    <path d="M512 42.666667c259.2 0 469.333333 210.133333 469.333333 469.333333s-210.133333 469.333333-469.333333 469.333333S42.666667 771.2 42.666667 512 252.8 42.666667 512 42.666667z m0 85.333333a384 384 0 1 0 0 768 384 384 0 0 0 0-768z"
          class="svg-fill-grey-500"/>
    <path d="M470.485333 736.554667l-5.845333-0.213334-5.76-1.066666-5.546667-1.792-4.010666-1.877334-3.370667-2.005333-2.773333-1.962667a42.965333 42.965333 0 0 1-4.949334-4.522666l3.669334 3.413333-0.64-0.512-3.029334-2.901333-170.666666-181.930667a42.666667 42.666667 0 0 1 58.325333-62.037333l3.882667 3.669333 138.453333 147.541333 29.653333-33.877333 194.346667-239.36a42.666667 42.666667 0 0 1 69.333333 49.408l-3.114666 4.352-195.328 240.554667-62.72 71.68-2.176 2.218666-5.12 4.053334-2.261334 1.365333-4.608 2.346667-2.602666 1.024-4.352 1.28-5.461334 0.938666-3.328 0.213334z"
          class="svg-fill-grey-800"/>
</svg>
