<?xml version="1.0" standalone="no"?><!DOCTYPE svg PUBLIC "-//W3C//DTD SVG 1.1//EN" "http://www.w3.org/Graphics/SVG/1.1/DTD/svg11.dtd"><svg viewBox="0 0 1024 1024" version="1.1" xmlns="http://www.w3.org/2000/svg"><path d="M473.216 42.666667m42.666667 0l0 0q42.666667 0 42.666666 42.666666l0 853.333334q0 42.666667-42.666666 42.666666l0 0q-42.666667 0-42.666667-42.666666l0-853.333334q0-42.666667 42.666667-42.666666Z" class="svg-fill-grey-800" /><path d="M589.568 163.541333h305.493333c0.554667 0 0.938667 0.426667 0.938667 0.810667v695.296c0 0.426667-0.426667 0.810667-0.981333 0.810667h-305.450667v85.333333h305.493333A86.186667 86.186667 0 0 0 981.333333 859.648V164.352A86.186667 86.186667 0 0 0 895.018667 78.208h-305.450667v85.333333z" class="svg-fill-grey-500" /><path d="M434.432 860.458667h-305.493333c-0.554667 0-0.938667-0.426667-0.938667-0.810667V164.352c0-0.426667 0.426667-0.810667 0.981333-0.810667h305.450667v-85.333333h-305.493333A86.186667 86.186667 0 0 0 42.666667 164.352v695.296a86.186667 86.186667 0 0 0 86.314666 86.144h305.450667v-85.333333z" class="svg-fill-grey-800" /></svg>
