<?xml version="1.0" standalone="no"?><!DOCTYPE svg PUBLIC "-//W3C//DTD SVG 1.1//EN" "http://www.w3.org/Graphics/SVG/1.1/DTD/svg11.dtd"><svg viewBox="0 0 1024 1024" version="1.1" xmlns="http://www.w3.org/2000/svg"><path d="M243.2 906.24m42.666667 0l452.266666 0q42.666667 0 42.666667 42.666667l0 0q0 42.666667-42.666667 42.666666l-452.266666 0q-42.666667 0-42.666667-42.666666l0 0q0-42.666667 42.666667-42.666667Z" class="svg-fill-grey-500" /><path d="M473.6 778.24h85.333333v128h-85.333333z" class="svg-fill-grey-500" /><path d="M512 853.333333c235.648 0 426.666667-191.018667 426.666667-426.666666S747.648 0 512 0 85.333333 191.018667 85.333333 426.666667s191.018667 426.666667 426.666667 426.666666z m0-85.333333a341.333333 341.333333 0 1 1 0-682.666667 341.333333 341.333333 0 0 1 0 682.666667z" class="svg-fill-grey-800" /><path d="M524.8 433.493333m-128 0a128 128 0 1 0 256 0 128 128 0 1 0-256 0Z" class="svg-fill-grey-500" /></svg>
