<?xml version="1.0" standalone="no"?><!DOCTYPE svg PUBLIC "-//W3C//DTD SVG 1.1//EN" "http://www.w3.org/Graphics/SVG/1.1/DTD/svg11.dtd"><svg viewBox="0 0 1024 1024" version="1.1" xmlns="http://www.w3.org/2000/svg"><path d="M128 213.333333h597.333333a85.333333 85.333333 0 0 1 85.333334 85.333334v597.333333a85.333333 85.333333 0 0 1-85.333334 85.333333H128a85.333333 85.333333 0 0 1-85.333333-85.333333V298.666667a85.333333 85.333333 0 0 1 85.333333-85.333334z m0 85.333334v597.333333h597.333333V298.666667H128z" class="svg-fill-grey-800" /><path d="M896 128v640a42.666667 42.666667 0 0 0 85.333333 0V121.258667A78.592 78.592 0 0 0 902.741333 42.666667H256a42.666667 42.666667 0 1 0 0 85.333333h640z" class="svg-fill-grey-500" /></svg>
