<?xml version="1.0" standalone="no"?><!DOCTYPE svg PUBLIC "-//W3C//DTD SVG 1.1//EN" "http://www.w3.org/Graphics/SVG/1.1/DTD/svg11.dtd"><svg viewBox="0 0 1024 1024" version="1.1" xmlns="http://www.w3.org/2000/svg"><path d="M938.666667 896H162.901333C143.146667 896 128 881.621333 128 864.981333V128a42.666667 42.666667 0 1 0-85.333333 0v736.981333C42.666667 929.706667 96.981333 981.333333 162.901333 981.333333H938.666667a42.666667 42.666667 0 0 0 0-85.333333z" class="svg-fill-grey-500" /><path d="M407.125333 532.352l153.6 164.138667 371.072-344.192a42.666667 42.666667 0 1 0-58.026666-62.549334l-308.778667 286.378667-155.093333-165.632-199.210667 194.133333a42.666667 42.666667 0 1 0 59.562667 61.141334l136.874666-133.418667z" class="svg-fill-grey-800" /></svg>
