<?xml version="1.0" encoding="UTF-8"?>
<svg viewBox="0 0 16 16" version="1.1" xmlns="http://www.w3.org/2000/svg" xmlns:xlink="http://www.w3.org/1999/xlink">
    <path d="M8,-7.10542736e-15 C12.41875,0 16,3.58125 16,8 C16,12.41875 12.41875,16 8,16 C3.58125,16 0,12.41875 0,8 C0,3.58125 3.58125,0 8,-7.10542736e-15 Z M5.75226954,4.71485549 C5.46579556,4.4283815 5.00132947,4.4283815 4.71485549,4.71485549 C4.4283815,5.00132947 4.4283815,5.46579556 4.71485549,5.75226954 L4.71485549,5.75226954 L6.962,8 L4.71485549,10.2477305 C4.45442459,10.5081613 4.43074906,10.9156932 4.64382888,11.2028697 L4.71485549,11.2851445 C5.00132947,11.5716185 5.46579556,11.5716185 5.75226954,11.2851445 L5.75226954,11.2851445 L8,9.038 L10.2477305,11.2851445 C10.5081613,11.5455754 10.9156932,11.5692509 11.2028697,11.3561711 L11.2851445,11.2851445 C11.5716185,10.9986705 11.5716185,10.5342044 11.2851445,10.2477305 L11.2851445,10.2477305 L9.038,8 L11.2851445,5.75226954 C11.5455754,5.49183865 11.5692509,5.08430684 11.3561711,4.79713033 L11.2851445,4.71485549 C10.9986705,4.4283815 10.5342044,4.4283815 10.2477305,4.71485549 L10.2477305,4.71485549 L8,6.962 Z"
          class="svg-fill-grey-500"></path>
</svg>
