<?xml version="1.0" standalone="no"?><!DOCTYPE svg PUBLIC "-//W3C//DTD SVG 1.1//EN" "http://www.w3.org/Graphics/SVG/1.1/DTD/svg11.dtd"><svg viewBox="0 0 1024 1024" version="1.1" xmlns="http://www.w3.org/2000/svg"><path d="M42.666667 184.064m42.666666 0l384 0q42.666667 0 42.666667 42.666667l0 0q0 42.666667-42.666667 42.666666l-384 0q-42.666667 0-42.666666-42.666666l0 0q0-42.666667 42.666666-42.666667Z" class="svg-fill-grey-500" /><path d="M42.666667 866.730667m42.666666 0l384 0q42.666667 0 42.666667 42.666666l0 0q0 42.666667-42.666667 42.666667l-384 0q-42.666667 0-42.666666-42.666667l0 0q0-42.666667 42.666666-42.666666Z" class="svg-fill-grey-500" /><path d="M703.146667 896m-42.666667 0l0 0q-42.666667 0-42.666667-42.666667l0-640q0-42.666667 42.666667-42.666666l0 0q42.666667 0 42.666667 42.666666l0 640q0 42.666667-42.666667 42.666667Z" class="svg-fill-grey-800" /><path d="M42.666667 525.397333m42.666666 0l213.333334 0q42.666667 0 42.666666 42.666667l0 0q0 42.666667-42.666666 42.666667l-213.333334 0q-42.666667 0-42.666666-42.666667l0 0q0-42.666667 42.666666-42.666667Z" class="svg-fill-grey-500" /><path d="M914.773333 630.144l-253.994666 265.813333-245.461334-265.301333a42.666667 42.666667 0 1 0-62.634666 57.941333l245.461333 265.344c1.792 1.92 1.792 1.92 3.669333 3.754667a85.333333 85.333333 0 0 0 120.661334-2.773333l253.994666-265.813334a42.666667 42.666667 0 1 0-61.696-58.965333z" class="svg-fill-grey-800" /></svg>
