<?xml version="1.0" standalone="no"?><!DOCTYPE svg PUBLIC "-//W3C//DTD SVG 1.1//EN"
        "http://www.w3.org/Graphics/SVG/1.1/DTD/svg11.dtd">
<svg viewBox="0 0 1024 1024" version="1.1"
     xmlns="http://www.w3.org/2000/svg">
    <g transform="translate(0, -25)">
        <path d="M480.256 565.589333a240.128 240.128 0 1 0 0-480.256 240.128 240.128 0 0 0 0 480.256z m0-85.333333a154.794667 154.794667 0 1 1 0-309.589333 154.794667 154.794667 0 0 1 0 309.589333z"
              class="svg-fill-grey-800"/>
        <path d="M480.256 480.256C238.592 480.256 42.666667 676.181333 42.666667 917.845333a42.666667 42.666667 0 1 0 85.333333 0 352.256 352.256 0 0 1 352.256-352.256 42.666667 42.666667 0 0 0 0-85.333333z"
              class="svg-fill-grey-800"/>
        <path d="M746.666667 516.266667a230.4 230.4 0 1 0 0 460.8 230.4 230.4 0 0 0 0-460.8z m0 76.8a153.6 153.6 0 1 1 0 307.2 153.6 153.6 0 0 1 0-307.2z"
              class="svg-fill-grey-500"/>
        <path d="M812.842667 710.4a38.4 38.4 0 0 1 4.821333 76.501333l-4.821333 0.298667h-128a38.4 38.4 0 0 1-4.778667-76.501333l4.778667-0.298667h128z"
              class="svg-fill-grey-500"/>
    </g>
</svg>
