<?xml version="1.0" standalone="no"?><!DOCTYPE svg PUBLIC "-//W3C//DTD SVG 1.1//EN" "http://www.w3.org/Graphics/SVG/1.1/DTD/svg11.dtd"><svg viewBox="0 0 1024 1024" version="1.1" xmlns="http://www.w3.org/2000/svg"><path d="M42.666667 770.730667m0-42.666667l0 0q0-42.666667 42.666666-42.666667l853.333334 0q42.666667 0 42.666666 42.666667l0 0q0 42.666667-42.666666 42.666667l-853.333334 0q-42.666667 0-42.666666-42.666667Z" class="svg-fill-grey-800" /><path d="M42.666667 338.56m0-42.666667l0 0q0-42.666667 42.666666-42.666666l853.333334 0q42.666667 0 42.666666 42.666666l0 0q0 42.666667-42.666666 42.666667l-853.333334 0q-42.666667 0-42.666666-42.666667Z" class="svg-fill-grey-800" /><path d="M746.666667 461.397333a42.666667 42.666667 0 0 1-42.666667-42.666666l0-256a42.666667 42.666667 0 0 1 85.333333 0l0 256a42.666667 42.666667 0 0 1-42.666666 42.666666zM234.666667 888.064a42.666667 42.666667 0 0 1-42.666667-42.666667l0-256a42.666667 42.666667 0 1 1 85.333333 0l0 256a42.666667 42.666667 0 0 1-42.666666 42.666667z" class="svg-fill-grey-500" /></svg>
