<?xml version="1.0" standalone="no"?><!DOCTYPE svg PUBLIC "-//W3C//DTD SVG 1.1//EN" "http://www.w3.org/Graphics/SVG/1.1/DTD/svg11.dtd"><svg viewBox="0 0 1024 1024" version="1.1" xmlns="http://www.w3.org/2000/svg"><path fill="#ffffff" d="M860.458667 42.666667C903.637333 42.666667 938.666667 77.653333 938.666667 120.874667v782.250666C938.666667 946.304 903.68 981.333333 860.458667 981.333333H163.541333A78.208 78.208 0 0 1 85.333333 903.125333V120.874667C85.333333 77.696 120.32 42.666667 163.541333 42.666667h696.917334z m-2.730667 704H166.272v78.208c0 41.045333 31.573333 74.709333 71.808 77.994666l6.4 0.256h535.04c41.045333 0 74.666667-31.616 77.952-71.808l0.256-6.4V746.666667zM574.421333 170.666667a23.594667 23.594667 0 0 0-14.250666 4.266666 14.805333 14.805333 0 0 0-3.541334 2.858667l-210.773333 249.6c0 0.725333-0.682667 0.725333-0.682667 1.450667-3.626667 4.992-5.717333 12.8-1.493333 19.157333 3.84 6.528 10.922667 10.368 18.432 9.941333h97.962667L406.186667 614.4l-0.810667 2.858667c0 2.133333-0.64 9.941333 5.034667 16.341333 3.84 4.224 9.258667 6.528 14.933333 6.4a27.136 27.136 0 0 0 12.074667-2.816 12.16 12.16 0 0 0 4.906666-3.541333l247.082667-261.717334c0.64-0.725333 0.64-1.408 1.365333-2.133333 1.408-2.133333 6.4-11.392 2.133334-20.650667a19.626667 19.626667 0 0 0-16.298667-9.216l-110.72-0.725333 28.373333-140.117333v-1.365334c0.725333-8.533333-0.725333-15.658667-4.949333-20.650666a19.498667 19.498667 0 0 0-14.933333-6.4z"  /><path fill="#ffffff" d="M353.152 828.416h29.44c9.216 0 15.616-10.112 15.616-21.290667 0-11.093333-7.253333-21.333333-15.616-21.333333h-29.44c-9.216 0-15.616 10.112-15.616 21.333333 0 11.264 7.338667 21.333333 15.616 21.333334m-95.701333 0h29.44c9.258667 0 15.701333-10.154667 15.701333-21.333334 0-11.093333-7.381333-21.333333-15.701333-21.333333h-29.44c-9.216 0-15.658667 10.154667-15.658667 21.333333 0 11.264 6.442667 21.333333 15.658667 21.333334"  /></svg>