<?xml version="1.0" standalone="no"?><!DOCTYPE svg PUBLIC "-//W3C//DTD SVG 1.1//EN" "http://www.w3.org/Graphics/SVG/1.1/DTD/svg11.dtd"><svg viewBox="0 0 1024 1024" version="1.1" xmlns="http://www.w3.org/2000/svg"><path d="M0 0m204.8 0l614.4 0q204.8 0 204.8 204.8l0 614.4q0 204.8-204.8 204.8l-614.4 0q-204.8 0-204.8-204.8l0-614.4q0-204.8 204.8-204.8Z" fill="#8EE085" /><path d="M512 170.6496a341.3504 341.3504 0 1 0 0 682.7008A341.3504 341.3504 0 0 0 512 170.6496z m0 68.3008a273.0496 273.0496 0 1 1 0 546.0992A273.0496 273.0496 0 0 1 512 238.9504z" fill="#FFFFFF" /><path d="M512 375.4496a136.5504 136.5504 0 1 1 0 273.1008 136.5504 136.5504 0 0 1 0-273.1008z m0 68.3008a68.2496 68.2496 0 1 0 0 136.4992 68.2496 68.2496 0 0 0 0-136.4992z" fill="#FFFFFF" /><path d="M477.8496 119.4496m34.1504 0l-0.0512 0q34.1504 0 34.1504 34.1504l0 136.4992q0 34.1504-34.1504 34.1504l0.0512 0q-34.1504 0-34.1504-34.1504l0-136.4992q0-34.1504 34.1504-34.1504Z" fill="#FFFFFF" /><path d="M477.8496 702.5664m34.1504 0l-0.0512 0q34.1504 0 34.1504 34.1504l0 136.4992q0 34.1504-34.1504 34.1504l0.0512 0q-34.1504 0-34.1504-34.1504l0-136.4992q0-34.1504 34.1504-34.1504Z" fill="#FFFFFF" /><path d="M699.7504 546.1504m0-34.1504l0 0.0512q0-34.1504 34.1504-34.1504l136.4992 0q34.1504 0 34.1504 34.1504l0-0.0512q0 34.1504-34.1504 34.1504l-136.4992 0q-34.1504 0-34.1504-34.1504Z" fill="#FFFFFF" /><path d="M109.9264 544.4096m0-34.1504l0 0.0512q0-34.1504 34.1504-34.1504l136.4992 0q34.1504 0 34.1504 34.1504l0-0.0512q0 34.1504-34.1504 34.1504l-136.4992 0q-34.1504 0-34.1504-34.1504Z" fill="#FFFFFF" /></svg>