<?xml version="1.0" standalone="no"?><!DOCTYPE svg PUBLIC "-//W3C//DTD SVG 1.1//EN"
        "http://www.w3.org/Graphics/SVG/1.1/DTD/svg11.dtd">
<svg viewBox="0 0 1024 1024" version="1.1"
     xmlns="http://www.w3.org/2000/svg">
    <path d="M128 42.666667h768c46.933333 0 85.333333 38.4 85.333333 85.333333v439.466667c0 46.933333-38.4 85.333333-85.333333 85.333333H128c-46.933333 0-85.333333-38.4-85.333333-85.333333V128c0-46.933333 38.4-85.333333 85.333333-85.333333z m0 85.333333v439.466667h768V128H128zM157.866667 725.333333h746.666666c25.6 0 42.666667 17.066667 42.666667 42.666667s-17.066667 42.666667-42.666667 42.666667H157.866667c-25.6 0-42.666667-17.066667-42.666667-42.666667s17.066667-42.666667 42.666667-42.666667zM157.866667 866.133333h746.666666c25.6 0 42.666667 17.066667 42.666667 42.666667s-17.066667 42.666667-42.666667 42.666667H157.866667c-25.6 0-42.666667-17.066667-42.666667-42.666667 0-21.333333 17.066667-42.666667 42.666667-42.666667z"
          fill="#80A0BA"/>
    <path fill="#fff" d="M260.266667 221.866667h179.2c21.333333 0 34.133333 17.066667 34.133333 34.133333v179.2c0 21.333333-17.066667 34.133333-34.133333 34.133333H260.266667c-21.333333 0-34.133333-17.066667-34.133334-34.133333V256c-4.266667-17.066667 12.8-34.133333 34.133334-34.133333z"/>
</svg>