<?xml version="1.0" standalone="no"?><!DOCTYPE svg PUBLIC "-//W3C//DTD SVG 1.1//EN" "http://www.w3.org/Graphics/SVG/1.1/DTD/svg11.dtd"><svg viewBox="0 0 1024 1024" version="1.1" xmlns="http://www.w3.org/2000/svg"><path d="M0 0m204.8 0l614.4 0q204.8 0 204.8 204.8l0 614.4q0 204.8-204.8 204.8l-614.4 0q-204.8 0-204.8-204.8l0-614.4q0-204.8 204.8-204.8Z" fill="#F57AC0" /><path d="M780.8 183.4496c32.9728 0 59.6992 26.7264 59.6992 59.7504v306.9952c0 33.024-26.7264 59.7504-59.6992 59.7504h-537.6A59.7504 59.7504 0 0 1 183.4496 550.1952V243.2C183.4496 210.176 210.176 183.4496 243.2 183.4496h537.6z m0 59.7504h-537.6v306.9952h537.6V243.2z" fill="#FFFFFF" /><path d="M233.984 660.1216m29.8496 0l521.5744 0q29.8496 0 29.8496 29.8496l0 0.0512q0 29.8496-29.8496 29.8496l-521.5744 0q-29.8496 0-29.8496-29.8496l0-0.0512q0-29.8496 29.8496-29.8496Z" fill="#FFFFFF" /><path d="M233.984 760.4736m29.8496 0l521.5744 0q29.8496 0 29.8496 29.8496l0 0.0512q0 29.8496-29.8496 29.8496l-521.5744 0q-29.8496 0-29.8496-29.8496l0-0.0512q0-29.8496 29.8496-29.8496Z" fill="#FFFFFF" /><path d="M309.8112 308.8896m25.2928 0l126.3104 0q25.2928 0 25.2928 25.2928l0 125.0304q0 25.2928-25.2928 25.2928l-126.3104 0q-25.2928 0-25.2928-25.2928l0-125.0304q0-25.2928 25.2928-25.2928Z" fill="#FFFFFF" /></svg>