<?xml version="1.0" standalone="no"?><!DOCTYPE svg PUBLIC "-//W3C//DTD SVG 1.1//EN" "http://www.w3.org/Graphics/SVG/1.1/DTD/svg11.dtd"><svg viewBox="0 0 1024 1024" version="1.1" xmlns="http://www.w3.org/2000/svg"><path d="M911.061333 512.938667l-398.506666 337.877333a10.666667 10.666667 0 0 1-13.909334-0.128l-385.194666-337.322667a42.666667 42.666667 0 1 0-56.234667 64.213334l385.194667 337.322666a96 96 0 0 0 125.354666 0.981334l398.506667-337.877334a42.666667 42.666667 0 0 0-55.210667-65.066666z" class="svg-fill-grey-800" /><path d="M911.061333 197.845333l-398.506666 337.92a10.666667 10.666667 0 0 1-13.909334-0.170666L113.450667 198.314667A42.666667 42.666667 0 0 0 57.173333 262.485333l385.194667 337.322667a96 96 0 0 0 125.354667 1.024l398.506666-337.92a42.666667 42.666667 0 0 0-55.210666-65.066667z" class="svg-fill-grey-500" /></svg>
