<?xml version="1.0" standalone="no"?><!DOCTYPE svg PUBLIC "-//W3C//DTD SVG 1.1//EN" "http://www.w3.org/Graphics/SVG/1.1/DTD/svg11.dtd"><svg viewBox="0 0 1024 1024" version="1.1" xmlns="http://www.w3.org/2000/svg"><path d="M896.298667 42.666667c11.690667 0 21.674667 4.138667 29.909333 12.586666a40.533333 40.533333 0 0 1 12.416 29.994667v254.933333a41.045333 41.045333 0 0 1-12.373333 30.122667 40.618667 40.618667 0 0 1-29.952 12.458667 40.618667 40.618667 0 0 1-29.909334-12.458667 41.002667 41.002667 0 0 1-12.416-30.122667v-152.32l-351.146666 352.554667a40.362667 40.362667 0 0 1-29.696 12.330667 41.045333 41.045333 0 0 1-30.293334-12.074667 41.6 41.6 0 0 1-12.032-30.378667c0-11.818667 4.053333-21.717333 12.202667-30.037333l351.146667-352.512h-151.765334a40.789333 40.789333 0 0 1-29.952-12.501333 41.130667 41.130667 0 0 1-12.373333-29.994667c0-11.818667 4.138667-21.802667 12.373333-30.122667A40.746667 40.746667 0 0 1 642.389333 42.666667h253.909334z" class="svg-fill-grey-800" /><path d="M896 481.024v386.218667a28.586667 28.586667 0 0 1-28.458667 28.757333H156.458667A28.586667 28.586667 0 0 1 128 867.242667V153.045333c0-15.914667 12.8-28.757333 28.458667-28.757333h360.533333a42.666667 42.666667 0 0 0 0-85.333333h-360.533333A113.92 113.92 0 0 0 42.666667 153.045333v714.24A113.92 113.92 0 0 0 156.458667 981.333333h711.082666A113.92 113.92 0 0 0 981.333333 867.242667v-386.218667a42.666667 42.666667 0 0 0-85.333333 0z" class="svg-fill-grey-500" /></svg>
