<?xml version="1.0" standalone="no"?><!DOCTYPE svg PUBLIC "-//W3C//DTD SVG 1.1//EN" "http://www.w3.org/Graphics/SVG/1.1/DTD/svg11.dtd"><svg viewBox="0 0 1024 1024" version="1.1" xmlns="http://www.w3.org/2000/svg"><path d="M410.624 42.666667c39.466667 0 71.466667 32 71.466667 71.466666V164.266667a21.333333 21.333333 0 0 0 21.333333 21.333333h405.802667c39.808 0 72.106667 32.298667 72.106666 72.106667v651.52A72.106667 72.106667 0 0 1 909.226667 981.333333H114.773333A72.106667 72.106667 0 0 1 42.666667 909.226667V128a85.333333 85.333333 0 0 1 85.333333-85.333333h282.624z m-13.866667 85.333333H128v768h768V270.933333h-392.533333a106.666667 106.666667 0 0 1-106.666667-106.666666V128z" class="svg-fill-grey-500" /><path d="M416.298667 469.888L469.333333 389.674667a55.594667 55.594667 0 0 1 92.757334-0.042667l53.333333 80.469333 85.461333 20.309334a55.594667 55.594667 0 0 1 28.757334 91.008l-61.738667 69.546666 7.765333 80.426667a55.594667 55.594667 0 0 1-76.586666 56.746667l-83.370667-34.432-83.242667 34.432a55.594667 55.594667 0 0 1-76.586666-56.746667l7.637333-79.573333-65.962667-68.821334a55.594667 55.594667 0 0 1 27.946667-92.714666l90.752-20.394667z m43.52 63.146667l-91.904 20.608 69.546666 72.533333-8.32 86.4 86.613334-35.84 86.698666 35.84-8.234666-85.589333 65.066666-73.386667-87.594666-20.778667-55.893334-84.394666-55.978666 84.565333z" class="svg-fill-grey-800" /></svg>
