<?xml version="1.0" standalone="no"?><!DOCTYPE svg PUBLIC "-//W3C//DTD SVG 1.1//EN" "http://www.w3.org/Graphics/SVG/1.1/DTD/svg11.dtd"><svg viewBox="0 0 1024 1024" version="1.1" xmlns="http://www.w3.org/2000/svg"><path d="M796.373333 321.493333a277.333333 277.333333 0 1 0-554.666666 0h85.333333a192 192 0 0 1 384 0h85.333333z" class="svg-fill-grey-800" /><path d="M113.706667 300.16m42.666666 0l725.333334 0q42.666667 0 42.666666 42.666667l0 0q0 42.666667-42.666666 42.666666l-725.333334 0q-42.666667 0-42.666666-42.666666l0 0q0-42.666667 42.666666-42.666667Z" class="svg-fill-grey-800" /><path d="M156.373333 897.493333m42.666667 0l640 0q42.666667 0 42.666667 42.666667l0 0q0 42.666667-42.666667 42.666667l-640 0q-42.666667 0-42.666667-42.666667l0 0q0-42.666667 42.666667-42.666667Z" class="svg-fill-grey-800" /><path d="M711.04 342.826667h85.333333v167.68h-85.333333V342.826667z m0 547.541333v-245.632h85.333333v245.632c0 48.64-31.786667 92.458667-78.762666 92.458667H320.469333C273.493333 982.826667 241.706667 939.008 241.706667 890.368v-245.376h85.333333v245.376c0 2.773333 0.426667 5.205333 1.024 7.125333h381.952a23.808 23.808 0 0 0 1.024-7.125333z m-384-380.074667H241.706667V342.826667h85.333333v167.466666z" class="svg-fill-grey-800" /><path d="M393.088 497.962667m42.666667 0l0 0q42.666667 0 42.666666 42.666666l0 213.333334q0 42.666667-42.666666 42.666666l0 0q-42.666667 0-42.666667-42.666666l0-213.333334q0-42.666667 42.666667-42.666666Z" class="svg-fill-grey-500" /><path d="M563.754667 497.962667m42.666666 0l0 0q42.666667 0 42.666667 42.666666l0 213.333334q0 42.666667-42.666667 42.666666l0 0q-42.666667 0-42.666666-42.666666l0-213.333334q0-42.666667 42.666666-42.666666Z" class="svg-fill-grey-500" /><path d="M796.373333 470.826667h85.333334v213.333333h-85.333334zM156.373333 470.826667h85.333334v213.333333H156.373333z" class="svg-fill-grey-800" /></svg>
