<?xml version="1.0" standalone="no"?><!DOCTYPE svg PUBLIC "-//W3C//DTD SVG 1.1//EN"
        "http://www.w3.org/Graphics/SVG/1.1/DTD/svg11.dtd">
<svg viewBox="0 0 1024 1024" version="1.1"
     xmlns="http://www.w3.org/2000/svg">
    <path d="M907.648 748.928c-12.8 21.333333-38.4 29.866667-59.733333 17.066667-21.333333-12.8-29.866667-38.4-17.066667-59.733334 29.866667-55.466667 46.933333-115.2 46.933333-179.2 0-145.066667-85.333333-277.333333-217.6-337.066666-21.333333-8.533333-29.866667-34.133333-21.333333-55.466667s34.133333-29.866667 55.466667-21.333333c162.133333 72.533333 264.533333 234.666667 264.533333 413.866666 4.266667 76.8-17.066667 153.6-51.2 221.866667zM510.848 70.528c25.6 0 42.666667 17.066667 42.666667 42.666667s-17.066667 42.666667-42.666667 42.666666c-200.533333 0-366.933333 166.4-366.933333 371.2 0 25.6-17.066667 42.666667-42.666667 42.666667s-42.666667-17.066667-42.666667-42.666667C58.581333 275.328 259.114667 70.528 510.848 70.528zM109.781333 740.394667c-12.8-21.333333-4.266667-46.933333 17.066667-55.466667s46.933333-4.266667 55.466667 17.066667c64 119.466667 187.733333 200.533333 324.266666 200.533333 76.8 0 153.6-25.6 217.6-72.533333 17.066667-12.8 46.933333-8.533333 59.733334 8.533333 12.8 17.066667 8.533333 46.933333-8.533334 59.733333-76.8 55.466667-170.666667 85.333333-264.533333 85.333334-170.666667 0-324.266667-93.866667-401.066667-243.2z"
          fill="#80A0BA"/>
    <path fill="#fff" d="M527.914667 130.261333m-85.333334 0a85.333333 85.333333 0 1 0 170.666667 0 85.333333 85.333333 0 1 0-170.666667 0Z"/>
    <path fill="#fff" d="M152.448 714.794667m-85.333333 0a85.333333 85.333333 0 1 0 170.666666 0 85.333333 85.333333 0 1 0-170.666666 0Z"/>
    <path fill="#fff" d="M869.248 748.928m-85.333333 0a85.333333 85.333333 0 1 0 170.666666 0 85.333333 85.333333 0 1 0-170.666666 0Z"/>
</svg>