<?xml version="1.0" standalone="no"?><!DOCTYPE svg PUBLIC "-//W3C//DTD SVG 1.1//EN" "http://www.w3.org/Graphics/SVG/1.1/DTD/svg11.dtd"><svg viewBox="0 0 1024 1024" version="1.1" xmlns="http://www.w3.org/2000/svg"><path d="M0 0m204.8 0l614.4 0q204.8 0 204.8 204.8l0 614.4q0 204.8-204.8 204.8l-614.4 0q-204.8 0-204.8-204.8l0-614.4q0-204.8 204.8-204.8Z" fill="#3EACFF" /><path d="M283.648 643.4304a256.4608 256.4608 0 0 0 227.5328 138.9568 253.696 253.696 0 0 0 150.9376-49.5616 29.8496 29.8496 0 0 1 35.328 48.128 313.4464 313.4464 0 0 1-186.2656 61.1328 316.16 316.16 0 0 1-280.5248-171.1104 29.8496 29.8496 0 1 1 52.992-27.5456z m358.0416-411.648a319.488 319.488 0 0 1 186.0608 290.9696c0 54.4256-13.568 107.008-39.0144 153.6512a29.8496 29.8496 0 1 1-52.4288-28.5696c20.6848-37.9904 31.744-80.6912 31.744-125.0816A259.7888 259.7888 0 0 0 616.8064 286.0544a29.8496 29.8496 0 0 1 24.832-54.272z m-130.56-28.3648a29.8496 29.8496 0 0 1 0 59.7504c-141.7728 0-256.8192 116.1728-256.8192 259.584a29.8496 29.8496 0 0 1-59.7504 0c0-176.2816 141.6704-319.3344 316.6208-319.3344z" fill="#FFFFFF" /><path d="M495.4624 245.0944m-76.8 0a76.8 76.8 0 1 0 153.6 0 76.8 76.8 0 1 0-153.6 0Z" fill="#FFFFFF" /><path d="M277.3504 671.9488m-76.8 0a76.8 76.8 0 1 0 153.6 0 76.8 76.8 0 1 0-153.6 0Z" fill="#FFFFFF" /><path d="M755.8144 640m-76.8 0a76.8 76.8 0 1 0 153.6 0 76.8 76.8 0 1 0-153.6 0Z" fill="#FFFFFF" /></svg>