<?xml version="1.0" standalone="no"?><!DOCTYPE svg PUBLIC "-//W3C//DTD SVG 1.1//EN" "http://www.w3.org/Graphics/SVG/1.1/DTD/svg11.dtd"><svg viewBox="0 0 1024 1024" version="1.1" xmlns="http://www.w3.org/2000/svg"><path d="M85.333333 682.666667m42.666667 0l768 0q42.666667 0 42.666667 42.666666l0 0q0 42.666667-42.666667 42.666667l-768 0q-42.666667 0-42.666667-42.666667l0 0q0-42.666667 42.666667-42.666666Z" class="svg-fill-grey-500" /><path d="M85.333333 853.333333m42.666667 0l768 0q42.666667 0 42.666667 42.666667l0 0q0 42.666667-42.666667 42.666667l-768 0q-42.666667 0-42.666667-42.666667l0 0q0-42.666667 42.666667-42.666667Z" class="svg-fill-grey-500" /><path d="M130.816 167.68c-14.378667 203.690667 26.026667 339.754667 128 403.114667a42.666667 42.666667 0 0 0 45.013333-72.533334c-68.693333-42.624-100.266667-149.12-87.893333-324.608A42.666667 42.666667 0 0 0 130.816 167.68zM408.149333 167.68c-14.378667 203.690667 26.026667 339.754667 128 403.114667a42.666667 42.666667 0 0 0 45.013334-72.533334c-68.693333-42.624-100.266667-149.12-87.893334-324.608A42.666667 42.666667 0 0 0 408.149333 167.68zM685.482667 167.68c-14.378667 203.690667 26.026667 339.754667 128 403.114667a42.666667 42.666667 0 0 0 45.013333-72.533334c-68.693333-42.624-100.266667-149.12-87.893333-324.608a42.666667 42.666667 0 1 0-85.12-5.973333z" class="svg-fill-grey-800" /></svg>
