<?xml version="1.0" standalone="no"?><!DOCTYPE svg PUBLIC "-//W3C//DTD SVG 1.1//EN" "http://www.w3.org/Graphics/SVG/1.1/DTD/svg11.dtd"><svg viewBox="0 0 1024 1024" version="1.1" xmlns="http://www.w3.org/2000/svg"><path fill="#ffffff" d="M896 42.666667a85.333333 85.333333 0 0 1 85.333333 85.333333v597.333333a85.333333 85.333333 0 0 1-85.333333 85.333334H128a85.333333 85.333333 0 0 1-85.333333-85.333334V128a85.333333 85.333333 0 0 1 85.333333-85.333333h768z m-42.666667 482.474666h-85.333333V682.666667h85.333333v-157.525334zM405.333333 170.666667a234.666667 234.666667 0 1 0 0 469.333333 234.666667 234.666667 0 0 0 0-469.333333zM853.333333 406.954667h-85.333333v78.805333h85.333333V406.954667z m0-118.144h-85.333333v78.762666h85.333333V288.853333zM853.333333 170.666667h-85.333333v78.762666h85.333333V170.666667z"  /><path fill="#ffffff" d="M353.621333 404.309333a52.053333 52.053333 0 0 0 51.797334 51.797334 52.053333 52.053333 0 0 0 51.797333-51.797334 51.84 51.84 0 0 0-103.594667 0z m76.8 0a25.002667 25.002667 0 0 1-25.130666 25.088 25.002667 25.002667 0 0 1-25.088-25.088c0-13.44 11.178667-23.978667 25.088-25.088 14.549333 0.64 25.088 11.178667 25.088 25.088zM370.261333 344.746667c18.944-10.069333 38.4-12.8 58.453334-5.034667 2.773333 0.512 6.656 2.261333 7.253333 2.261333 13.44-23.978667 26.752-46.165333 39.552-69.632 4.48-7.765333 2.261333-16.170667-2.261333-23.296-16.213333-24.490667-59.605333-42.282667-87.936-33.365333-27.861333 7.765333-44.032 26.709333-51.797334 53.930667-6.656 29.44 2.773333 52.906667 23.338667 74.624 5.632 3.84 8.405333 3.413333 13.397333 0.512z m69.504 120.277333c4.992-2.773333 8.405333-3.413333 13.397334 0.469333 20.608 21.76 30.634667 45.184 23.338666 74.666667-7.765333 27.221333-23.936 46.122667-51.797333 53.930667-28.330667 8.874667-71.722667-8.917333-87.893333-33.365334-4.522667-7.168-6.826667-15.573333-2.304-23.338666 12.8-23.466667 26.112-45.653333 39.509333-69.632 0.64 0 4.522667 1.792 7.253333 2.261333 20.096 7.808 39.552 5.034667 58.453334-4.992zM249.045333 336.938667c7.125333-4.522667 15.530667-6.741333 23.296-2.261334 23.466667 12.8 45.653333 26.112 69.632 39.509334 0 0.64-1.749333 4.522667-2.261333 7.253333-7.765333 20.096-5.034667 39.552 5.034667 58.453333 3.242667 5.034667 3.84 7.808-0.512 13.44-21.717333 20.565333-45.184 29.994667-74.666667 23.338667-27.178667-7.765333-46.122667-23.936-53.888-51.797333-8.96-28.330667 8.874667-71.722667 33.365333-87.893334z m216.448 20.224c21.077333-19.584 45.056-29.610667 74.026667-22.357334 27.861333 7.168 46.165333 23.338667 54.058667 50.773334 9.386667 28.373333-7.765333 71.765333-32.853334 86.826666-7.168 4.522667-15.573333 6.784-23.338666 2.261334-23.466667-12.8-45.653333-26.069333-69.632-39.509334 0-0.64 1.792-4.522667 2.261333-7.253333 7.808-20.053333 5.034667-39.509333-4.992-58.453333-2.901333-5.034667-3.413333-7.808 0.469333-12.288z"  /><path fill="#ffffff" d="M213.333333 896h170.666667v85.333333H213.333333zM640 896h170.666667v85.333333h-170.666667z"  /></svg>