<?xml version="1.0" standalone="no"?><!DOCTYPE svg PUBLIC "-//W3C//DTD SVG 1.1//EN" "http://www.w3.org/Graphics/SVG/1.1/DTD/svg11.dtd"><svg viewBox="0 0 1024 1024" version="1.1" xmlns="http://www.w3.org/2000/svg"><path d="M897.723228 46.054327m30.169889 30.169889l0 0q30.169889 30.169889 0 60.339779l-784.417122 784.417122q-30.169889 30.169889-60.339779 0l0 0q-30.169889-30.169889 0-60.339778l784.417123-784.417123q30.169889-30.169889 60.339778 0Z" class="svg-fill-grey-500" /><path d="M507.136 307.626667a42.666667 42.666667 0 1 1 0 85.333333A101.418667 101.418667 0 0 0 405.333333 494.08a42.666667 42.666667 0 1 1-85.333333 0c0-102.997333 83.797333-186.368 187.093333-186.368z m0 372.778666a42.666667 42.666667 0 1 1 0-85.333333 101.418667 101.418667 0 0 0 101.76-101.034667 42.666667 42.666667 0 0 1 85.333333 0c0 102.997333-83.84 186.368-187.093333 186.368z" class="svg-fill-grey-500" /><path d="M197.546667 652.288a42.666667 42.666667 0 1 1-63.061334 57.472c-25.429333-27.946667-63.189333-79.189333-114.261333-154.709333a78.464 78.464 0 0 1-1.578667-85.504C159.573333 243.84 322.602667 128 507.136 128a426.666667 426.666667 0 0 1 150.101333 27.221333 42.666667 42.666667 0 1 1-29.824 79.914667A341.333333 341.333333 0 0 0 507.093333 213.333333c-149.888 0-287.573333 97.194667-413.696 297.6 47.616 70.272 82.645333 117.76 104.192 141.354667z m588.202666-293.248a42.666667 42.666667 0 0 1 61.269334-59.392c27.349333 28.245333 74.794667 83.072 143.018666 165.248 21.76 26.154667 24.106667 63.36 5.930667 92.117333C854.101333 781.013333 690.944 896 507.136 896c-70.954667 0-139.221333-17.28-204.288-51.626667a42.666667 42.666667 0 0 1 39.808-75.477333c52.906667 27.946667 107.562667 41.770667 164.48 41.770667 149.333333 0 287.146667-96.426667 414.037333-295.125334C856.064 437.162667 810.666667 384.853333 785.749333 359.04z" class="svg-fill-grey-800" /></svg>
