<?xml version="1.0" standalone="no"?><!DOCTYPE svg PUBLIC "-//W3C//DTD SVG 1.1//EN"
        "http://www.w3.org/Graphics/SVG/1.1/DTD/svg11.dtd">
<svg viewBox="0 0 1024 1024" version="1.1"
     xmlns="http://www.w3.org/2000/svg">
    <path fill="#fff" d="M512 554.666667c140.8 0 256-115.2 256-256s-115.2-256-256-256-256 115.2-256 256 115.2 256 256 256z m0-85.333334c-93.866667 0-170.666667-76.8-170.666667-170.666666s76.8-170.666667 170.666667-170.666667 170.666667 76.8 170.666667 170.666667-76.8 170.666667-170.666667 170.666666z"/>
    <path fill="#fff" d="M512 469.333333C251.733333 469.333333 42.666667 678.4 42.666667 938.666667c0 25.6 17.066667 42.666667 42.666666 42.666666s42.666667-17.066667 42.666667-42.666666c0-213.333333 170.666667-384 384-384 25.6 0 42.666667-17.066667 42.666667-42.666667s-17.066667-42.666667-42.666667-42.666667z"/>
    <path d="M588.8 652.8H896c25.6 0 42.666667 17.066667 42.666667 42.666667s-17.066667 42.666667-42.666667 42.666666h-307.2c-25.6 0-42.666667-17.066667-42.666667-42.666666 0-21.333333 21.333333-42.666667 42.666667-42.666667zM588.8 832H896c25.6 0 42.666667 17.066667 42.666667 42.666667s-17.066667 42.666667-42.666667 42.666666h-307.2c-25.6 0-42.666667-17.066667-42.666667-42.666666s21.333333-42.666667 42.666667-42.666667z"
          fill="#fff"/>
</svg>