<?xml version="1.0" standalone="no"?><!DOCTYPE svg PUBLIC "-//W3C//DTD SVG 1.1//EN" "http://www.w3.org/Graphics/SVG/1.1/DTD/svg11.dtd"><svg viewBox="0 0 1024 1024" version="1.1" xmlns="http://www.w3.org/2000/svg"><path d="M0 0m204.8 0l614.4 0q204.8 0 204.8 204.8l0 614.4q0 204.8-204.8 204.8l-614.4 0q-204.8 0-204.8-204.8l0-614.4q0-204.8 204.8-204.8Z" fill="#00D6B9" /><path d="M512 179.2a183.4496 183.4496 0 1 0 0 366.9504 183.4496 183.4496 0 0 0 0-366.9504z m0 68.3008a115.2 115.2 0 1 1 0 230.4 115.2 115.2 0 0 1 0-230.4z" fill="#FFFFFF" /><path d="M512 477.9008a34.1504 34.1504 0 1 1 0 68.2496 264.5504 264.5504 0 0 0-264.4992 264.5504 34.1504 34.1504 0 0 1-68.3008 0 332.8 332.8 0 0 1 332.8-332.8z" fill="#FFFFFF" /><path d="M536.8832 611.584m29.8496 0l214.0672 0q29.8496 0 29.8496 29.8496l0 0.0512q0 29.8496-29.8496 29.8496l-214.0672 0q-29.8496 0-29.8496-29.8496l0-0.0512q0-29.8496 29.8496-29.8496Z" fill="#FFFFFF" /><path d="M536.8832 736m29.8496 0l214.0672 0q29.8496 0 29.8496 29.8496l0 0.0512q0 29.8496-29.8496 29.8496l-214.0672 0q-29.8496 0-29.8496-29.8496l0-0.0512q0-29.8496 29.8496-29.8496Z" fill="#FFFFFF" /></svg>