<?xml version="1.0" standalone="no"?><!DOCTYPE svg PUBLIC "-//W3C//DTD SVG 1.1//EN"
        "http://www.w3.org/Graphics/SVG/1.1/DTD/svg11.dtd">
<svg viewBox="0 0 1126 1024" version="1.1"
     xmlns="http://www.w3.org/2000/svg">
    <path d="M1024 0c56.32 0 102.4 46.08 102.4 102.4v665.6c0 56.32-46.08 102.4-102.4 102.4H102.4c-56.32 0-102.4-46.08-102.4-102.4V102.4C0 46.08 46.08 0 102.4 0h921.6z m0 102.4H102.4v665.6h921.6V102.4zM256 921.6h614.4c30.72 0 51.2 20.48 51.2 51.2s-20.48 51.2-51.2 51.2H256c-30.72 0-51.2-20.48-51.2-51.2s20.48-51.2 51.2-51.2z"
          fill="#80A0BA"/>
    <path fill="#fff" d="M256 256h614.4c30.72 0 51.2 20.48 51.2 51.2s-20.48 51.2-51.2 51.2H256c-30.72 0-51.2-20.48-51.2-51.2s20.48-51.2 51.2-51.2zM256 512h614.4c30.72 0 51.2 20.48 51.2 51.2s-20.48 51.2-51.2 51.2H256c-30.72 0-51.2-20.48-51.2-51.2s20.48-51.2 51.2-51.2z"/>
    <path fill="#fff" d="M768 153.6c30.72 0 51.2 20.48 51.2 51.2v204.8c0 30.72-20.48 51.2-51.2 51.2s-51.2-20.48-51.2-51.2V204.8c0-30.72 20.48-51.2 51.2-51.2zM358.4 409.6c30.72 0 51.2 20.48 51.2 51.2v204.8c0 30.72-20.48 51.2-51.2 51.2s-51.2-20.48-51.2-51.2V460.8c0-30.72 20.48-51.2 51.2-51.2z"/>
</svg>