<?xml version="1.0" standalone="no"?><!DOCTYPE svg PUBLIC "-//W3C//DTD SVG 1.1//EN" "http://www.w3.org/Graphics/SVG/1.1/DTD/svg11.dtd"><svg viewBox="0 0 1024 1024" version="1.1" xmlns="http://www.w3.org/2000/svg"><path d="M0 0m204.8 0l614.4 0q204.8 0 204.8 204.8l0 614.4q0 204.8-204.8 204.8l-614.4 0q-204.8 0-204.8-204.8l0-614.4q0-204.8 204.8-204.8Z" fill="#26B9DA" /><path d="M427.008 183.4496c32.9728 0 59.6992 26.7776 59.6992 59.7504v183.808c0 32.9728-26.7264 59.6992-59.6992 59.6992H243.2A59.7504 59.7504 0 0 1 183.4496 427.008V243.2c0-32.9728 26.7776-59.7504 59.7504-59.7504h183.808z m0 59.7504H243.2v183.808h183.808V243.2zM780.8 183.4496c32.9728 0 59.7504 26.7776 59.7504 59.7504v183.808c0 32.9728-26.7776 59.6992-59.7504 59.6992h-183.808a59.7504 59.7504 0 0 1-59.6992-59.6992V243.2c0-32.9728 26.7264-59.7504 59.6992-59.7504h183.808z m0 59.7504h-183.808v183.808h183.808V243.2zM427.008 537.2928c32.9728 0 59.6992 26.7264 59.6992 59.6992v183.808c0 32.9728-26.7264 59.7504-59.6992 59.7504H243.2a59.7504 59.7504 0 0 1-59.7504-59.7504v-183.808c0-32.9728 26.7776-59.6992 59.7504-59.6992h183.808z m0 59.6992H243.2v183.808h183.808v-183.808z" fill="#FFFFFF" /><path d="M661.3504 574.976v-3.7376a29.8496 29.8496 0 0 1 59.6992 0v3.7888c10.9568 2.7648 21.3504 7.168 30.8224 12.7488l2.7136-2.6624a29.9008 29.9008 0 0 1 42.24 42.1888l-2.7136 2.6624c5.632 9.472 9.984 19.8144 12.8 30.7712h3.7376a29.8496 29.8496 0 1 1 0 59.648h-3.7376c-2.816 10.9568-7.168 21.2992-12.8 30.8224l2.7136 2.6624a29.7984 29.7984 0 1 1-42.2912 42.1888l-2.6624-2.7136c-9.6256 5.6832-19.968 9.984-30.8224 12.8v3.7376a29.8496 29.8496 0 0 1-59.6992 0v-3.7376a118.9376 118.9376 0 0 1-30.8224-12.8l-2.7136 2.7136a29.9008 29.9008 0 0 1-42.24-42.1888l2.7136-2.6624a118.6816 118.6816 0 0 1-12.8-30.8224h-3.7376a29.8496 29.8496 0 1 1 0-59.648h3.7376c2.816-10.9568 7.168-21.2992 12.8-30.7712l-2.7136-2.7136a29.7984 29.7984 0 1 1 42.2912-42.1376l2.6624 2.6624c9.5744-5.6832 19.968-9.984 30.8224-12.8z m29.8496 175.2576a59.7504 59.7504 0 0 0 51.712-89.4976 59.7504 59.7504 0 0 0-111.4624 29.8496c0 32.9216 26.7776 59.648 59.7504 59.648z" fill="#FFFFFF" /></svg>