<?xml version="1.0" standalone="no"?><!DOCTYPE svg PUBLIC "-//W3C//DTD SVG 1.1//EN" "http://www.w3.org/Graphics/SVG/1.1/DTD/svg11.dtd"><svg viewBox="0 0 1024 1024" version="1.1" xmlns="http://www.w3.org/2000/svg"><path d="M170.666667 426.666667h682.666666a85.333333 85.333333 0 0 1 85.333334 85.333333v384a85.333333 85.333333 0 0 1-85.333334 85.333333H170.666667a85.333333 85.333333 0 0 1-85.333334-85.333333v-384a85.333333 85.333333 0 0 1 85.333334-85.333333z m0 85.333333v384h682.666666v-384H170.666667z" class="svg-fill-grey-800" /><path d="M341.333333 443.733333V312.661333C341.333333 210.090667 418.389333 128 512 128s170.666667 82.090667 170.666667 184.661333v130.346667h85.333333V312.661333C768 164.138667 653.994667 42.666667 512 42.666667S256 164.138667 256 312.661333V443.733333h85.333333z" class="svg-fill-grey-800" /><path d="M459.648 708.266667a85.333333 64 90 1 0 128 0 85.333333 64 90 1 0-128 0Z" class="svg-fill-grey-500" /></svg>
