<?xml version="1.0" standalone="no"?><!DOCTYPE svg PUBLIC "-//W3C//DTD SVG 1.1//EN" "http://www.w3.org/Graphics/SVG/1.1/DTD/svg11.dtd"><svg viewBox="0 0 1024 1024" version="1.1" xmlns="http://www.w3.org/2000/svg"><path d="M909.568 72.362667a35.285333 35.285333 0 0 1 29.098667 34.645333v457.685333c0 71.637333-22.826667 138.752-67.84 199.509334-34.986667 47.232-83.285333 90.453333-143.616 128.469333-100.864 63.616-200.533333 91.008-204.714667 92.16a35.882667 35.882667 0 0 1-18.517333 0.042667c-4.266667-1.109333-104.448-27.946667-205.952-91.306667-60.672-37.845333-109.312-81.066667-144.469334-128.384C108.288 704.298667 85.333333 636.842667 85.333333 564.650667V107.050667c0-16.981333 12.245333-31.573333 29.098667-34.645334L506.666667 0.853333a36.096 36.096 0 0 1 12.928 0l389.973333 71.509334z m-42.026667 492.330666v-421.12c0-4.224-3.029333-7.850667-7.253333-8.618666l-345.6-63.36a9.088 9.088 0 0 0-3.2 0l-347.733333 63.402666a8.832 8.832 0 0 0-7.296 8.661334v421.034666c0 152.618667 117.888 268.8 353.664 348.501334a8.96 8.96 0 0 0 5.717333 0c67.029333-22.570667 125.226667-49.493333 174.549333-80.768 117.546667-74.581333 177.152-164.650667 177.152-267.733334z" class="svg-fill-grey-500" /><path d="M632.448 226.858667a195.072 195.072 0 0 0-73.984-45.141334c-16.554667-5.802667-32.853333 6.784-32.554667 25.088l2.048 124.501334-43.946666-0.725334-2.048-124.501333a24.32 24.32 0 0 0-7.594667-18.432c-7.466667-7.466667-16.64-9.429333-27.562667-5.973333A174.848 174.848 0 0 0 325.12 351.786667c0.853333 51.242667 21.674667 93.696 55.168 127.232 14.890667 14.848 31.573333 27.946667 50.005333 35.584l7.04 205.141333 0.426667 25.642667a26.026667 26.026667 0 0 0 26.026667 26.026666l102.570666 1.706667a24.064 24.064 0 0 0 25.216-25.173333l-0.426666-25.642667-7.04-205.184c61.781333-28.245333 101.034667-89.856 101.717333-161.28-0.853333-51.2-21.76-97.365333-53.376-128.981333z m-77.824 240.341333c-16 6.314667-25.514667 22.272-25.429333 41.514667l5.418666 209.834666-44.885333-0.213333-5.418667-209.834667a45.226667 45.226667 0 0 0-12.970666-32.128c-3.242667-3.242667-6.442667-6.485333-12.885334-9.685333a107.52 107.52 0 0 1-32.170666-22.613333c-20.949333-20.949333-33.92-49.92-32.469334-80.341334-0.213333-38.442667 17.237333-72.021333 47.573334-92.714666l0.426666 73.728c0 12.8 4.906667 24.106667 12.970667 32.128 8.064 8.106667 19.285333 12.928 32.128 13.013333l38.442667 0.213333c25.642667 0.128 46.378667-20.608 44.629333-44.629333l-0.384-73.770667c6.4 3.242667 11.264 8.106667 16.085333 12.928 20.949333 20.949333 33.962667 49.877333 32.512 80.298667 1.834667 43.306667-22.016 83.242667-63.573333 102.272z" class="svg-fill-grey-800" /></svg>
