<?xml version="1.0" standalone="no"?><!DOCTYPE svg PUBLIC "-//W3C//DTD SVG 1.1//EN" "http://www.w3.org/Graphics/SVG/1.1/DTD/svg11.dtd"><svg viewBox="0 0 1024 1024" version="1.1" xmlns="http://www.w3.org/2000/svg"><path d="M515.413333 558.08a257.706667 257.706667 0 1 0 0-515.413333 257.706667 257.706667 0 0 0 0 515.413333z m0-85.333333a172.373333 172.373333 0 1 1 0-344.746667 172.373333 172.373333 0 0 1 0 344.746667z" class="svg-fill-grey-500" /><path d="M515.413333 472.746667C254.293333 472.746667 42.666667 684.373333 42.666667 945.493333a42.666667 42.666667 0 0 0 85.333333 0 387.413333 387.413333 0 0 1 387.413333-387.413333 42.666667 42.666667 0 0 0 0-85.333333z" class="svg-fill-grey-500" /><path d="M721.877333 599.210667v-5.376a42.624 42.624 0 0 1 85.290667 0v5.376c15.658667 4.010667 30.464 10.24 44.032 18.261333l3.84-3.84a42.666667 42.666667 0 0 1 60.330667 0 42.581333 42.581333 0 0 1 0 60.245333l-3.84 3.84c7.978667 13.525333 14.208 28.288 18.218666 43.946667h5.376a42.624 42.624 0 1 1 0 85.162667h-5.376a168.533333 168.533333 0 0 1-18.261333 43.946666l3.84 3.84a42.581333 42.581333 0 0 1 0 60.288 42.666667 42.666667 0 0 1-60.330667 0l-3.84-3.84c-13.696 8.106667-28.544 14.250667-43.989333 18.218667v5.376a42.624 42.624 0 0 1-85.333333 0v-5.376a169.856 169.856 0 0 1-43.989334-18.218667l-3.84 3.84a42.666667 42.666667 0 0 1-59.776-0.554666 42.538667 42.538667 0 0 1-0.512-59.733334l3.84-3.84a169.514667 169.514667 0 0 1-18.261333-43.946666h-5.376a42.624 42.624 0 1 1 0-85.162667h5.376c4.010667-15.658667 10.24-30.421333 18.218667-43.946667l-3.84-3.84a42.581333 42.581333 0 0 1 0.042666-60.288 42.666667 42.666667 0 0 1 60.330667 0l3.797333 3.84c13.738667-8.106667 28.586667-14.208 44.032-18.218666z m42.666667 250.24a85.12 85.12 0 1 0 0-170.410667 85.248 85.248 0 1 0 0 170.410667z" class="svg-fill-grey-800" /></svg>
