<?xml version="1.0" standalone="no"?><!DOCTYPE svg PUBLIC "-//W3C//DTD SVG 1.1//EN" "http://www.w3.org/Graphics/SVG/1.1/DTD/svg11.dtd"><svg viewBox="0 0 1024 1024" version="1.1" xmlns="http://www.w3.org/2000/svg"><path d="M917.205333 307.413333a42.581333 42.581333 0 0 1 64.768 29.866667l0.426667 6.144v474.197333a42.581333 42.581333 0 0 1-17.706667 34.56l-5.845333 3.541334-267.008 133.162666c-18.730667 9.386667-40.405333 10.325333-59.733333 2.986667l-8.106667-3.669333-275.797333-144.384-243.584 133.632a42.581333 42.581333 0 0 1-62.549334-31.018667l-0.469333-6.272V463.786667c0-11.221333 4.437333-21.888 12.16-29.781334l5.034667-4.394666 86.613333-64.213334a42.581333 42.581333 0 0 1 55.893333 63.829334l-5.162666 4.522666-69.418667 51.456v383.061334l185.514667-101.76c19.157333-10.538667 41.813333-12.032 61.952-4.48l8.533333 3.797333 275.882667 144.469333 238.677333-119.04V420.394667l-24.106667 15.232a42.581333 42.581333 0 0 1-54.528-7.850667l-4.138666-5.546667a42.581333 42.581333 0 0 1 7.850666-54.528l5.546667-4.138666 89.301333-56.149334z" class="svg-fill-grey-500" /><path d="M512 25.6a240 240 0 0 1 240 240c0 80.768-66.816 192.725333-200.490667 335.914667l-17.408 18.346666a32 32 0 0 1-40.917333 2.773334l-4.352-3.84-16.341333-17.28c-133.674667-143.189333-200.490667-255.146667-200.490667-335.914667A240 240 0 0 1 512 25.6z m0 85.12a154.88 154.88 0 0 0-154.88 154.88c0 46.165333 44.117333 125.866667 135.296 230.912l19.498667 22.101333 4.096-4.48c97.237333-108.8 146.474667-192.042667 150.613333-241.92l0.256-6.613333A154.88 154.88 0 0 0 512 110.72z" class="svg-fill-grey-800" /></svg>
