<?xml version="1.0" standalone="no"?><!DOCTYPE svg PUBLIC "-//W3C//DTD SVG 1.1//EN"
        "http://www.w3.org/Graphics/SVG/1.1/DTD/svg11.dtd">
<svg viewBox="0 0 1024 1024" version="1.1"
     xmlns="http://www.w3.org/2000/svg">
    <path d="M768 0H256a128 128 0 0 0-128 128v768a128 128 0 0 0 128 128h512a128 128 0 0 0 128-128V128a128 128 0 0 0-128-128zM256 85.333333h512a42.666667 42.666667 0 0 1 42.666667 42.666667v768a42.666667 42.666667 0 0 1-42.666667 42.666667H256a42.666667 42.666667 0 0 1-42.666667-42.666667V128a42.666667 42.666667 0 0 1 42.666667-42.666667z"
          class="svg-fill-grey-800"/>
    <path d="M516.053333 808.064m-64 0a64 64 0 1 0 128 0 64 64 0 1 0-128 0Z" class="svg-fill-grey-500"/>
    <path d="M853.333333 597.333333v85.333334H170.666667v-85.333334z" class="svg-fill-grey-800"/>
</svg>
