<?xml version="1.0" standalone="no"?><!DOCTYPE svg PUBLIC "-//W3C//DTD SVG 1.1//EN" "http://www.w3.org/Graphics/SVG/1.1/DTD/svg11.dtd"><svg viewBox="0 0 1024 1024" version="1.1" xmlns="http://www.w3.org/2000/svg"><path d="M38.101333 897.152m42.666667 0l853.333333 0q42.666667 0 42.666667 42.666667l0 0q0 42.666667-42.666667 42.666666l-853.333333 0q-42.666667 0-42.666667-42.666666l0 0q0-42.666667 42.666667-42.666667Z" class="svg-fill-grey-500" /><path d="M582.784 90.709333l336.469333 523.306667a89.6 89.6 0 0 1-75.392 138.069333H171.008a89.6 89.6 0 0 1-75.392-138.069333L432.085333 90.752a89.6 89.6 0 0 1 150.698667 0zM509.738667 135.552a4.266667 4.266667 0 0 0-5.888 1.28L167.381333 660.181333a4.266667 4.266667 0 0 0 3.584 6.570667h672.853334a4.266667 4.266667 0 0 0 3.584-6.570667L511.018667 136.832a4.266667 4.266667 0 0 0-1.28-1.28z" class="svg-fill-grey-800" /></svg>
