<?xml version="1.0" standalone="no"?><!DOCTYPE svg PUBLIC "-//W3C//DTD SVG 1.1//EN"
        "http://www.w3.org/Graphics/SVG/1.1/DTD/svg11.dtd">
<svg viewBox="0 0 1152 1024" version="1.1"
     xmlns="http://www.w3.org/2000/svg">
    <path d="M245.674667 790.101333h-88.32A115.498667 115.498667 0 0 1 41.813333 674.56V309.034667a115.498667 115.498667 0 0 1 115.541334-115.498667h96L420.181333 29.269333a79.488 79.488 0 0 1 135.253334 56.661334v779.946666a79.488 79.488 0 0 1-127.701334 63.189334l-182.101333-138.965334zM468.48 103.850667L288.981333 280.533333H157.354667c-15.786667 0-28.501333 12.8-28.501334 28.501334v365.568c0 15.701333 12.757333 28.501333 28.501334 28.501333h117.76l193.365333 147.626667V103.850667z"
          class="svg-fill-grey-800"/>
    <path d="M633.859339 658.207812m30.169889-30.169889l239.277392-239.277392q30.169889-30.169889 60.339779 0l0 0q30.169889 30.169889 0 60.339779l-239.277392 239.277392q-30.169889 30.169889-60.339779 0l0 0q-30.169889-30.169889 0-60.339779Z"
          class="svg-fill-grey-500"/>
    <path d="M905.750381 690.006876l-243.772705-243.772706a42.666667 42.666667 0 0 1 60.339778-60.339779l243.772706 243.772706a42.666667 42.666667 0 1 1-60.339779 60.339779z"
          class="svg-fill-grey-500"/>
</svg>
