<?xml version="1.0" standalone="no"?><!DOCTYPE svg PUBLIC "-//W3C//DTD SVG 1.1//EN" "http://www.w3.org/Graphics/SVG/1.1/DTD/svg11.dtd"><svg viewBox="0 0 1024 1024" version="1.1" xmlns="http://www.w3.org/2000/svg"><path d="M0 0m204.8 0l614.4 0q204.8 0 204.8 204.8l0 614.4q0 204.8-204.8 204.8l-614.4 0q-204.8 0-204.8-204.8l0-614.4q0-204.8 204.8-204.8Z" fill="#C3DD40" /><path d="M416.512 190.8736c37.6832 0 68.2496 30.5664 68.2496 68.3008v166.7072c0 37.6832-30.5664 68.2496-68.2496 68.2496H249.8048a68.2496 68.2496 0 0 1-68.3008-68.2496V259.1744c0-37.7344 30.5664-68.3008 68.3008-68.3008h166.7072z m0 68.3008H249.8048v166.7072h166.7072V259.1744zM770.304 190.8736c37.7344 0 68.3008 30.5664 68.3008 68.3008v166.7072c0 37.6832-30.5664 68.2496-68.3008 68.2496H603.648a68.2496 68.2496 0 0 1-68.3008-68.2496V259.1744c0-37.7344 30.5664-68.3008 68.3008-68.3008h166.7072z m0 68.3008H603.648v166.7072h166.7072V259.1744zM416.512 544.6656c37.6832 0 68.2496 30.5664 68.2496 68.3008v166.7072c0 37.7344-30.5664 68.3008-68.2496 68.3008H249.8048a68.2496 68.2496 0 0 1-68.3008-68.3008v-166.7072c0-37.7344 30.5664-68.3008 68.3008-68.3008h166.7072z m0 68.3008H249.8048v166.7072h166.7072v-166.7072zM770.304 544.6656c37.7344 0 68.3008 30.5664 68.3008 68.3008v166.7072c0 37.7344-30.5664 68.3008-68.3008 68.3008H603.648a68.2496 68.2496 0 0 1-68.3008-68.3008v-166.7072c0-37.7344 30.5664-68.3008 68.3008-68.3008h166.7072z m0 68.3008H603.648v166.7072h166.7072v-166.7072z" fill="#FFFFFF" /></svg>