<?xml version="1.0" standalone="no"?><!DOCTYPE svg PUBLIC "-//W3C//DTD SVG 1.1//EN" "http://www.w3.org/Graphics/SVG/1.1/DTD/svg11.dtd"><svg viewBox="0 0 1024 1024" version="1.1" xmlns="http://www.w3.org/2000/svg"><path d="M42.666667 512c0 259.2 210.133333 469.333333 469.333333 469.333333s469.333333-210.133333 469.333333-469.333333S771.2 42.666667 512 42.666667a42.666667 42.666667 0 1 0 0 85.333333 384 384 0 1 1-384 384 42.666667 42.666667 0 1 0-85.333333 0z" class="svg-fill-grey-500" /><path d="M512 512m-77.568 0a77.568 77.568 0 1 0 155.136 0 77.568 77.568 0 1 0-155.136 0Z" class="svg-fill-grey-800" /><path d="M131.726635 198.527078m29.638758-30.691832l0 0q29.638757-30.691831 60.330588-1.053074l273.433527 264.051687q30.691831 29.638757 1.053074 60.330589l0 0q-29.638757 30.691831-60.330588 1.053074l-273.433527-264.051687q-30.691831-29.638757-1.053074-60.330589Z" class="svg-fill-grey-800" /></svg>
