<?xml version="1.0" standalone="no"?><!DOCTYPE svg PUBLIC "-//W3C//DTD SVG 1.1//EN" "http://www.w3.org/Graphics/SVG/1.1/DTD/svg11.dtd"><svg viewBox="0 0 1024 1024" version="1.1" xmlns="http://www.w3.org/2000/svg"><path d="M128 42.666667h262.570667a85.333333 85.333333 0 0 1 85.333333 85.333333v262.570667a85.333333 85.333333 0 0 1-85.333333 85.333333H128a85.333333 85.333333 0 0 1-85.333333-85.333333V128a85.333333 85.333333 0 0 1 85.333333-85.333333z m0 85.333333v262.570667h262.570667V128H128z" class="svg-fill-grey-500" /><path d="M633.429333 42.666667H896a85.333333 85.333333 0 0 1 85.333333 85.333333v262.570667a85.333333 85.333333 0 0 1-85.333333 85.333333h-262.570667a85.333333 85.333333 0 0 1-85.333333-85.333333V128a85.333333 85.333333 0 0 1 85.333333-85.333333z m0 85.333333v262.570667H896V128h-262.570667z" class="svg-fill-grey-800" /><path d="M128 548.096h262.570667a85.333333 85.333333 0 0 1 85.333333 85.333333V896a85.333333 85.333333 0 0 1-85.333333 85.333333H128a85.333333 85.333333 0 0 1-85.333333-85.333333v-262.570667a85.333333 85.333333 0 0 1 85.333333-85.333333z m0 85.333333V896h262.570667v-262.570667H128zM633.429333 548.096H896a85.333333 85.333333 0 0 1 85.333333 85.333333V896a85.333333 85.333333 0 0 1-85.333333 85.333333h-262.570667a85.333333 85.333333 0 0 1-85.333333-85.333333v-262.570667a85.333333 85.333333 0 0 1 85.333333-85.333333z m0 85.333333V896H896v-262.570667h-262.570667z" class="svg-fill-grey-500" /></svg>
