<?xml version="1.0" standalone="no"?><!DOCTYPE svg PUBLIC "-//W3C//DTD SVG 1.1//EN" "http://www.w3.org/Graphics/SVG/1.1/DTD/svg11.dtd"><svg viewBox="0 0 1024 1024" version="1.1" xmlns="http://www.w3.org/2000/svg"><path d="M0 0m204.8 0l614.4 0q204.8 0 204.8 204.8l0 614.4q0 204.8-204.8 204.8l-614.4 0q-204.8 0-204.8-204.8l0-614.4q0-204.8 204.8-204.8Z" fill="#04B49C" /><path d="M810.0352 680.6016l-0.0512 97.2288-596.6848 0.2048V680.6016c68.0448-14.5408 119.3472-77.9264 119.3472-153.6-0.1024-74.496-49.92-138.7008-119.296-153.7024l0.0512-97.2288 596.6336-0.2048v97.4336c-69.376 15.0016-119.2448 79.1552-119.296 153.6512 0.0512 74.496 49.92 138.6496 119.296 153.6512m29.8496-247.7568h29.8496V275.8656C869.632 241.2544 842.8544 213.2992 809.984 213.3504H213.4016C180.48 213.2992 153.7024 241.2544 153.6 275.8144v157.0304h29.8496c49.3568 0 89.4976 42.1888 89.4976 94.1056 0 51.8656-40.1408 94.1056-89.4976 94.1056H153.6v156.9792c0.0512 34.56 26.7776 62.5664 59.6992 62.5152H809.984c32.9216 0.0512 59.648-27.9552 59.7504-62.5152V621.056h-29.8496c-49.3568 0-89.4976-42.24-89.4976-94.1056 0-51.9168 40.1408-94.1056 89.4976-94.1056" fill="#FFFFFF" /><path d="M601.1904 539.4944a21.4528 21.4528 0 0 0 20.8896-22.016 21.4528 21.4528 0 0 0-20.8896-21.9136H541.184c0-0.1024 0.1024-0.1024 0.2048-0.1536l59.648-62.72a22.7328 22.7328 0 0 0 5.4272-21.1968 21.4528 21.4528 0 0 0-14.7968-15.5136 20.1728 20.1728 0 0 0-20.1728 5.632L511.8464 464.384l-0.1536 0.2048-0.1536-0.256-59.6992-62.72a20.1728 20.1728 0 0 0-29.5424 0 22.784 22.784 0 0 0 0 31.0784l59.6992 62.72 0.2048 0.1536H422.144a21.4528 21.4528 0 0 0-20.8896 21.9648c0 12.1344 9.3696 21.9648 20.8896 21.9648h68.608v50.176h-68.608a20.736 20.736 0 0 0-18.0736 10.9568 22.9376 22.9376 0 0 0 0 21.9648 20.736 20.736 0 0 0 18.0736 10.9568h68.608v18.8416c0 12.0832 9.3696 21.9136 20.9408 21.9136a21.4528 21.4528 0 0 0 20.8896-21.9136v-18.8416h68.608c7.4752 0 14.336-4.1984 18.0736-10.9568a22.9376 22.9376 0 0 0 0-21.9648 20.736 20.736 0 0 0-18.0736-10.9568h-68.608v-50.176h68.608z" fill="#FFFFFF" /></svg>