<?xml version="1.0" standalone="no"?><!DOCTYPE svg PUBLIC "-//W3C//DTD SVG 1.1//EN" "http://www.w3.org/Graphics/SVG/1.1/DTD/svg11.dtd"><svg viewBox="0 0 1024 1024" version="1.1" xmlns="http://www.w3.org/2000/svg"><path d="M807.466667 921.898667H131.882667C117.674667 921.898667 107.008 911.829333 107.008 900.565333v-768c0-11.264 10.666667-21.333333 24.874667-21.333333h675.584c14.250667 0 24.874667 10.069333 24.874666 21.333333v301.738667a42.666667 42.666667 0 0 0 85.333334 0V132.565333C917.674667 73.130667 867.84 25.898667 807.466667 25.898667H131.882667C71.509333 25.898667 21.674667 73.130667 21.674667 132.565333v768C21.674667 960 71.509333 1007.232 131.882667 1007.232h675.584a42.666667 42.666667 0 0 0 0-85.333333z" class="svg-fill-grey-500" /><path d="M192.341333 213.333333m42.666667 0l341.333333 0q42.666667 0 42.666667 42.666667l0 0q0 42.666667-42.666667 42.666667l-341.333333 0q-42.666667 0-42.666667-42.666667l0 0q0-42.666667 42.666667-42.666667Z" class="svg-fill-grey-500" /><path d="M192.341333 426.666667m42.666667 0l341.333333 0q42.666667 0 42.666667 42.666666l0 0q0 42.666667-42.666667 42.666667l-341.333333 0q-42.666667 0-42.666667-42.666667l0 0q0-42.666667 42.666667-42.666666Z" class="svg-fill-grey-500" /><path d="M718.08 583.210667l-151.68 157.44a65.152 65.152 0 0 0-18.261333 45.226666v54.4c0 35.968 29.184 65.152 65.194666 65.152h59.818667c17.792 0 34.816-7.253333 47.146667-20.138666l204.074666-213.504-149.717333-149.162667-56.576 60.586667z m58.24 31.402666l58.453333 58.24-160.768 168.234667a1.152 1.152 0 0 1-0.853333 0.341333h-59.818667a1.152 1.152 0 0 1-1.194666-1.152v-54.4c0-0.298667 0.128-0.597333 0.341333-0.853333l151.850667-157.610667 0.341333-0.341333 11.648-12.458667z" class="svg-fill-grey-800" /><path d="M918.4 677.12c25.642667-19.626667 41.045333-50.261333 41.045333-83.370667 0-57.728-46.336-104.661333-103.68-104.661333-32.725333 0-73.685333 20.437333-92.885333 46.336a32 32 0 1 0 51.413333 38.144c7.082667-9.6 28.928-20.48 41.472-20.48 21.802667 0 39.68 18.090667 39.68 40.661333 0 13.013333-5.973333 24.96-15.957333 32.597334a32 32 0 0 0 38.912 50.773333z" class="svg-fill-grey-800" /></svg>
