<?xml version="1.0" standalone="no"?><!DOCTYPE svg PUBLIC "-//W3C//DTD SVG 1.1//EN" "http://www.w3.org/Graphics/SVG/1.1/DTD/svg11.dtd"><svg viewBox="0 0 1024 1024" version="1.1" xmlns="http://www.w3.org/2000/svg"><path d="M128 213.333333h768a85.333333 85.333333 0 0 1 85.333333 85.333334v597.333333a85.333333 85.333333 0 0 1-85.333333 85.333333H128a85.333333 85.333333 0 0 1-85.333333-85.333333V298.666667a85.333333 85.333333 0 0 1 85.333333-85.333334z m0 85.333334v597.333333h768V298.666667H128z" class="svg-fill-grey-800" /><path d="M42.666667 42.666667m42.666666 0l853.333334 0q42.666667 0 42.666666 42.666666l0 0q0 42.666667-42.666666 42.666667l-853.333334 0q-42.666667 0-42.666666-42.666667l0 0q0-42.666667 42.666666-42.666666Z" class="svg-fill-grey-500" /><path d="M286.293333 567.637333a42.666667 42.666667 0 1 0-60.586666 60.16l204.245333 205.610667 368.554667-376.917333a42.666667 42.666667 0 1 0-61.013334-59.648l-308.053333 315.008-143.146667-144.213334z" class="svg-fill-grey-800" /></svg>
