<?xml version="1.0" standalone="no"?><!DOCTYPE svg PUBLIC "-//W3C//DTD SVG 1.1//EN" "http://www.w3.org/Graphics/SVG/1.1/DTD/svg11.dtd"><svg viewBox="0 0 1024 1024" version="1.1" xmlns="http://www.w3.org/2000/svg"><path d="M794.154667 163.584a406.528 406.528 0 0 0-135.04-85.973333 423.082667 423.082667 0 0 0-153.6-28.629334 423.082667 423.082667 0 0 0-153.514667 28.629334 407.594667 407.594667 0 0 0-135.04 85.973333A387.456 387.456 0 0 0 127.317333 293.12a377.216 377.216 0 0 0 0 294.528 388.48 388.48 0 0 0 89.642667 129.536l257.024 246.485333a45.653333 45.653333 0 0 0 63.146667 0 38.144 38.144 0 0 0-2.474667-57.258666 543.146667 543.146667 0 0 1-29.184-24.576c-49.493333-47.488-127.36-122.538667-233.514667-225.28-124.330667-119.168-124.330667-313.173333 0-432.384 60.16-57.728 148.352-102.954667 233.514667-102.954667s173.141333 45.226667 233.301333 102.954667c124.330667 119.210667 124.330667 313.173333 0 432.426666-105.642667 102.4-183.424 177.493333-233.216 225.28-4.48 4.266667-14.208 12.458667-29.098666 24.448a38.229333 38.229333 0 0 0-2.474667 57.344 45.653333 45.653333 0 0 0 63.146667 0l257.024-246.485333a387.456 387.456 0 0 0 89.6-129.536 377.216 377.216 0 0 0 0-294.528 388.48 388.48 0 0 0-89.6-129.536z" class="svg-fill-grey-800" /><path d="M653.952 448.768c0-80.213333-66.56-145.365333-148.394667-145.365333-81.877333 0-148.394667 65.194667-148.394666 145.365333 0 80.213333 66.56 145.365333 148.394666 145.365333 81.834667-0.085333 148.394667-65.28 148.394667-145.365333z m-148.394667 72.704c-40.874667 0-74.24-32.597333-74.24-72.704s33.28-72.704 74.24-72.704 74.197333 32.597333 74.197334 72.704-33.28 72.704-74.24 72.704z" class="svg-fill-grey-500" /></svg>
