<?xml version="1.0" standalone="no"?><!DOCTYPE svg PUBLIC "-//W3C//DTD SVG 1.1//EN" "http://www.w3.org/Graphics/SVG/1.1/DTD/svg11.dtd"><svg viewBox="0 0 1024 1024" version="1.1" xmlns="http://www.w3.org/2000/svg"><path d="M314.666667 128h384v175.445333h85.333333V122.026667c0-43.008-33.194667-79.36-76.202667-79.36H305.536c-43.008 0-76.202667 36.352-76.202667 79.36v188.586666h85.333334V128z" class="svg-fill-grey-500" /><path d="M302.037333 831.146667H156.458667c-14.506667 0-28.458667-15.701333-28.458667-37.418667V353.152c0-21.717333 13.952-37.418667 28.458667-37.418667h711.082666c14.506667 0 28.458667 15.701333 28.458667 37.418667v440.576c0 21.717333-13.952 37.418667-28.458667 37.418667h-141.568v85.333333h141.568c64.042667 0 113.792-56.021333 113.792-122.752V353.152C981.333333 286.421333 931.584 230.4 867.541333 230.4H156.458667C92.416 230.4 42.666667 286.421333 42.666667 353.152v440.576c0 66.730667 49.749333 122.752 113.792 122.752h145.578666v-85.333333z" class="svg-fill-grey-800" /><path d="M357.333333 643.413333h298.666667a85.333333 85.333333 0 0 1 85.333333 85.333334V896a85.333333 85.333333 0 0 1-85.333333 85.333333h-298.666667a85.333333 85.333333 0 0 1-85.333333-85.333333v-167.253333a85.333333 85.333333 0 0 1 85.333333-85.333334z m0 85.333334V896h298.666667v-167.253333h-298.666667z" class="svg-fill-grey-500" /></svg>
