<?xml version="1.0" standalone="no"?>
<!DOCTYPE svg PUBLIC "-//W3C//DTD SVG 1.1//EN" "http://www.w3.org/Graphics/SVG/1.1/DTD/svg11.dtd">
<svg viewBox="0 0 1024 1024" version="1.1" xmlns="http://www.w3.org/2000/svg">
    <path d="M477.44 295.68m42.688 0l-0.064 0q42.688 0 42.688 42.688l0 250.624q0 42.688-42.688 42.688l0.064 0q-42.688 0-42.688-42.688l0-250.624q0-42.688 42.688-42.688Z"
          class="svg-fill-grey-500"/>
    <path d="M518.272 719.232m-64 0a64 64 0 1 0 128 0 64 64 0 1 0-128 0Z"
          class="svg-fill-grey-500"/>
    <path d="M1004.864 439.232a42.688 42.688 0 1 1-84.16 14.08c-32.448-194.24-203.712-338.944-406.016-338.944-201.792 0-372.8 144-405.76 337.6a42.688 42.688 0 1 1-84.16-14.336C64.768 203.008 271.36 29.056 514.688 29.056c243.968 0 450.88 174.72 490.24 410.24zM25.216 604.416a42.688 42.688 0 1 1 84.032-14.784c33.92 192.64 204.48 335.36 405.44 335.36 200.576 0 370.816-142.208 405.248-334.336a42.688 42.688 0 1 1 83.968 15.104c-41.664 232.768-247.36 404.608-489.216 404.608-242.304 0-448.32-172.544-489.472-405.952z"
          class="svg-fill-grey-800"/>
</svg>
