<?xml version="1.0" standalone="no"?><!DOCTYPE svg PUBLIC "-//W3C//DTD SVG 1.1//EN" "http://www.w3.org/Graphics/SVG/1.1/DTD/svg11.dtd"><svg viewBox="0 0 1024 1024" version="1.1" xmlns="http://www.w3.org/2000/svg"><path d="M899.669333 371.370667v499.2a29.013333 29.013333 0 0 1-29.013333 29.013333H153.6a29.013333 29.013333 0 0 1-29.056-29.013333V153.514667a29.013333 29.013333 0 0 1 29.013333-29.013334h504.192a42.666667 42.666667 0 1 0 0-85.333333H153.6a114.346667 114.346667 0 0 0-114.389333 114.346667v717.056c0 63.146667 51.2 114.346667 114.346666 114.346666h717.056c63.146667 0 114.346667-51.2 114.346667-114.346666v-499.2a42.666667 42.666667 0 0 0-85.333333 0z" class="svg-fill-grey-500" /><path d="M967.893333 53.162667a42.666667 42.666667 0 0 1 0 60.330666l-465.066666 465.152a42.666667 42.666667 0 1 1-60.373334-60.373333l465.109334-465.066667a42.666667 42.666667 0 0 1 60.330666 0z" class="svg-fill-grey-800" /></svg>
