<?xml version="1.0" standalone="no"?><!DOCTYPE svg PUBLIC "-//W3C//DTD SVG 1.1//EN" "http://www.w3.org/Graphics/SVG/1.1/DTD/svg11.dtd"><svg viewBox="0 0 1024 1024" version="1.1" xmlns="http://www.w3.org/2000/svg"><path d="M128 42.666667h768a85.333333 85.333333 0 0 1 85.333333 85.333333v768a85.333333 85.333333 0 0 1-85.333333 85.333333H128a85.333333 85.333333 0 0 1-85.333333-85.333333V128a85.333333 85.333333 0 0 1 85.333333-85.333333z m0 85.333333v768h768V128H128z" class="svg-fill-grey-500" /><path d="M81.792 748.288m39.125333 0l782.208 0q39.125333 0 39.125334 39.125333l0 7.082667q0 39.125333-39.125334 39.125333l-782.208 0q-39.125333 0-39.125333-39.125333l0-7.082667q0-39.125333 39.125333-39.125333Z" class="svg-fill-grey-500" /><path d="M277.333333 397.141333m42.666667 0l0 0q42.666667 0 42.666667 42.666667l0 190.378667q0 42.666667-42.666667 42.666666l0 0q-42.666667 0-42.666667-42.666666l0-190.378667q0-42.666667 42.666667-42.666667Z" class="svg-fill-grey-800" /><path d="M668.458667 318.378667m42.666666 0l0 0q42.666667 0 42.666667 42.666666l0 269.141334q0 42.666667-42.666667 42.666666l0 0q-42.666667 0-42.666666-42.666666l0-269.141334q0-42.666667 42.666666-42.666666Z" class="svg-fill-grey-800" /><path d="M472.874667 278.954667m42.666666 0l0 0q42.666667 0 42.666667 42.666666l0 308.522667q0 42.666667-42.666667 42.666667l0 0q-42.666667 0-42.666666-42.666667l0-308.522667q0-42.666667 42.666666-42.666666Z" class="svg-fill-grey-800" /></svg>
