<?xml version="1.0" standalone="no"?><!DOCTYPE svg PUBLIC "-//W3C//DTD SVG 1.1//EN" "http://www.w3.org/Graphics/SVG/1.1/DTD/svg11.dtd"><svg viewBox="0 0 1024 1024" version="1.1" xmlns="http://www.w3.org/2000/svg"><path d="M656.085333 461.354667l288-288a42.666667 42.666667 0 0 0-60.330666-60.330667l-288 288a42.666667 42.666667 0 1 0 60.330666 60.330667z" class="svg-fill-grey-500" /><path d="M668.586667 388.522667v-245.333334a42.666667 42.666667 0 1 0-85.333334 0v330.666667h330.666667a42.666667 42.666667 0 1 0 0-85.333333h-245.333333z" class="svg-fill-grey-800" /><path d="M365.354667 573.824l-288 288a42.666667 42.666667 0 0 0 60.330666 60.330667l288-288a42.666667 42.666667 0 1 0-60.330666-60.330667z" class="svg-fill-grey-500" /><path d="M352.853333 646.656v245.333333a42.666667 42.666667 0 1 0 85.333334 0v-330.666666H107.52a42.666667 42.666667 0 1 0 0 85.333333h245.333333z" class="svg-fill-grey-800" /></svg>
