<?xml version="1.0" standalone="no"?><!DOCTYPE svg PUBLIC "-//W3C//DTD SVG 1.1//EN" "http://www.w3.org/Graphics/SVG/1.1/DTD/svg11.dtd"><svg viewBox="0 0 1024 1024" version="1.1" xmlns="http://www.w3.org/2000/svg"><path d="M267.093333 698.24a33.877333 33.877333 0 0 0 47.701334 0 30.848 30.848 0 0 0 0-45.909333l-112.469334-108.16h327.253334c20.48 0 34.090667-13.098667 34.090666-32.768 0-19.626667-13.653333-32.768-34.090666-32.768h-327.253334l112.469334-108.16a30.848 30.848 0 0 0 0-45.866667 31.530667 31.530667 0 0 0-23.893334-9.813333 31.573333 31.573333 0 0 0-23.850666 9.813333l-170.453334 167.125333s0 3.285333-3.413333 3.285334c-10.24 9.813333-10.24 29.482667 3.413333 39.338666l170.496 163.84z" class="svg-fill-grey-500" /><path d="M162.901333 311.765333V194.645333c0-17.493333 14.208-31.744 31.744-31.744h634.709334c17.493333 0 31.744 14.208 31.744 31.744v634.709334c0 17.493333-14.208 31.744-31.744 31.744H194.645333a31.744 31.744 0 0 1-31.744-31.744v-95.701334a38.826667 38.826667 0 1 0-77.568 0v95.701334A109.312 109.312 0 0 0 194.645333 938.666667h634.709334A109.312 109.312 0 0 0 938.666667 829.354667V194.645333A109.312 109.312 0 0 0 829.354667 85.333333H194.645333A109.312 109.312 0 0 0 85.333333 194.645333v117.12a38.826667 38.826667 0 0 0 77.568 0z" class="svg-fill-grey-800" /></svg>
