<?xml version="1.0" standalone="no"?><!DOCTYPE svg PUBLIC "-//W3C//DTD SVG 1.1//EN" "http://www.w3.org/Graphics/SVG/1.1/DTD/svg11.dtd"><svg viewBox="0 0 1024 1024" version="1.1" xmlns="http://www.w3.org/2000/svg"><path d="M0 0m204.8 0l614.4 0q204.8 0 204.8 204.8l0 614.4q0 204.8-204.8 204.8l-614.4 0q-204.8 0-204.8-204.8l0-614.4q0-204.8 204.8-204.8Z" fill="#00ADD4" /><path d="M684.288 484.1472c27.7504 0 51.712 19.712 54.784 46.5408l0.3584 5.8368v102.912h-59.7504v-95.5904H335.0528v94.464H275.3536v-101.7856c0-27.7504 22.1184-49.3056 49.2544-52.0704l5.8368-0.3072h353.792z" fill="#FFFFFF" /><path d="M482.0992 399.2576h51.2v100.352h-51.2z" fill="#FFFFFF" /><path d="M573.952 198.5536c33.024 0 59.8016 26.7776 59.8016 59.7504v81.2544c0 32.9728-26.7776 59.6992-59.7504 59.6992H440.7296a59.7504 59.7504 0 0 1-59.6992-59.6992V258.304c0-32.9728 26.7264-59.7504 59.6992-59.7504h133.2736z m0 59.7504H440.7808v81.2544h133.2736V258.304zM371.8144 625.0496c32.9728 0 59.7504 26.7776 59.7504 59.7504v81.2544c0 32.9728-26.7776 59.6992-59.7504 59.6992H238.592a59.7504 59.7504 0 0 1-59.7504-59.6992v-81.2544c0-32.9728 26.7264-59.7504 59.7504-59.7504h133.2224z m0 59.7504H238.592v81.2544h133.2224v-81.2544zM776.192 625.0496c32.9728 0 59.6992 26.7776 59.6992 59.7504v81.2544c0 32.9728-26.7264 59.6992-59.6992 59.6992h-133.2736a59.7504 59.7504 0 0 1-59.7504-59.6992v-81.2544c0-32.9728 26.7776-59.7504 59.7504-59.7504h133.2736z m0 59.7504h-133.2736v81.2544h133.2736v-81.2544z" fill="#FFFFFF" /></svg>