<?xml version="1.0" standalone="no"?><!DOCTYPE svg PUBLIC "-//W3C//DTD SVG 1.1//EN"
        "http://www.w3.org/Graphics/SVG/1.1/DTD/svg11.dtd">
<svg class="icon" viewBox="0 0 1024 1024" version="1.1" xmlns="http://www.w3.org/2000/svg"
     xmlns:xlink="http://www.w3.org/1999/xlink">
    <path d="M571.861333 981.333333a91.989333 91.989333 0 0 1-44.074666-11.008l-121.173334-66.816a91.562667 91.562667 0 0 1-47.786666-80.64v-383.658666a18.304 18.304 0 0 0-7.296-14.677334L71.509333 201.088l-3.669333-3.669333a89.6 89.6 0 0 1-17.450667-98.901334A90.026667 90.026667 0 0 1 133.973333 43.562667h754.602667c36.736 0 69.802667 21.077333 84.48 54.954666a91.306667 91.306667 0 0 1-16.512 98.901334l-3.669333 3.669333-282.752 226.218667a18.304 18.304 0 0 0-6.4 14.634666v447.829334A91.690667 91.690667 0 0 1 571.818667 981.333333zM119.253333 146.133333l278.186667 221.610667c22.016 17.194667 34.858667 43.52 34.858667 71.466667v383.701333a18.346667 18.346667 0 0 0 9.173333 16.469333l121.173333 65.962667a18.389333 18.389333 0 0 0 27.562667-16.512V441.941333c-0.085333-27.733333 12.373333-53.973333 33.962667-71.424l279.04-224.384a18.261333 18.261333 0 0 0-14.677334-29.269333H133.973333a18.346667 18.346667 0 0 0-14.677333 29.269333z"
          class="svg-fill-grey-800"></path>
    <path d="M725.333333 469.333333m42.666667 0l170.666667 0q42.666667 0 42.666666 42.666667l0 0q0 42.666667-42.666666 42.666667l-170.666667 0q-42.666667 0-42.666667-42.666667l0 0q0-42.666667 42.666667-42.666667Z"
          class="svg-fill-grey-500"></path>
    <path d="M725.333333 640m42.666667 0l170.666667 0q42.666667 0 42.666666 42.666667l0 0q0 42.666667-42.666666 42.666666l-170.666667 0q-42.666667 0-42.666667-42.666666l0 0q0-42.666667 42.666667-42.666667Z"
          class="svg-fill-grey-500"></path>
    <path d="M725.333333 810.666667m42.666667 0l170.666667 0q42.666667 0 42.666666 42.666666l0 0q0 42.666667-42.666666 42.666667l-170.666667 0q-42.666667 0-42.666667-42.666667l0 0q0-42.666667 42.666667-42.666666Z"
          class="svg-fill-grey-500"></path>
</svg>
