<?xml version="1.0" standalone="no"?><!DOCTYPE svg PUBLIC "-//W3C//DTD SVG 1.1//EN" "http://www.w3.org/Graphics/SVG/1.1/DTD/svg11.dtd"><svg viewBox="0 0 1024 1024" version="1.1" xmlns="http://www.w3.org/2000/svg"><path d="M712.277333 776.234667l202.709334 196.992a42.666667 42.666667 0 0 0 59.477333-61.184l-202.666667-196.992a42.666667 42.666667 0 1 0-59.52 61.184z" class="svg-fill-grey-500" /><path d="M462.08 877.397333c231.552 0 419.370667-186.837333 419.370667-417.365333 0-230.570667-187.818667-417.365333-419.413334-417.365333C230.485333 42.666667 42.666667 229.461333 42.666667 460.032c0 230.528 187.818667 417.365333 419.413333 417.365333z m0-85.333333c-184.576 0-334.08-148.736-334.08-332.032C128 276.693333 277.504 128 462.08 128c184.533333 0 334.037333 148.693333 334.037333 332.032 0 183.296-149.504 332.032-334.08 332.032z" class="svg-fill-grey-800" /></svg>
