<?xml version="1.0" standalone="no"?><!DOCTYPE svg PUBLIC "-//W3C//DTD SVG 1.1//EN" "http://www.w3.org/Graphics/SVG/1.1/DTD/svg11.dtd"><svg viewBox="0 0 1024 1024" version="1.1" xmlns="http://www.w3.org/2000/svg"><path d="M24.32 454.784l194.005333-352.597333A114.858667 114.858667 0 0 1 318.976 42.666667h381.653333c41.557333 0 79.829333 22.4 100.181334 58.624l198.144 352.896c19.370667 34.56 19.626667 76.629333 0.597333 111.36L804.650667 921.6a114.858667 114.858667 0 0 1-100.778667 59.733333H319.146667a114.858667 114.858667 0 0 1-100.864-59.904l-194.133334-356.309333a114.858667 114.858667 0 0 1 0.170667-110.336z m74.794667 41.130667a29.525333 29.525333 0 0 0-0.085334 28.373333l194.218667 356.309333A29.525333 29.525333 0 0 0 319.146667 896h384.725333a29.525333 29.525333 0 0 0 25.898667-15.36l194.901333-356.010667a29.525333 29.525333 0 0 0-0.128-28.672l-198.144-352.853333A29.525333 29.525333 0 0 0 700.586667 128H318.976a29.525333 29.525333 0 0 0-25.898667 15.317333l-193.962666 352.597334z" class="svg-fill-grey-800" /><path d="M508.714667 723.498667a213.333333 213.333333 0 1 0 0-426.666667 213.333333 213.333333 0 0 0 0 426.666667z m0-85.333334a128 128 0 1 1 0-256 128 128 0 0 1 0 256z" class="svg-fill-grey-500" /></svg>
