<?xml version="1.0" standalone="no"?><!DOCTYPE svg PUBLIC "-//W3C//DTD SVG 1.1//EN" "http://www.w3.org/Graphics/SVG/1.1/DTD/svg11.dtd"><svg viewBox="0 0 1024 1024" version="1.1" xmlns="http://www.w3.org/2000/svg"><path fill="#ffffff" d="M386.176 104.106667V417.706667a61.269333 61.269333 0 0 1-60.842667 61.013333 61.312 61.312 0 0 1-60.970666-61.013333V104.106667a61.312 61.312 0 0 1 61.013333-61.013334c32.853333 0.981333 60.8 28.074667 60.8 61.013334"  /><path fill="#ffffff" d="M42.666667 126.336h226.474666v269.013333H42.666667V126.336z m754.901333 394.837333c0-81.28-24.234667-362.88-385.152-362.88v222.634667s93.866667 7.68 93.866667 89.941333v408.448h291.285333v-358.144z"  /><path fill="#ffffff" d="M939.818667 709.973333v128.682667a21.973333 21.973333 0 0 1-22.314667 22.186667H105.685333a21.888 21.888 0 0 1-22.272-22.186667V709.973333a20.437333 20.437333 0 0 0-20.266666-20.266666 20.48 20.48 0 0 0-20.394667 20.266666v187.648a49.493333 49.493333 0 0 0 49.365333 49.28h838.954667a49.493333 49.493333 0 0 0 49.322667-49.28V709.973333a20.437333 20.437333 0 0 0-20.266667-20.266666 20.437333 20.437333 0 0 0-20.309333 20.266666z"  /><path fill="#ffffff" d="M42.666667 640m42.666666 0l0 0q42.666667 0 42.666667 42.666667l0 170.666666q0 42.666667-42.666667 42.666667l0 0q-42.666667 0-42.666666-42.666667l0-170.666666q0-42.666667 42.666666-42.666667Z"  /><path fill="#ffffff" d="M896 640m42.666667 0l0 0q42.666667 0 42.666666 42.666667l0 170.666666q0 42.666667-42.666666 42.666667l0 0q-42.666667 0-42.666667-42.666667l0-170.666666q0-42.666667 42.666667-42.666667Z"  /></svg>