<?xml version="1.0" standalone="no"?><!DOCTYPE svg PUBLIC "-//W3C//DTD SVG 1.1//EN"
        "http://www.w3.org/Graphics/SVG/1.1/DTD/svg11.dtd">
<svg viewBox="0 0 1024 1024" version="1.1"
     xmlns="http://www.w3.org/2000/svg">
    <path fill="#fff" d="M363.286307 454.639004c-16.995851-16.995851-46.738589-12.746888-59.485477 4.248963s-12.746888 46.738589 4.248963 59.485477l161.46058 140.215768 280.431536-242.190872c16.995851-16.995851 21.244813-42.489627 4.248962-59.485477s-42.489627-21.244813-59.485477-4.248963L469.510373 548.116183l-106.224066-93.477179z"/>
    <path d="M146.589212 72.232365c-38.240664 8.497925-67.983402 42.489627-67.983403 80.730291l-8.497925 390.904564c0 72.232365 16.995851 144.46473 59.485477 208.19917 76.481328 123.219917 203.950207 208.19917 373.908714 267.684647l12.746888 4.248963 12.746888-4.248963c191.20332-42.489627 322.921162-140.215768 399.402489-297.427386 25.493776-50.987552 38.240664-106.224066 38.240664-161.46058V157.211618c0-42.489627-29.742739-76.481328-67.983402-84.979253L533.244813 0h-46.738589l-339.917012 72.232365z m50.987551 633.095436c-29.742739-46.738589-46.738589-101.975104-42.489626-157.211618l8.497925-390.904565 339.917013-67.983402h16.99585l352.663901 67.983402v403.651453c0 42.489627-8.497925 84.979253-29.742739 123.219917-63.73444 127.46888-169.958506 212.448133-331.419087 246.439834-144.46473-50.987552-250.688797-123.219917-314.423237-225.195021z"
          fill="#80A0BA"/>
</svg>