<?xml version="1.0" standalone="no"?><!DOCTYPE svg PUBLIC "-//W3C//DTD SVG 1.1//EN" "http://www.w3.org/Graphics/SVG/1.1/DTD/svg11.dtd"><svg viewBox="0 0 1024 1024" version="1.1" xmlns="http://www.w3.org/2000/svg"><path d="M0 0m204.8 0l614.4 0q204.8 0 204.8 204.8l0 614.4q0 204.8-204.8 204.8l-614.4 0q-204.8 0-204.8-204.8l0-614.4q0-204.8 204.8-204.8Z" fill="#FFA53D" /><path d="M641.792 400.896a29.8496 29.8496 0 0 1 42.8544 41.2672l-3.7376 3.8912-197.8368 171.4176-114.944-98.2016a29.8496 29.8496 0 0 1 34.4576-48.5376l4.352 3.1232 75.776 64.768 159.0784-137.728z" fill="#FFFFFF" /><path d="M510.72 153.1904c-5.632 0-11.3152 0.5632-16.896 1.7408l-239.616 48.5376c-27.2384 5.5296-47.104 29.184-47.8208 56.9856l-7.3728 274.3808c-1.3824 51.5584 12.8 102.4 40.704 145.7664 54.9888 85.6064 142.6944 147.8144 261.8368 186.7776l7.7824 2.56 7.9872-1.792c133.2224-29.5936 227.84-99.328 281.1904-208.384 17.3056-35.328 26.2656-74.1376 26.2144-113.4592l-0.5632-284.3648a59.7504 59.7504 0 0 0-48.2304-58.4704l-250.2144-48.9984L518.3488 153.6l-7.6288-0.3584z m1.536 59.7504l5.8368 0.768 246.3232 48.384 0.512 284.3136a197.12 197.12 0 0 1-20.0192 87.04l-6.4 12.3904c-43.776 80.896-116.0192 134.144-218.5728 160.256l-7.68 1.8432 7.8336 2.6624c-106.752-34.9184-183.0912-89.088-230.144-162.304a197.12 197.12 0 0 1-31.232-111.872l7.3728-274.432 239.616-48.5376 3.4816-0.512h3.072z" fill="#FFFFFF" /></svg>