<?xml version="1.0" standalone="no"?><!DOCTYPE svg PUBLIC "-//W3C//DTD SVG 1.1//EN" "http://www.w3.org/Graphics/SVG/1.1/DTD/svg11.dtd"><svg viewBox="0 0 1024 1024" version="1.1" xmlns="http://www.w3.org/2000/svg"><path d="M36.394667 897.194667m42.666666 0l853.333334 0q42.666667 0 42.666666 42.666666l0 0q0 42.666667-42.666666 42.666667l-853.333334 0q-42.666667 0-42.666666-42.666667l0 0q0-42.666667 42.666666-42.666666Z" class="svg-fill-grey-800" /><path d="M212.48 490.752m42.666667 0l0 0q42.666667 0 42.666666 42.666667l0 277.418666q0 42.666667-42.666666 42.666667l0 0q-42.666667 0-42.666667-42.666667l0-277.418666q0-42.666667 42.666667-42.666667Z" class="svg-fill-grey-500" /><path d="M708.522667 309.376m42.666666 0l0 0q42.666667 0 42.666667 42.666667l0 458.837333q0 42.666667-42.666667 42.666667l0 0q-42.666667 0-42.666666-42.666667l0-458.837333q0-42.666667 42.666666-42.666667Z" class="svg-fill-grey-500" /><path d="M469.333333 128m42.666667 0l0 0q42.666667 0 42.666667 42.666667l0 640.213333q0 42.666667-42.666667 42.666667l0 0q-42.666667 0-42.666667-42.666667l0-640.213333q0-42.666667 42.666667-42.666667Z" class="svg-fill-grey-500" /></svg>
