<?xml version="1.0" standalone="no"?><!DOCTYPE svg PUBLIC "-//W3C//DTD SVG 1.1//EN" "http://www.w3.org/Graphics/SVG/1.1/DTD/svg11.dtd"><svg viewBox="0 0 1024 1024" version="1.1" xmlns="http://www.w3.org/2000/svg"><path fill="#ffffff" d="M899.84 908.544h-32.554667a32.938667 32.938667 0 0 1-32.597333-33.28V143.317333c0-18.389333 14.592-33.28 32.597333-33.28h32.554667c18.005333 0 32.554667 14.890667 32.554667 33.28v731.946667c0 18.346667-14.549333 33.28-32.554667 33.28z m-162.858667-66.56H281.002667a32.938667 32.938667 0 0 1-32.554667-33.28V209.877333c0-18.346667 14.592-33.28 32.554667-33.28h455.978666c18.005333 0 32.554667 14.933333 32.554667 33.28v598.826667c0 18.346667-14.549333 33.28-32.554667 33.28zM639.274667 409.6c0-18.389333-14.592-33.28-32.554667-33.28h-97.706667c23.253333 0 44.8-12.714667 56.405334-33.28a67.84 67.84 0 0 0 0-66.56 64.896 64.896 0 0 0-56.405334-33.28c-36.010667 0-65.152 29.781333-65.152 66.56 0 36.736 29.141333 66.56 65.152 66.56H411.306667a32.938667 32.938667 0 0 0-32.597334 33.28v133.12c0 18.389333 14.592 33.28 32.597334 33.28h32.554666v166.101333c0 18.389333 14.592 33.28 32.554667 33.28h65.152a32 32 0 0 0 23.082667-9.685333 33.450667 33.450667 0 0 0 9.472-23.594667v-166.058666h32.597333c17.962667 0 32.554667-14.933333 32.554667-33.28V409.6zM509.013333 43.434667l162.816 99.541333H346.154667l162.858666-99.541333zM150.741333 908.544h-32.597333a32.938667 32.938667 0 0 1-32.554667-33.28V143.317333c0-18.389333 14.592-33.28 32.554667-33.28h32.597333c17.962667 0 32.554667 14.890667 32.554667 33.28v731.946667c0 18.346667-14.549333 33.28-32.554667 33.28z m358.272 66.56l-162.858666-99.498667h325.674666l-162.816 99.498667z"  /></svg>