<?xml version="1.0" standalone="no"?><!DOCTYPE svg PUBLIC "-//W3C//DTD SVG 1.1//EN" "http://www.w3.org/Graphics/SVG/1.1/DTD/svg11.dtd"><svg viewBox="0 0 1024 1024" version="1.1" xmlns="http://www.w3.org/2000/svg"><path d="M390.314667 525.141333m42.666666 0l123.264 0q42.666667 0 42.666667 42.666667l0 0q0 42.666667-42.666667 42.666667l-123.264 0q-42.666667 0-42.666666-42.666667l0 0q0-42.666667 42.666666-42.666667Z" class="svg-fill-grey-500" /><path d="M451.285333 560.810667m42.666667 0l0 0q42.666667 0 42.666667 42.666666l0 121.429334q0 42.666667-42.666667 42.666666l0 0q-42.666667 0-42.666667-42.666666l0-121.429334q0-42.666667 42.666667-42.666666Z" class="svg-fill-grey-500" /><path d="M351.701333 725.333333h285.866667c40.618667 0 73.557333 32.938667 73.557333 73.557334v108.885333c0 40.618667-32.938667 73.557333-73.6 73.557333h-285.866666a73.557333 73.557333 0 0 1-73.514667-73.557333v-108.885333c0-40.618667 32.938667-73.557333 73.557333-73.557334z m11.776 85.333334v85.333333h262.314667v-85.333333H363.477333z" class="svg-fill-grey-800" /><path d="M647.04 812.373333c22.997333-22.826667 43.946667-50.602667 69.248-89.770666 2.218667-3.413333 4.565333-6.954667 7.082667-10.666667 4.693333-7.04 21.845333-31.744 21.418666-31.146667 44.416-64.64 64.256-112.426667 70.485334-192.853333 0.128-176.128-143.786667-315.648-320.64-315.648-176.896 0-320.810667 139.52-320.810667 312.32 0 70.314667 18.901333 121.173333 60.757333 185.685333 6.186667 9.557333 29.269333 43.818667 34.133334 51.2l0.810666 1.28c24.746667 37.930667 48.938667 68.138667 75.093334 92.16l57.770666-62.72c-20.224-18.645333-40.192-43.605333-61.44-76.074666l-0.853333-1.365334c-5.290667-8.106667-28.245333-42.154667-33.92-50.901333-33.664-51.925333-47.018667-87.850667-47.018667-139.264 0-125.056 105.130667-226.986667 235.477334-226.986667 130.304 0 235.434667 101.930667 235.434666 226.986667-4.821333 60.330667-19.029333 94.634667-55.637333 147.882667 0.768-1.066667-16.768 24.192-21.845333 31.786666-2.816 4.138667-5.418667 8.106667-7.978667 11.989334-22.272 34.517333-39.936 57.898667-57.728 75.605333l60.16 60.501333z" class="svg-fill-grey-800" /><path d="M459.861333 0m34.773334 0l0 0q34.773333 0 34.773333 34.773333l0 68.309334q0 34.773333-34.773333 34.773333l0 0q-34.773333 0-34.773334-34.773333l0-68.309334q0-34.773333 34.773334-34.773333Z" class="svg-fill-grey-500" /><path d="M994.304 489.557333a34.474667 34.474667 0 0 1-34.474667 34.432h-70.144a34.474667 34.474667 0 0 1 0-68.906666h70.144c19.029333 0 34.474667 15.445333 34.474667 34.474666zM894.634667 148.522667l0.128 0.128a34.304 34.304 0 0 1 0 48.725333l-49.28 48.853333a34.773333 34.773333 0 0 1-48.938667 0l-0.128-0.128a34.304 34.304 0 0 1 0-48.725333l49.28-48.853333a34.773333 34.773333 0 0 1 48.938667 0zM113.877333 148.522667l-0.128 0.128a34.304 34.304 0 0 0 0 48.725333l49.28 48.853333a34.773333 34.773333 0 0 0 48.938667 0l0.128-0.128a34.304 34.304 0 0 0 0-48.725333L162.816 148.522667a34.773333 34.773333 0 0 0-48.938667 0zM139.093333 489.557333a34.474667 34.474667 0 0 1-34.474666 34.432H34.474667a34.474667 34.474667 0 0 1 0-68.906666h70.144c19.029333 0 34.432 15.445333 34.432 34.474666z" class="svg-fill-grey-500" /></svg>
