<?xml version="1.0" standalone="no"?><!DOCTYPE svg PUBLIC "-//W3C//DTD SVG 1.1//EN" "http://www.w3.org/Graphics/SVG/1.1/DTD/svg11.dtd"><svg viewBox="0 0 1024 1024" version="1.1" xmlns="http://www.w3.org/2000/svg"><path d="M748.8 991.402667A128 128 0 0 0 938.666667 879.36v-297.6a42.666667 42.666667 0 1 0-85.333334 0v297.6a42.666667 42.666667 0 0 1-63.317333 37.333333l-270.592-149.504-286.037333 152.32A42.666667 42.666667 0 0 1 170.666667 881.92V170.666667a42.666667 42.666667 0 0 1 42.666666-42.666667h597.333334a42.666667 42.666667 0 0 1 42.666666 42.666667v63.914666a42.666667 42.666667 0 0 0 85.333334 0V170.666667a128 128 0 0 0-128-128H213.333333a128 128 0 0 0-128 128v711.210666a128 128 0 0 0 188.16 112.981334l245.205334-130.56 230.058666 127.104z" class="svg-fill-grey-500" /><path d="M512 384m42.666667 0l341.333333 0q42.666667 0 42.666667 42.666667l0 0q0 42.666667-42.666667 42.666666l-341.333333 0q-42.666667 0-42.666667-42.666666l0 0q0-42.666667 42.666667-42.666667Z" class="svg-fill-grey-800" /><path d="M685.909333 631.466667m0-42.666667l0-341.333333q0-42.666667 42.666667-42.666667l0 0q42.666667 0 42.666667 42.666667l0 341.333333q0 42.666667-42.666667 42.666667l0 0q-42.666667 0-42.666667-42.666667Z" class="svg-fill-grey-800" /></svg>
