<?xml version="1.0" standalone="no"?><!DOCTYPE svg PUBLIC "-//W3C//DTD SVG 1.1//EN" "http://www.w3.org/Graphics/SVG/1.1/DTD/svg11.dtd"><svg viewBox="0 0 1024 1024" version="1.1" xmlns="http://www.w3.org/2000/svg"><path d="M475.434667 372.053333m36.565333 0l0 0q36.565333 0 36.565333 36.565334l0 249.429333q0 36.565333-36.565333 36.565333l0 0q-36.565333 0-36.565333-36.565333l0-249.429333q0-36.565333 36.565333-36.565334Z" class="svg-fill-grey-800" /><path d="M335.701333 489.813333C259.541333 542.208 213.333333 625.664 213.333333 716.629333c0 155.904 134.4 281.002667 298.666667 281.002667s298.666667-125.098667 298.666667-281.002667c0-90.88-46.08-174.250667-122.112-226.730666a42.666667 42.666667 0 1 0-48.469334 70.229333c53.461333 36.906667 85.248 94.421333 85.248 156.501333 0 107.349333-94.848 195.669333-213.333333 195.669334s-213.333333-88.32-213.333333-195.669334c0-62.165333 31.872-119.722667 85.418666-156.586666a42.666667 42.666667 0 0 0-48.384-70.314667z" class="svg-fill-grey-500" /><path d="M408.362667 515.413333V205.738667C408.362667 164.864 453.162667 128 512 128c58.88 0 103.637333 36.864 103.637333 77.738667v309.674666a42.666667 42.666667 0 0 0 85.333334 0V205.738667C700.970667 113.664 614.741333 42.666667 512 42.666667 409.258667 42.666667 323.029333 113.664 323.029333 205.738667v309.674666a42.666667 42.666667 0 0 0 85.333334 0z" class="svg-fill-grey-500" /><path d="M512 838.698667c60.416 0 109.696-48.298667 109.696-108.245334S572.416 622.208 512 622.208c-60.416 0-109.696 48.298667-109.696 108.245333S451.584 838.698667 512 838.698667z m0-73.130667c-20.352 0-36.565333-15.872-36.565333-35.114667 0-19.2 16.213333-35.114667 36.565333-35.114666s36.565333 15.872 36.565333 35.114666c0 19.2-16.213333 35.114667-36.565333 35.114667z" class="svg-fill-grey-800" /></svg>
