<?xml version="1.0" standalone="no"?><!DOCTYPE svg PUBLIC "-//W3C//DTD SVG 1.1//EN"
        "http://www.w3.org/Graphics/SVG/1.1/DTD/svg11.dtd">
<svg viewBox="0 0 1024 1024" version="1.1"
     xmlns="http://www.w3.org/2000/svg">
    <path d="M375.466667 0c25.6 0 42.666667 17.066667 42.666666 42.666667v89.6c0 25.6-17.066667 42.666667-42.666666 42.666666s-42.666667-17.066667-42.666667-42.666666V42.666667c0-25.6 21.333333-42.666667 42.666667-42.666667zM661.333333 0c25.6 0 42.666667 17.066667 42.666667 42.666667v89.6c0 25.6-17.066667 42.666667-42.666667 42.666666s-42.666667-17.066667-42.666666-42.666666V42.666667c0-25.6 17.066667-42.666667 42.666666-42.666667z"
          class="svg-fill-grey-500"/>
    <path d="M362.666667 494.933333c-17.066667-17.066667-42.666667-17.066667-59.733334 0s-17.066667 42.666667 0 59.733334l174.933334 170.666666 243.2-238.933333c17.066667-17.066667 17.066667-42.666667 0-59.733333s-42.666667-17.066667-59.733334 0l-183.466666 179.2-115.2-110.933334z"/>
    <path d="M170.666667 140.8h682.666666c46.933333 0 85.333333 38.4 85.333334 85.333333V896c0 46.933333-38.4 85.333333-85.333334 85.333333H170.666667c-46.933333 0-85.333333-38.4-85.333334-85.333333V226.133333c0-46.933333 38.4-85.333333 85.333334-85.333333z m0 85.333333V896h682.666666V226.133333H170.666667z"
          class="svg-fill-grey-500"/>
</svg>
