<?xml version="1.0" standalone="no"?><!DOCTYPE svg PUBLIC "-//W3C//DTD SVG 1.1//EN" "http://www.w3.org/Graphics/SVG/1.1/DTD/svg11.dtd"><svg viewBox="0 0 1024 1024" version="1.1" xmlns="http://www.w3.org/2000/svg"><path d="M170.666667 438.613333h682.666666a85.333333 85.333333 0 0 1 85.333334 85.333334v384a85.333333 85.333333 0 0 1-85.333334 85.333333H170.666667a85.333333 85.333333 0 0 1-85.333334-85.333333v-384a85.333333 85.333333 0 0 1 85.333334-85.333334z m0 85.333334v384h682.666666v-384H170.666667z" class="svg-fill-grey-800" /><path d="M321.92 477.866667V334.293333C321.92 219.733333 407.68 128 512 128c78.464 0 148.48 52.309333 176.981333 130.986667a42.666667 42.666667 0 1 0 80.213334-29.056C728.917333 118.357333 627.456 42.666667 512 42.666667 359.253333 42.666667 236.586667 173.866667 236.586667 334.293333V477.866667a42.666667 42.666667 0 0 0 85.333333 0z" class="svg-fill-grey-800" /><path d="M469.333333 725.333333a85.333333 64 90 1 0 128 0 85.333333 64 90 1 0-128 0Z" class="svg-fill-grey-500" /></svg>
