<?xml version="1.0" standalone="no"?><!DOCTYPE svg PUBLIC "-//W3C//DTD SVG 1.1//EN" "http://www.w3.org/Graphics/SVG/1.1/DTD/svg11.dtd"><svg viewBox="0 0 1024 1024" version="1.1" xmlns="http://www.w3.org/2000/svg"><path d="M707.413333 751.872c48.213333-68.693333 74.666667-142.933333 74.666667-224 0-78.805333-26.538667-157.312-70.784-223.189333a42.666667 42.666667 0 1 0-70.826667 47.573333c35.242667 52.48 56.32 114.730667 56.32 175.658667 0 62.293333-20.565333 119.893333-59.178666 174.933333a42.666667 42.666667 0 0 0 69.845333 49.024z" class="svg-fill-grey-500" /><path d="M821.162667 887.210667c66.816-102.4 105.941333-231.808 105.941333-364.501334 0-118.186667-36.437333-231.68-100.608-354.432a42.666667 42.666667 0 0 0-75.648 39.552c58.410667 111.616 90.922667 212.992 90.922667 314.88 0 116.010667-34.218667 229.205333-92.074667 317.866667a42.666667 42.666667 0 0 0 71.466667 46.634667z" class="svg-fill-grey-500" /><path d="M159.018667 827.136a116.352 116.352 0 0 1-116.394667-116.394667V348.629333a116.352 116.352 0 0 1 116.394667-116.394666h94.634666l165.674667-163.072A79.530667 79.530667 0 0 1 554.666667 125.866667v776.234666a79.530667 79.530667 0 0 1-127.744 63.189334l-180.949334-138.112H159.018667zM288.597333 317.568H159.018667a31.018667 31.018667 0 0 0-31.061334 31.061333v362.112c0 17.152 13.909333 31.061333 31.061334 31.061334H274.773333l194.56 148.48V139.733333L288.554667 317.568z" class="svg-fill-grey-800" /></svg>
