<?xml version="1.0" standalone="no"?><!DOCTYPE svg PUBLIC "-//W3C//DTD SVG 1.1//EN" "http://www.w3.org/Graphics/SVG/1.1/DTD/svg11.dtd"><svg viewBox="0 0 1024 1024" version="1.1" xmlns="http://www.w3.org/2000/svg"><path fill="#ffffff" d="M256 85.333333m42.666667 0l426.666666 0q42.666667 0 42.666667 42.666667l0 0q0 42.666667-42.666667 42.666667l-426.666666 0q-42.666667 0-42.666667-42.666667l0 0q0-42.666667 42.666667-42.666667Z"  /><path fill="#ffffff" d="M42.666667 952.874667v-501.333334a42.666667 42.666667 0 0 1 85.333333 0v501.333334a42.666667 42.666667 0 1 1-85.333333 0zM896 952.874667v-501.333334a42.666667 42.666667 0 0 1 85.333333 0v501.333334a42.666667 42.666667 0 1 1-85.333333 0z"  /><path fill="#ffffff" d="M640 213.333333a42.666667 42.666667 0 0 1 42.666667 42.666667v193.194667A257.578667 257.578667 0 0 1 753.493333 554.666667H896a42.666667 42.666667 0 0 1 42.666667 42.666666v213.333334a42.666667 42.666667 0 0 1-42.666667 42.666666h-242.474667c-40.533333 26.965333-89.173333 42.666667-141.525333 42.666667a254.805333 254.805333 0 0 1-141.525333-42.666667H128a42.666667 42.666667 0 0 1-42.666667-42.666666v-213.333334a42.666667 42.666667 0 0 1 42.666667-42.666666h142.549333A256.341333 256.341333 0 0 1 341.333333 449.28L341.333333 256a42.666667 42.666667 0 0 1 42.666667-42.666667h256z m-115.754667 263.125334c-98.432 0-121.770667 54.826667-121.770666 54.826666l57.173333 55.765334a72.106667 72.106667 0 0 0-16.426667 38.357333H359.125333c0 98.389333 54.826667 121.813333 54.826667 121.813333l56.021333-57.472c10.965333 8.661333 24.192 13.952 38.101334 15.274667V789.333333c98.432 0 121.770667-54.826667 121.770666-54.826666l-58.453333-57.045334c8.106667-10.368 13.226667-22.826667 14.634667-35.882666h85.973333c0-98.389333-54.741333-121.770667-54.741333-121.770667l-0.085334-0.085333-56.832 58.197333a71.082667 71.082667 0 0 0-36.096-15.701333v-85.76z m7.978667 116.181333a43.52 43.52 0 1 1-33.365333 80.426667 43.52 43.52 0 0 1 33.365333-80.426667z m-16.682667 11.093333a29.098667 29.098667 0 1 0 0 58.154667 29.098667 29.098667 0 0 0 0-58.154667z"  /></svg>