<?xml version="1.0" standalone="no"?><!DOCTYPE svg PUBLIC "-//W3C//DTD SVG 1.1//EN"
        "http://www.w3.org/Graphics/SVG/1.1/DTD/svg11.dtd">
<svg viewBox="0 0 1024 1024" version="1.1" xmlns="http://www.w3.org/2000/svg">
    <path d="M599.253333 458.496l270.122667 0.170667c14.677333 0 26.624 12.032 26.624 27.008v383.317333c0 14.933333-11.946667 27.008-26.581333 27.008h-380.928a26.794667 26.794667 0 0 1-26.581334-27.008V567.04h-85.333333v301.909333A112.128 112.128 0 0 0 488.533333 981.333333h380.928C931.285333 981.333333 981.333333 930.986667 981.333333 868.992v-383.317333a112.128 112.128 0 0 0-111.914666-112.341334l-270.08-0.170666-0.085334 85.333333z"
          class="svg-fill-grey-500"/>
    <path d="M128 42.666667h385.834667a85.333333 85.333333 0 0 1 85.333333 85.333333v389.333333a85.333333 85.333333 0 0 1-85.333333 85.333334H128a85.333333 85.333333 0 0 1-85.333333-85.333334V128a85.333333 85.333333 0 0 1 85.333333-85.333333z m0 85.333333v389.333333h385.834667V128H128z"
          class="svg-fill-grey-800"/>
</svg>
