<?xml version="1.0" encoding="UTF-8"?>
<svg width="25px" height="30px" viewBox="0 0 25 30" version="1.1" xmlns="http://www.w3.org/2000/svg" xmlns:xlink="http://www.w3.org/1999/xlink">
    <g stroke="none" stroke-width="1" fill="none" fill-rule="evenodd" transform="translate(0.5,0)">
        <g fill-rule="nonzero">
            <path d="M1.44,0 C1.08,0 0.696,0.148253899 0.432,0.444761696 C0.168,0.741269493 2.13162821e-14,1.11190424 2.13162821e-14,1.48253899 L2.13162821e-14,28.517461 C2.13162821e-14,28.8880958 0.144,29.2834395 0.432,29.5552383 C0.72,29.8517461 1.08,30 1.44,30 L22.56,30 C22.92,30 23.304,29.8517461 23.568,29.5552383 C23.856,29.2587305 24,28.8880958 24,28.517461 L24,8.40105425 L15.84,0 L1.44,0 Z" fill="#F76B64"></path>
            <path d="M23.8853503,8.12101911 L17.1974522,8.12101911 C16.839172,8.12101911 16.4570064,7.97770701 16.1942675,7.6910828 C15.9076433,7.42834395 15.7643312,7.04617834 15.7643312,6.68789809 L15.7643312,1.24344979e-14 L23.8853503,8.12101911 Z" fill-opacity="0.5" fill="#FFFFFF"></path>
        </g>
        <g transform="translate(7.000000, 6.000000)" fill="#FFFFFF" font-family="PingFangSC-Semibold, PingFang SC" font-size="12" font-weight="500">
            <text>
                <tspan x="0.442675159" y="13">A</tspan>
            </text>
        </g>
    </g>
</svg>
