<?xml version="1.0" encoding="UTF-8"?>
<svg viewBox="0 0 14 16" version="1.1" xmlns="http://www.w3.org/2000/svg" xmlns:xlink="http://www.w3.org/1999/xlink">
    <g transform="translate(-1, 0)">
        <path d="M2.66666667,6.66666667 L13.3333333,6.66666667 C13.6869553,6.66666667 14.0260939,6.80714245 14.2761424,7.05719096 C14.5261909,7.30723946 14.6666667,7.64637801 14.6666667,8 L14.6666667,14 C14.6666667,14.353622 14.5261909,14.6927605 14.2761424,14.942809 C14.0260939,15.1928575 13.6869553,15.3333333 13.3333333,15.3333333 L2.66666667,15.3333333 C2.31304468,15.3333333 1.97390613,15.1928575 1.72385762,14.942809 C1.47380912,14.6927605 1.33333333,14.353622 1.33333333,14 L1.33333333,8 C1.33333333,7.64637801 1.47380912,7.30723946 1.72385762,7.05719096 C1.97390613,6.80714245 2.31304468,6.66666667 2.66666667,6.66666667 L2.66666667,6.66666667 Z M2.66666667,8 L2.66666667,14 L13.3333333,14 L13.3333333,8 L2.66666667,8 Z"
              class="svg-fill-grey-800"></path>
        <path d="M5.33333333,6.93333333 L5.33333333,4.88533333 C5.33333333,3.28266667 6.53733333,2 8,2 C9.46266667,2 10.6666667,3.28266667 10.6666667,4.88533333 L10.6666667,6.922 L12,6.922 L12,4.88533333 C12,2.56466667 10.2186667,0.666666672 8,0.666666672 C5.78133333,0.666666672 4,2.56466667 4,4.88533333 L4,6.93333333 L5.33333333,6.93333333 Z"
              class="svg-fill-grey-800"></path>
        <path d="M7.182,11.0666667 C7.182,11.8030463 7.62971525,12.4 8.182,12.4 C8.73428475,12.4 9.182,11.8030463 9.182,11.0666667 C9.182,10.330287 8.73428475,9.73333334 8.182,9.73333334 C7.62971525,9.73333334 7.182,10.330287 7.182,11.0666667 L7.182,11.0666667 Z"
              class="svg-fill-grey-500"></path>
    </g>
</svg>
