<?xml version="1.0" encoding="UTF-8"?>
<svg viewBox="0 0 40 40" version="1.1" xmlns="http://www.w3.org/2000/svg" xmlns:xlink="http://www.w3.org/1999/xlink">
    <g stroke="none" stroke-width="1" fill-rule="evenodd">
        <path d="M33.3281372,35.8332984 L29.8014386,38.364371 L30.4166667,38.3561198 L20.6950239,40.8335781 L20,40.8333333 L18.904267,40.8418642 L10,38.4277344 L6.66980489,35.8333333 L6.66980489,35.1414219 C6.66980489,35.1414219 6.34824281,31.2767171 12.2151829,30.2874131 C12.2151829,30.2874131 16.681443,29.7024874 16.9939226,28.5111341 C16.9939226,28.5111341 17.164579,28.3786255 17.0387222,26.9948375 C16.7708259,24.0485324 14.7832104,22.6620524 13.9795214,21.5357296 C13.1755081,20.4091621 13.1085791,19.1094594 13.1085791,19.1094594 C13.1085791,18.7846211 13.2488886,18.6656082 13.4818247,18.4569159 C13.7701565,18.1988913 13.683693,17.9245392 13.6285135,17.6342441 C13.4192206,16.531591 13.4007313,14.7600669 13.5999686,13.6504214 C13.6445519,12.3290069 14.894939,11.2676098 14.894939,11.2676098 C15.1297132,11.0746158 15.3647757,10.8620077 15.5294853,10.6071648 C15.5755102,10.5362604 15.617859,10.4601467 15.6427997,10.3794878 C15.7369761,10.0753125 15.418081,9.85200582 15.4822709,9.52835628 C15.5397931,9.23666263 16.0554386,9.22229297 16.3670172,9.20634999 C17.0690331,9.17051324 17.7747973,9.14362694 18.4754797,9.19586119 C23.7213531,9.58586989 25.4462622,11.4592752 25.4462622,11.4592752 C25.854468,11.9336838 26.1234456,12.5137497 26.2857403,13.10836 C26.3338197,13.2861452 26.3755197,13.4676365 26.3980456,13.6504563 C26.5614937,14.5618285 26.5609531,15.5122541 26.5101346,16.433241 C26.4859868,16.8723723 26.4334383,17.3045809 26.3666895,17.739237 C26.3320897,17.9665643 26.3499663,18.1782634 26.5064223,18.3599295 C26.6375052,18.5118423 26.7872936,18.6180939 26.8515195,18.8178706 C26.8816141,18.911221 26.889363,19.0120534 26.889363,19.1094944 C26.889363,19.1094944 26.822398,20.409232 26.0183847,21.5358345 C25.2143713,22.6622971 23.2271163,24.0484625 22.9590037,26.9949075 C22.8331829,28.3784856 23.0036591,28.5110292 23.0036591,28.5110292 C23.316427,29.7026622 27.782543,30.2873781 27.782543,30.2873781 C33.7153309,31.3547188 33.3281733,35.1414568 33.3281733,35.1414568 L33.3281372,35.8332984 Z"
              class="svg-fill-grey-500"></path>
    </g>
</svg>
