<?xml version="1.0" encoding="UTF-8"?>
<svg viewBox="0 0 16 16" version="1.1" xmlns="http://www.w3.org/2000/svg" xmlns:xlink="http://www.w3.org/1999/xlink">
    <path d="M8,-7.10542736e-15 C12.41875,0 16,3.58125 16,8 C16,12.41875 12.41875,16 8,16 C3.58125,16 0,12.41875 0,8 C0,3.58125 3.58125,0 8,-7.10542736e-15 Z M11.4856317,4.85973157 L7.07565283,9.76971039 L5.10392523,7.79798279 C4.82373446,7.51779201 4.36117761,7.52606985 4.07077561,7.81647186 C3.7803736,8.10687387 3.77209576,8.56943071 4.05228653,8.84962149 L6.53134441,11.3286794 C6.81153519,11.6088701 7.27409203,11.6005923 7.56449404,11.3101903 L12.5002922,5.87439213 C12.7906942,5.58399012 12.7989721,5.12143328 12.5187813,4.8412425 C12.2385905,4.56105173 11.7760337,4.56932957 11.4856317,4.85973157 Z"
          class="svg-fill-white"></path>
</svg>
