<?xml version="1.0" encoding="UTF-8"?>
<svg viewBox="0 0 14 14" version="1.1" xmlns="http://www.w3.org/2000/svg" xmlns:xlink="http://www.w3.org/1999/xlink">
    <g transform="translate(-1, -1)">
        <path d="M4.17333333,10.91 C4.37967281,11.1145556 4.71232719,11.1145556 4.91866667,10.91 C5.02049853,10.8185792 5.07866943,10.6881817 5.07866943,10.5513333 C5.07866943,10.4144849 5.02049853,10.2840874 4.91866667,10.1926667 L3.16133333,8.50266667 L8.27466667,8.50266667 C8.59466667,8.50266667 8.80733333,8.298 8.80733333,7.99066667 C8.80733333,7.684 8.594,7.47866667 8.27466667,7.47866667 L3.16133333,7.47866667 L4.91866667,5.78866667 C5.02027472,5.69725682 5.07829853,5.56700798 5.07829853,5.43033334 C5.07829853,5.29365869 5.02027472,5.16340986 4.91866667,5.072 C4.82182757,4.96992249 4.68596394,4.91412136 4.54533333,4.91866667 C4.40494789,4.91439908 4.26939864,4.97017069 4.17266667,5.072 L1.50933333,7.68333333 C1.50933333,7.68333333 1.50933333,7.73466666 1.456,7.73466667 C1.296,7.888 1.296,8.19533334 1.50933333,8.34933333 L4.17333333,10.9093333 L4.17333333,10.91 Z"
              class="svg-fill-grey-500"></path>
        <path d="M2.54533333,4.87133333 L2.54533333,3.04133333 C2.54533333,2.768 2.76733333,2.54533333 3.04133333,2.54533333 L12.9586667,2.54533333 C13.232,2.54533333 13.4546667,2.76733333 13.4546667,3.04133333 L13.4546667,12.9586667 C13.4546667,13.232 13.2326667,13.4546667 12.9586667,13.4546667 L3.04133333,13.4546667 C2.90978595,13.4546667 2.78362641,13.4024097 2.69060836,13.3093916 C2.59759032,13.2163736 2.54533333,13.0902141 2.54533333,12.9586667 L2.54533333,11.4633333 C2.55580974,11.2400489 2.44265275,11.0290926 2.25084027,10.9143159 C2.05902779,10.7995392 1.81963886,10.7995392 1.62782638,10.9143159 C1.43601391,11.0290926 1.32285691,11.2400489 1.33333333,11.4633333 L1.33333333,12.9586667 C1.33333333,13.901969 2.09803098,14.6666667 3.04133333,14.6666667 L12.9586667,14.6666667 C13.901969,14.6666667 14.6666667,13.901969 14.6666667,12.9586667 L14.6666667,3.04133333 C14.6666667,2.09803098 13.901969,1.33333333 12.9586667,1.33333333 L3.04133333,1.33333333 C2.09803098,1.33333333 1.33333333,2.09803098 1.33333333,3.04133333 L1.33333333,4.87133333 C1.34851847,5.19497525 1.61533536,5.44956673 1.93933333,5.44956673 C2.26333129,5.44956673 2.53014818,5.19497525 2.54533333,4.87133333 Z"
              class="svg-fill-grey-800"></path>
    </g>
</svg>
