<?xml version="1.0" encoding="UTF-8"?>
<svg width="24px" height="30px" viewBox="0 0 24 30" version="1.1" xmlns="http://www.w3.org/2000/svg" xmlns:xlink="http://www.w3.org/1999/xlink">
    <!-- Generator: Sketch 60 (88103) - https://sketch.com -->
    <desc>Created with Sketch.</desc>
    <g stroke="none" stroke-width="1" fill="none" fill-rule="evenodd">
        <g fill-rule="nonzero">
            <path d="M1.43312102,0 C1.07484076,0 0.692675159,0.148253899 0.429936306,0.444761696 C0.167197452,0.741269493 0,1.11190424 0,1.48253899 L0,28.517461 C0,28.8880958 0.143312102,29.2834395 0.429936306,29.5552383 C0.71656051,29.8517461 1.07484076,30 1.43312102,30 L22.4522293,30 C22.8105096,30 23.1926752,29.8517461 23.455414,29.5552383 C23.7420382,29.2587305 23.8853503,28.8880958 23.8853503,28.517461 L23.8853503,8.40105425 L15.7643312,0 L1.43312102,0 Z" id="路径" fill="#F76B64"></path>
            <path d="M23.8853503,8.12101911 L17.1974522,8.12101911 C16.839172,8.12101911 16.4570064,7.97770701 16.1942675,7.6910828 C15.9076433,7.42834395 15.7643312,7.04617834 15.7643312,6.68789809 L15.7643312,0 L23.8853503,8.12101911 Z" id="路径" fill="#FCAB90"></path>
        </g>
        <text font-family="PingFangSC-Semibold, PingFang SC" font-size="8" font-weight="500" fill="#FFFFFF">
            <tspan x="4" y="18">PDF</tspan>
        </text>
    </g>
</svg>
