<?xml version="1.0" encoding="utf-8"?>
<svg xmlns="http://www.w3.org/2000/svg" xmlns:xlink="http://www.w3.org/1999/xlink" width="14px" height="14px"
     viewBox="0 0 24 24" xml:space="preserve">
    <g transform="translate(2.000000, 1.000000)">
				<path class="svg-fill-white" d="M6.1,17c0,2.2,1.9,4,4.2,4s4.2-1.8,4.2-4h-2c0,1.1-1,2-2.2,2s-2.2-0.9-2.2-2H6.1z"/>
        <path class="svg-fill-white" d="M4,11V8.4C4,4.9,6.8,2,10.3,2s6.3,2.9,6.3,6.4v2.7c2.3,1.9,3.4,3.2,3.4,4.3
					c0,1.7-1.4,3-3.1,3H3.1c-1.7,0-3.1-1.3-3.1-3C0,14.2,1.3,12.9,4,11z M5.5,12.3c-1.3,0.9-2.2,1.7-2.9,2.3
					c-0.3,0.3-0.5,0.5-0.6,0.7C2,15.4,2,15.4,2,15.4c0,0.5,0.5,1,1.1,1h13.8c0.6,0,1.1-0.5,1.1-1c0-0.2-1.1-1.4-3.1-3L14.6,12V8.4
					C14.6,6,12.6,4,10.3,4S6,6,6,8.4V12L5.5,12.3z"/>
        <path class="svg-fill-white" d="M12.4,2.5c0-1.1-0.9-2-2.1-2s-2.1,0.9-2.1,2h1c0-0.5,0.5-1,1.1-1s1.1,0.5,1.1,1H12.4z"/>
	</g>
</svg>
