<?xml version="1.0" encoding="UTF-8"?>
<svg viewBox="0 0 16 16" version="1.1" xmlns="http://www.w3.org/2000/svg" xmlns:xlink="http://www.w3.org/1999/xlink">
    <g>
        <path d="M8.05333333,8.72 C9.49198251,8.72008962 10.8213875,7.95263089 11.540738,6.70673908 C12.2600884,5.46084727 12.2600884,3.9258194 11.540738,2.67992759 C10.8213875,1.43403579 9.49198251,0.666577055 8.05333333,0.666666672 C5.82956469,0.666805196 4.02691749,2.4695647 4.02691749,4.69333334 C4.02691749,6.91710198 5.82956469,8.71986148 8.05333333,8.72 Z M8.05333333,7.38666667 C6.5658464,7.38666667 5.35999999,6.18082026 5.35999999,4.69333334 C5.35999999,3.20584641 6.5658464,2 8.05333333,2 C9.54082026,2 10.7466667,3.20584641 10.7466667,4.69333334 C10.7466667,6.18082026 9.54082026,7.38666667 8.05333333,7.38666667 Z"
              class="svg-fill-grey-500"></path>
        <path d="M8.05333333,7.38666667 C3.97333333,7.38666667 0.666666672,10.6933333 0.666666672,14.7733333 C0.666666672,15.1414833 0.965183357,15.4398979 1.33333334,15.4398979 C1.70148331,15.4398979 1.99994364,15.1414833 2,14.7733333 C2,11.4301696 4.71016965,8.72 8.05333333,8.72 C8.4214833,8.71994364 8.71989794,8.42148331 8.71989794,8.05333334 C8.71989794,7.68518336 8.4214833,7.38666667 8.05333333,7.38666667 Z"
              class="svg-fill-grey-500"></path>
        <path d="M11.2793333,9.36266667 L11.2793333,9.27866667 C11.2793333,8.91066093 11.5776609,8.61233334 11.9456667,8.61233334 C12.3136724,8.61233334 12.612,8.91066093 12.612,9.27866667 L12.612,9.36266667 C12.8566667,9.42533334 13.088,9.52266667 13.3,9.648 L13.36,9.588 C13.6203332,9.32774537 14.0423334,9.32774537 14.3026667,9.588 C14.4275663,9.71279083 14.4977433,9.88210883 14.4977433,10.0586667 C14.4977433,10.2352245 14.4275663,10.4045425 14.3026667,10.5293333 L14.2426667,10.5893333 C14.3673333,10.8006667 14.4646667,11.0313333 14.5273333,11.276 L14.6113333,11.276 C14.8561394,11.2650383 15.0871898,11.3893981 15.2128671,11.5997677 C15.3385445,11.8101372 15.3385445,12.0725294 15.2128671,12.282899 C15.0871898,12.4932686 14.8561394,12.6176284 14.6113333,12.6066667 L14.5273333,12.6066667 C14.46518,12.8478995 14.3691114,13.0790928 14.242,13.2933333 L14.302,13.3533333 C14.4271038,13.478151 14.4974105,13.647612 14.4974105,13.8243333 C14.4974105,14.0010547 14.4271038,14.1705156 14.302,14.2953333 C14.0416668,14.555588 13.6196666,14.555588 13.3593333,14.2953333 L13.2993333,14.2353333 C13.0853333,14.362 12.8533333,14.458 12.612,14.52 L12.612,14.604 C12.612,14.9721898 12.3135232,15.2706667 11.9453333,15.2706667 C11.5771435,15.2706667 11.2786667,14.9721898 11.2786667,14.604 L11.2786667,14.52 C11.0373266,14.4578524 10.8059428,14.3620223 10.5913333,14.2353333 L10.5313333,14.2953333 C10.2696674,14.5474738 9.8542753,14.5436193 9.59733333,14.2866667 C9.33993393,14.0300694 9.33637024,13.6143052 9.58933333,13.3533333 L9.64933333,13.2933333 C9.52240628,13.0790004 9.42634879,12.847834 9.364,12.6066667 L9.28,12.6066667 C9.03519397,12.6176284 8.80414356,12.4932686 8.6784662,12.282899 C8.55278885,12.0725294 8.55278885,11.8101372 8.6784662,11.5997677 C8.80414356,11.3893981 9.03519397,11.2650383 9.28,11.276 L9.364,11.276 C9.42666667,11.0313333 9.524,10.8006667 9.64866667,10.5893333 L9.58866667,10.5293333 C9.46365114,10.4044271 9.39346434,10.2349164 9.3935894,10.058195 C9.39371447,9.88147369 9.46414113,9.71206248 9.58933333,9.58733333 C9.84966656,9.3270787 10.2716668,9.3270787 10.532,9.58733333 L10.5913333,9.64733333 C10.806,9.52066666 11.038,9.42533333 11.2793333,9.36266667 L11.2793333,9.36266667 Z M11.946,13.2726667 C12.6812751,13.2726667 13.2773333,12.6766084 13.2773333,11.9413333 C13.2773333,11.2060582 12.6812751,10.61 11.946,10.61 C11.4603133,10.5946278 11.0047946,10.8449628 10.757405,11.2632046 C10.5100153,11.6814464 10.5100153,12.2012203 10.757405,12.6194621 C11.0047946,13.0377039 11.4603133,13.2880389 11.946,13.2726667 L11.946,13.2726667 Z"
              class="svg-fill-grey-800"></path>
    </g>
</svg>
