<?xml version="1.0" standalone="no"?><!DOCTYPE svg PUBLIC "-//W3C//DTD SVG 1.1//EN"
        "http://www.w3.org/Graphics/SVG/1.1/DTD/svg11.dtd">
<svg viewBox="0 0 1024 1024" version="1.1" xmlns="http://www.w3.org/2000/svg"
     xmlns:xlink="http://www.w3.org/1999/xlink">
    <path d="M933.160655 218.92794A512.905637 512.905637 0 0 0 511.763747 0.236253C229.283704 0.236253 0.118127 226.330539 0.118127 505.581789c0 279.172499 229.165577 505.266785 511.64562 505.266784 238.064447 0 443.210951-161.912174 497.706683-387.848958a45.911866 45.911866 0 0 0-89.303699-21.499038c-44.573099 184.67123-212.785357 317.524264-408.402984 317.524263-232.000615 0-419.743136-185.301238-419.743136-413.443051 0-228.220564 187.742521-413.443052 419.743136-413.443052 140.01938 0 268.226102 67.962163 346.032146 179.394909a45.911866 45.911866 0 1 0 75.364762-52.605706z"
          class="svg-fill-grey-800"></path>
    <path d="M880.554949 227.196801H696.907483a45.911866 45.911866 0 0 0 0 91.902484h275.628701V46.14812a45.911866 45.911866 0 1 0-91.823733 0v181.048681z"
          class="svg-fill-grey-500"></path>
</svg>