<?xml version="1.0" encoding="UTF-8"?>
<svg width='16px' height='16px' viewBox="0 0 16 16" version="1.1" xmlns="http://www.w3.org/2000/svg"
     xmlns:xlink="http://www.w3.org/1999/xlink">
    <g transform="translate(0.684904, 0.658285)">
        <path d="M7.33333333,0.666666667 C7.70152317,0.666666667 8,0.9651435 8,1.33333333 L8,10.6666667 C8,11.0348565 7.70152317,11.3333333 7.33333333,11.3333333 C6.9651435,11.3333333 6.66666667,11.0348565 6.66666667,10.6666667 L6.66666667,1.33333333 C6.66666667,0.9651435 6.9651435,0.666666667 7.33333333,0.666666667 Z"
              class="svg-fill-grey-800"
              transform="translate(7.333333, 6.000000) rotate(-180.000000) translate(-7.333333, -6.000000) "></path>
        <path d="M11.5369512,0.236141151 C11.8018351,-0.0195936205 12.22388,-0.0121767871 12.4796147,0.252707112 C12.7353495,0.517591011 12.7279327,0.939635832 12.4630488,1.1953706 L7.68027357,5.81294806 C7.54822836,5.94043241 7.37712795,6.00252242 7.20704395,5.99992227 C7.03720937,5.99739469 6.86805968,5.93017197 6.73991991,5.79876269 L2.18936178,1.13209602 C1.93231224,0.86848781 1.9376291,0.44641131 2.20123731,0.189361775 C2.46484552,-0.06768776 2.88692202,-0.0623709015 3.14397156,0.201237311 L7.23141035,4.39296804 L11.5369512,0.236141151 Z"
              class="svg-fill-grey-800" fill-rule="nonzero"
              transform="translate(7.333333, 3.000000) rotate(-180.000000) translate(-7.333333, -3.000000) "></path>
        <path d="M0,9.33333333 L0,12.6666667 C0,13.7712362 0.8954305,14.6666667 2,14.6666667 L12.6666667,14.6666667 C13.7712362,14.6666667 14.6666667,13.7712362 14.6666667,12.6666667 L14.6666667,9.33333333 C14.6666667,8.9651435 14.3681898,8.66666667 14,8.66666667 C13.6318102,8.66666667 13.3333333,8.9651435 13.3333333,9.33333333 L13.3333333,12.6666667 C13.3333333,13.0348565 13.0348565,13.3333333 12.6666667,13.3333333 L2,13.3333333 C1.63181017,13.3333333 1.33333333,13.0348565 1.33333333,12.6666667 L1.33333333,9.33333333 C1.33333333,8.9651435 1.0348565,8.66666667 0.666666667,8.66666667 C0.298476833,8.66666667 0,8.9651435 0,9.33333333 Z"
              class="svg-fill-grey-500" fill-rule="nonzero"></path>
    </g>
</svg>
