<?xml version="1.0" encoding="UTF-8"?>
<svg width="24px" height="30px" viewBox="0 0 24 30" version="1.1" xmlns="http://www.w3.org/2000/svg" xmlns:xlink="http://www.w3.org/1999/xlink">
    <g stroke="none" stroke-width="1" fill="none" fill-rule="evenodd">
        <g>
            <path d="M1.43312102,0 C1.07484076,0 0.692675159,0.148253899 0.429936306,0.444761696 C0.167197452,0.741269493 2.13162821e-14,1.11190424 2.13162821e-14,1.48253899 L2.13162821e-14,28.517461 C2.13162821e-14,28.8880958 0.143312102,29.2834395 0.429936306,29.5552383 C0.71656051,29.8517461 1.07484076,30 1.43312102,30 L22.4522293,30 C22.8105096,30 23.1926752,29.8517461 23.455414,29.5552383 C23.7420382,29.2587305 23.8853503,28.8880958 23.8853503,28.517461 L23.8853503,8.40105425 L15.7643312,0 L1.43312102,0 Z" id="路径备份" fill="#FFBA6B"></path>
            <path d="M23.8853503,8.12101911 L17.1974522,8.12101911 C16.839172,8.12101911 16.4570064,7.97770701 16.1942675,7.6910828 C15.9076433,7.42834395 15.7643312,7.04617834 15.7643312,6.68789809 L15.7643312,1.24344979e-14 L23.8853503,8.12101911 Z" id="路径备份-2" fill-opacity="0.5" fill="#FFFFFF"></path>
        </g>
        <g transform="translate(9.000000, 10.000000)" fill="#FFFFFF">
            <path d="M6.56483435,5.19642254 L1.05621045,8.82206252 C0.475989577,9.20280617 0,8.95240719 0,8.26295248 L0,0.737262681 C0,0.0478079638 0.475989577,-0.204306074 1.05621045,0.179867698 L6.56483435,3.80722274 C7.14505522,4.18625133 7.14505522,4.81396383 6.56483435,5.19642254 L6.56483435,5.19642254 L6.56483435,5.19642254 Z" id="路径"></path>
        </g>
    </g>
</svg>
