<?xml version="1.0" standalone="no"?><!DOCTYPE svg PUBLIC "-//W3C//DTD SVG 1.1//EN"
        "http://www.w3.org/Graphics/SVG/1.1/DTD/svg11.dtd">
<svg viewBox="0 0 1024 1024" version="1.1"
     xmlns="http://www.w3.org/2000/svg">
    <path d="M512 981.333333c259.2 0 469.333333-210.133333 469.333333-469.333333S771.2 42.666667 512 42.666667 42.666667 252.8 42.666667 512s210.133333 469.333333 469.333333 469.333333z m0-85.333333a384 384 0 1 1 0-768 384 384 0 0 1 0 768z"
          class="svg-fill-grey-500"/>
    <path d="M420.565333 323.925333m42.666667 0l0 0q42.666667 0 42.666667 42.666667l0 187.733333q0 42.666667-42.666667 42.666667l0 0q-42.666667 0-42.666667-42.666667l0-187.733333q0-42.666667 42.666667-42.666667Z"
          class="svg-fill-grey-800"/>
    <path d="M760.704 526.506667m0 42.666666l0 0q0 42.666667-42.666667 42.666667l-249.813333 0q-42.666667 0-42.666667-42.666667l0 0q0-42.666667 42.666667-42.666666l249.813333 0q42.666667 0 42.666667 42.666666Z"
          class="svg-fill-grey-800"/>
</svg>
