<?xml version="1.0" standalone="no"?><!DOCTYPE svg PUBLIC "-//W3C//DTD SVG 1.1//EN"
        "http://www.w3.org/Graphics/SVG/1.1/DTD/svg11.dtd">
<svg viewBox="0 0 1024 1024" version="1.1"
     xmlns="http://www.w3.org/2000/svg">
    <path d="M0 0m204.8 0l614.4 0q204.8 0 204.8 204.8l0 614.4q0 204.8-204.8 204.8l-614.4 0q-204.8 0-204.8-204.8l0-614.4q0-204.8 204.8-204.8Z"
          fill="#82C7FC"/>
    <path d="M358.144 196.7616v59.6992H256c-10.7008 0-18.9952 6.5024-20.9408 14.4384l-0.4096 3.4816v501.76c0 8.2432 7.0144 15.7696 16.896 17.5616l4.4544 0.3584h512c10.7008 0 18.9952-6.5024 20.9408-14.4384l0.4096-3.4816v-501.76c0-8.192-7.0144-15.7696-16.896-17.5104L768 256.4608h-98.5088V196.7616H768c41.8816 0 76.9536 30.5664 80.7424 70.5024l0.3072 7.168v501.76c0 40.96-32.768 73.7792-73.728 77.312l-7.3216 0.3072H256c-41.8816 0-76.9536-30.5664-80.7424-70.5024l-0.3072-7.168v-501.76c0-40.96 32.768-73.7792 73.728-77.312L256 196.7616h102.144z"
          fill="#FFFFFF"/>
    <path d="M657.0496 153.6C690.0736 153.6 716.8 180.3264 716.8 213.3504v26.5216c0 33.024-26.7264 59.7504-59.7504 59.7504H366.9504A59.7504 59.7504 0 0 1 307.2 239.872v-26.5216C307.2 180.3264 333.9264 153.6 366.9504 153.6h290.0992z m0 59.7504H366.9504v26.5216h290.0992v-26.5216z"
          fill="#FFFFFF"/>
    <path d="M338.7904 640.3072m29.8496 0l282.4192 0q29.8496 0 29.8496 29.8496l0 0.0512q0 29.8496-29.8496 29.8496l-282.4192 0q-29.8496 0-29.8496-29.8496l0-0.0512q0-29.8496 29.8496-29.8496Z"
          fill="#FFFFFF"/>
    <path d="M610.6112 345.3952a27.0848 27.0848 0 0 1 44.544 30.464l-2.816 3.9936-167.1168 202.752-112.2816-117.76a27.0848 27.0848 0 0 1 35.5328-40.6016l3.6864 3.2256L482.2528 501.0432l128.3584-155.648z"
          fill="#FFFFFF"/>
</svg>