<?xml version="1.0" standalone="no"?><!DOCTYPE svg PUBLIC "-//W3C//DTD SVG 1.1//EN"
        "http://www.w3.org/Graphics/SVG/1.1/DTD/svg11.dtd">
<svg viewBox="0 0 1024 1024" version="1.1" xmlns="http://www.w3.org/2000/svg">
    <path d="M954.054328 550.419733h-117.328445v-20.820466c0-11.732844-0.554644-23.2097-1.706595-34.55856h119.205699c15.018041 0.511979 26.96421 12.799467 26.87888 27.732177a27.774843 27.774843 0 0 1-27.049539 27.646849z m-193.698596-233.419608a336.540644 336.540644 0 0 0-38.654389-39.379693l86.737719-88.828298a26.70822 26.70822 0 0 1 38.526395 0c10.666222 11.050206 10.666222 28.500146 0 39.507687l-86.609725 88.700304z m-275.145869-116.475147V69.714429a26.96421 26.96421 0 1 1 54.013749 0V200.567643c-9.087621-0.725303-18.047248-1.450606-27.305528-1.450606-9.215616 0-17.919253 0.725303-26.708221 1.450606zM267.960248 312.093663L180.155907 222.070747a28.158827 28.158827 0 0 1 0-39.081038 26.452231 26.452231 0 0 1 38.270405 0L306.870627 273.524603a333.084788 333.084788 0 0 0-38.953043 38.526395z m-80.764634 217.590933v20.777801H69.696509A27.988167 27.988167 0 0 1 42.689635 521.834257a27.817508 27.817508 0 0 1 27.006874-26.87888h119.163035c-1.151952 11.51952-1.706596 23.12437-1.706595 34.686555z"
          class="svg-fill-grey-500"/>
    <path d="M286.47681 920.15366V567.485688c0-136.442315 101.713095-245.877755 225.526603-245.877755 123.813508 0 225.526603 109.43544 225.526603 245.877755v352.667972h85.329778V567.485688c0-182.264406-138.447565-331.207533-310.856381-331.207533-172.366151 0-310.856381 148.943127-310.856381 331.207533v352.667972h85.329778z"
          class="svg-fill-grey-800"/>
    <path d="M76.224237 896.005333m42.664889 0l786.271239 0q42.664889 0 42.664889 42.664889l0 0q0 42.664889-42.664889 42.664889l-786.271239 0q-42.664889 0-42.664889-42.664889l0 0q0-42.664889 42.664889-42.664889Z"
          class="svg-fill-grey-500"/>
    <path d="M462.725467 740.363818a42.664889 42.664889 0 0 0 65.27728 54.952377l101.969084-121.082955a46.035415 46.035415 0 0 0-34.430565-75.644848l-57.640265-0.981292 47.656681-54.269739a42.664889 42.664889 0 0 0-64.082663-56.317653L417.714009 605.03079a46.035415 46.035415 0 0 0 33.747927 76.370152l60.029499 1.023957-48.765968 57.896254z"
          class="svg-fill-grey-800"/>
</svg>
