<?xml version="1.0" standalone="no"?><!DOCTYPE svg PUBLIC "-//W3C//DTD SVG 1.1//EN"
        "http://www.w3.org/Graphics/SVG/1.1/DTD/svg11.dtd">
<svg viewBox="0 0 1024 1024" version="1.1" xmlns="http://www.w3.org/2000/svg">
    <path d="M818.304 897.664H151.978667c-14.08 0-23.978667-9.088-23.978667-18.304V148.010667C128 138.752 137.941333 129.664 151.978667 129.664h666.325333c14.08 0 23.978667 9.088 23.978667 18.304v287.317333a42.666667 42.666667 0 0 0 85.333333 0V148.010667C927.573333 89.813333 877.866667 44.330667 818.304 44.330667H151.978667C92.416 44.330667 42.666667 89.813333 42.666667 147.968V879.317333C42.666667 937.514667 92.416 982.997333 151.978667 982.997333h666.325333a42.666667 42.666667 0 1 0 0-85.333333z"
          class="svg-fill-grey-500"/>
    <path d="M230.698667 229.205333m42.666666 0l314.453334 0q42.666667 0 42.666666 42.666667l0 0q0 42.666667-42.666666 42.666667l-314.453334 0q-42.666667 0-42.666666-42.666667l0 0q0-42.666667 42.666666-42.666667Z"
          class="svg-fill-grey-500"/>
    <path d="M230.698667 406.997333m42.666666 0l314.453334 0q42.666667 0 42.666666 42.666667l0 0q0 42.666667-42.666666 42.666667l-314.453334 0q-42.666667 0-42.666666-42.666667l0 0q0-42.666667 42.666666-42.666667Z"
          class="svg-fill-grey-500"/>
    <path d="M567.637333 691.413333a32 32 0 0 1 32-32h353.194667a32 32 0 1 1 0 64h-353.194667a32 32 0 0 1-32-32z"
          class="svg-fill-grey-800"/>
    <path d="M927.274667 693.546667l-148.266667-150.314667a32 32 0 0 1 45.568-44.928l169.173333 171.52a32 32 0 0 1 8.149334 30.72 31.872 31.872 0 0 1-9.258667 18.474667l-168.405333 165.888a32 32 0 1 1-44.928-45.610667l147.968-145.749333z"
          class="svg-fill-grey-800"/>
</svg>
