<?xml version="1.0" standalone="no"?><!DOCTYPE svg PUBLIC "-//W3C//DTD SVG 1.1//EN"
        "http://www.w3.org/Graphics/SVG/1.1/DTD/svg11.dtd">
<svg viewBox="0 0 1024 1024" version="1.1" xmlns="http://www.w3.org/2000/svg">
    <path d="M683.818667 902.826667h-490.666667A23.04 23.04 0 0 1 170.666667 879.36V151.466667c0-13.098667 10.24-23.466667 22.528-23.466667h651.861333a23.04 23.04 0 0 1 22.485333 23.466667v565.418666a42.666667 42.666667 0 0 0 85.333334 0V151.466667C952.874667 91.52 904.746667 42.666667 845.056 42.666667H193.194667C133.461333 42.666667 85.333333 91.52 85.333333 151.466667v727.893333c0 59.946667 48.128 108.8 107.861334 108.8h490.624a42.666667 42.666667 0 1 0 0-85.333333z"
          class="svg-fill-grey-800"/>
    <path d="M305.792 264.533333m42.666667 0l305.792 0q42.666667 0 42.666666 42.666667l0 0q0 42.666667-42.666666 42.666667l-305.792 0q-42.666667 0-42.666667-42.666667l0 0q0-42.666667 42.666667-42.666667Z"
          class="svg-fill-grey-500"/>
    <path d="M305.792 443.733333m42.666667 0l163.541333 0q42.666667 0 42.666667 42.666667l0 0q0 42.666667-42.666667 42.666667l-163.541333 0q-42.666667 0-42.666667-42.666667l0 0q0-42.666667 42.666667-42.666667Z"
          class="svg-fill-grey-500"/>
    <path d="M780.373333 850.56l85.333334 88.746667a32 32 0 1 0 46.122666-44.373334l-85.333333-88.746666a32 32 0 0 0-46.122667 44.373333z"
          class="svg-fill-grey-800"/>
    <path d="M677.290667 887.637333c90.88 7.978667 171.093333-58.624 179.029333-148.906666 7.893333-90.282667-59.562667-169.813333-150.442667-177.749334-90.88-7.936-171.093333 58.666667-178.986666 148.906667-7.893333 90.325333 59.52 169.813333 150.4 177.749333z m5.589333-63.744c-55.808-4.864-97.024-53.461333-92.245333-108.373333 4.821333-54.954667 53.845333-95.658667 109.653333-90.752 55.850667 4.864 97.066667 53.461333 92.245333 108.373333-4.778667 54.954667-53.802667 95.658667-109.653333 90.752z"
          class="svg-fill-grey-800"/>
</svg>
