<?xml version="1.0" standalone="no"?><!DOCTYPE svg PUBLIC "-//W3C//DTD SVG 1.1//EN"
        "http://www.w3.org/Graphics/SVG/1.1/DTD/svg11.dtd">
<svg viewBox="0 0 1024 1024" version="1.1" xmlns="http://www.w3.org/2000/svg">
    <path d="M334.208 0m42.666667 0l0 0q42.666667 0 42.666666 42.666667l0 89.898666q0 42.666667-42.666666 42.666667l0 0q-42.666667 0-42.666667-42.666667l0-89.898666q0-42.666667 42.666667-42.666667Z"
          class="svg-fill-grey-500"/>
    <path d="M618.666667 0m42.666666 0l0 0q42.666667 0 42.666667 42.666667l0 89.898666q0 42.666667-42.666667 42.666667l0 0q-42.666667 0-42.666666-42.666667l0-89.898666q0-42.666667 42.666666-42.666667Z"
          class="svg-fill-grey-500"/>
    <path d="M170.666667 140.202667h682.666666a85.333333 85.333333 0 0 1 85.333334 85.333333V896a85.333333 85.333333 0 0 1-85.333334 85.333333H170.666667a85.333333 85.333333 0 0 1-85.333334-85.333333V225.536a85.333333 85.333333 0 0 1 85.333334-85.333333z m0 85.333333V896h682.666666V225.536H170.666667z"
          class="svg-fill-grey-500"/>
    <path d="M298.666667 420.565333m42.666666 0l341.333334 0q42.666667 0 42.666666 42.666667l0 0q0 42.666667-42.666666 42.666667l-341.333334 0q-42.666667 0-42.666666-42.666667l0 0q0-42.666667 42.666666-42.666667Z"
          class="svg-fill-grey-800"/>
    <path d="M298.666667 595.797333m42.666666 0l341.333334 0q42.666667 0 42.666666 42.666667l0 0q0 42.666667-42.666666 42.666667l-341.333334 0q-42.666667 0-42.666666-42.666667l0 0q0-42.666667 42.666666-42.666667Z"
          class="svg-fill-grey-800"/>
</svg>
