<?xml version="1.0" standalone="no"?><!DOCTYPE svg PUBLIC "-//W3C//DTD SVG 1.1//EN" "http://www.w3.org/Graphics/SVG/1.1/DTD/svg11.dtd"><svg viewBox="0 0 1024 1024" version="1.1" xmlns="http://www.w3.org/2000/svg"><path d="M0 0m204.8 0l614.4 0q204.8 0 204.8 204.8l0 614.4q0 204.8-204.8 204.8l-614.4 0q-204.8 0-204.8-204.8l0-614.4q0-204.8 204.8-204.8Z" fill="#FAD355" /><path d="M243.2 213.3504h537.6a59.7504 59.7504 0 0 1 59.7504 59.6992v388.3008a59.7504 59.7504 0 0 1-59.7504 59.6992H243.2a59.7504 59.7504 0 0 1-59.7504-59.6992V273.0496A59.7504 59.7504 0 0 1 243.2 213.3504z m0 59.6992v388.3008h537.6V273.0496H243.2z" fill="#FFFFFF" /><path d="M332.3904 586.0352a24.1152 24.1152 0 0 1-16.9984-6.9632 23.296 23.296 0 0 1 0-33.3312L447.488 415.9488a24.32 24.32 0 0 1 33.9456 0l62.2592 61.184 130.2016-128a24.32 24.32 0 0 1 33.9456 0 23.296 23.296 0 0 1 0 33.3312l-147.2 144.6912a24.32 24.32 0 0 1-33.9456 0L464.384 466.0224 349.3888 579.072a24.1152 24.1152 0 0 1-16.9984 6.9632z m0.4096 164.864h358.4a29.8496 29.8496 0 1 1 0 59.7504h-358.4a29.8496 29.8496 0 1 1 0-59.6992z" fill="#FFFFFF" /></svg>