<?xml version="1.0" standalone="no"?><!DOCTYPE svg PUBLIC "-//W3C//DTD SVG 1.1//EN" "http://www.w3.org/Graphics/SVG/1.1/DTD/svg11.dtd"><svg viewBox="0 0 1024 1024" version="1.1" xmlns="http://www.w3.org/2000/svg"><path d="M128 85.333333h298.666667a42.666667 42.666667 0 0 1 0 85.333334H128a42.666667 42.666667 0 1 1 0-85.333334z m0 341.333334h298.666667a42.666667 42.666667 0 0 1 0 85.333333H128a42.666667 42.666667 0 0 1 0-85.333333z m42.666667-170.666667h256a42.666667 42.666667 0 0 1 0 85.333333H170.666667a42.666667 42.666667 0 1 1 0-85.333333z" class="svg-fill-grey-500" /><path d="M515.2 469.674667a281.941333 281.941333 0 0 0-112.256 225.92c0 155.093333 123.989333 281.088 277.333333 281.088 153.301333 0 277.333333-125.994667 277.333334-281.088 0-90.026667-42.112-173.013333-112.085334-225.706667a42.666667 42.666667 0 0 0-51.328 68.138667 196.650667 196.650667 0 0 1 78.08 157.568c0 108.245333-86.144 195.754667-192 195.754666-105.898667 0-192-87.466667-192-195.754666 0-63.061333 29.397333-121.002667 78.208-157.696a42.666667 42.666667 0 0 0-51.285333-68.224z" class="svg-fill-grey-800" /><path d="M588.8 495.061333V211.242667c0-35.413333 39.338667-67.754667 91.477333-67.754667 52.096 0 91.392 32.384 91.392 67.754667v283.818666a42.666667 42.666667 0 0 0 85.333334 0V211.242667c0-86.613333-80.768-153.088-176.725334-153.088-96 0-176.768 66.517333-176.768 153.088v283.818666a42.666667 42.666667 0 0 0 85.333334 0z" class="svg-fill-grey-800" /><path d="M680.277333 527.488a160 160 0 1 0 160 160 42.666667 42.666667 0 0 0-85.333333 0 74.666667 74.666667 0 1 1-74.666667-74.666667 42.666667 42.666667 0 0 0 0-85.333333z" class="svg-fill-grey-800" /></svg>
