<?xml version="1.0" standalone="no"?><!DOCTYPE svg PUBLIC "-//W3C//DTD SVG 1.1//EN" "http://www.w3.org/Graphics/SVG/1.1/DTD/svg11.dtd"><svg viewBox="0 0 1024 1024" version="1.1" xmlns="http://www.w3.org/2000/svg"><path d="M469.333333 42.666667m42.666667 0l0 0q42.666667 0 42.666667 42.666666l0 853.333334q0 42.666667-42.666667 42.666666l0 0q-42.666667 0-42.666667-42.666666l0-853.333334q0-42.666667 42.666667-42.666666Z" class="svg-fill-grey-800" /><path d="M927.26007 195.068618m22.609889 36.183385l0 0q22.609889 36.183385-13.573497 58.793274l-796.03448 497.41755q-36.183385 22.609889-58.793274-13.573497l0 0q-22.609889-36.183385 13.573497-58.793274l796.03448-497.417549q36.183385-22.609889 58.793274 13.573496Z" class="svg-fill-grey-500" /><path d="M105.465534 191.685976m-22.609889 36.183386l0 0q-22.609889 36.183385 13.573497 58.793274l796.034479 497.417549q36.183385 22.609889 58.793274-13.573497l0 0q22.609889-36.183385-13.573496-58.793274l-796.03448-497.417549q-36.183385-22.609889-58.793274 13.573497Z" class="svg-fill-grey-500" /><path d="M384 128m42.666667 0l170.666666 0q42.666667 0 42.666667 42.666667l0 0q0 42.666667-42.666667 42.666666l-170.666666 0q-42.666667 0-42.666667-42.666666l0 0q0-42.666667 42.666667-42.666667Z" class="svg-fill-grey-800" /><path d="M384 810.666667m42.666667 0l170.666666 0q42.666667 0 42.666667 42.666666l0 0q0 42.666667-42.666667 42.666667l-170.666666 0q-42.666667 0-42.666667-42.666667l0 0q0-42.666667 42.666667-42.666666Z" class="svg-fill-grey-800" /><path d="M781.79372 172.071955m22.609888 36.183386l90.439555 144.733541q22.609889 36.183385-13.573497 58.793274l0 0q-36.183385 22.609889-58.793274-13.573497l-90.439555-144.733541q-22.609889-36.183385 13.573497-58.793274l0 0q36.183385-22.609889 58.793274 13.573497Z" class="svg-fill-grey-500" /><path d="M156.109663 570.401472m22.609888 36.183385l90.439555 144.733542q22.609889 36.183385-13.573497 58.793274l0 0q-36.183385 22.609889-58.793274-13.573497l-90.439554-144.733542q-22.609889-36.183385 13.573496-58.793274l0 0q36.183385-22.609889 58.793274 13.573497Z" class="svg-fill-grey-500" /><path d="M231.330053 171.173864m-22.609889 36.183385l-90.439554 144.733542q-22.609889 36.183385 13.573497 58.793274l0 0q36.183385 22.609889 58.793274-13.573497l90.439554-144.733541q22.609889-36.183385-13.573497-58.793274l0 0q-36.183385-22.609889-58.793274 13.573496Z" class="svg-fill-grey-500" /><path d="M865.903168 561.303403m-22.609889 36.183386l-90.439554 144.733542q-22.609889 36.183385 13.573497 58.793274l0 0q36.183385 22.609889 58.793274-13.573497l90.439554-144.733542q22.609889-36.183385-13.573497-58.793274l0 0q-36.183385-22.609889-58.793274 13.573497Z" class="svg-fill-grey-500" /></svg>
