<?xml version="1.0" standalone="no"?><!DOCTYPE svg PUBLIC "-//W3C//DTD SVG 1.1//EN" "http://www.w3.org/Graphics/SVG/1.1/DTD/svg11.dtd"><svg viewBox="0 0 1024 1024" version="1.1" xmlns="http://www.w3.org/2000/svg"><path fill="#ffffff" d="M695.082667 42.666667a42.666667 42.666667 0 0 1 42.666666 42.666666v97.152h143.701334a42.666667 42.666667 0 0 1 42.666666 42.666667V838.826667a42.666667 42.666667 0 0 1-42.666666 42.666666h-50.517334v93.184H691.2V881.493333H318.293333v93.184H178.56V881.493333H128a42.666667 42.666667 0 0 1-42.666667-42.666666V225.152a42.666667 42.666667 0 0 1 42.666667-42.666667h143.786667V85.333333a42.666667 42.666667 0 0 1 42.666666-42.666666z m89.301333 699.008H225.152v46.592h559.232v-46.592z m0-93.184H225.152v46.592h559.232v-46.592z m0-93.226667H225.152v46.592h559.232v-46.592z m0-93.184H225.152v46.592h559.232V462.08z"  /></svg>