<?xml version="1.0" standalone="no"?><!DOCTYPE svg PUBLIC "-//W3C//DTD SVG 1.1//EN" "http://www.w3.org/Graphics/SVG/1.1/DTD/svg11.dtd"><svg viewBox="0 0 1024 1024" version="1.1" xmlns="http://www.w3.org/2000/svg"><path d="M631.637333 320.384l-124.672 114.688L382.293333 320.426667a37.461333 37.461333 0 0 0-49.92 0 30.634667 30.634667 0 0 0 0 45.909333l112.469334 103.466667H384.981333c-19.498667 0-35.285333 14.506667-35.285333 32.469333 0 17.92 15.786667 32.469333 35.285333 32.469333h87.936v51.626667H384.298667c-21.077333 0-38.101333 15.744-38.101334 35.114667 0 19.370667 17.066667 34.986667 38.101334 34.986666h88.618666v70.4c0 18.048 15.786667 32.469333 35.285334 32.469334 19.498667 0 35.285333-14.421333 35.285333-32.426667v-70.4h87.808c21.077333 0 38.144-15.658667 38.144-34.986667 0-19.413333-17.066667-35.157333-38.144-35.157333h-87.808v-51.626667h88.533333c19.498667 0 35.285333-14.592 35.285334-32.426666 0-18.048-15.786667-32.512-35.285334-32.512h-62.933333l112.469333-103.466667a30.634667 30.634667 0 0 0 0-45.909333 37.461333 37.461333 0 0 0-49.92 0z" class="svg-fill-grey-800" /><path d="M991.445333 436.437333a42.666667 42.666667 0 1 1-84.224 13.866667 405.461333 405.461333 0 0 0-799.573333-1.322667 42.666667 42.666667 0 1 1-84.181333-14.165333 490.794667 490.794667 0 0 1 967.978666 1.621333zM23.893333 601.429333a42.666667 42.666667 0 0 1 84.053334-14.634666 405.461333 405.461333 0 0 0 798.464 1.066666 42.666667 42.666667 0 0 1 84.053333 14.848 490.794667 490.794667 0 0 1-966.570667-1.28z" class="svg-fill-grey-500" /></svg>
