<?xml version="1.0" standalone="no"?><!DOCTYPE svg PUBLIC "-//W3C//DTD SVG 1.1//EN" "http://www.w3.org/Graphics/SVG/1.1/DTD/svg11.dtd"><svg viewBox="0 0 1024 1024" version="1.1" xmlns="http://www.w3.org/2000/svg"><path d="M85.333333 42.666667m42.666667 0l768 0q42.666667 0 42.666667 42.666666l0 0q0 42.666667-42.666667 42.666667l-768 0q-42.666667 0-42.666667-42.666667l0 0q0-42.666667 42.666667-42.666666Z" class="svg-fill-grey-800" /><path d="M217.344 199.125333H806.826667a85.333333 85.333333 0 0 1 85.034666 92.672l-52.906666 611.541334A85.333333 85.333333 0 0 1 753.92 981.333333H271.616a85.333333 85.333333 0 0 1-84.992-77.781333L132.352 291.968a85.333333 85.333333 0 0 1 84.992-92.842667z m0 85.333334L271.616 896H753.92l52.906667-611.541333H217.344z" class="svg-fill-grey-800" /><path d="M473.216 394.666667m42.666667 0l0 0q42.666667 0 42.666666 42.666666l0 344.874667q0 42.666667-42.666666 42.666667l0 0q-42.666667 0-42.666667-42.666667l0-344.874667q0-42.666667 42.666667-42.666666Z" class="svg-fill-grey-500" /></svg>
