<?xml version="1.0" standalone="no"?><!DOCTYPE svg PUBLIC "-//W3C//DTD SVG 1.1//EN" "http://www.w3.org/Graphics/SVG/1.1/DTD/svg11.dtd"><svg viewBox="0 0 1024 1024" version="1.1" xmlns="http://www.w3.org/2000/svg"><path d="M270.208 578.645333h483.584v42.666667h85.333333V551.253333c0-41.856-37.461333-58.026667-78.250666-58.026666H263.125333c-40.789333 0-78.250667 16.170667-78.250666 58.026666v69.205334h85.333333v-41.856z" class="svg-fill-grey-500" /><path d="M476.416 372.053333h85.333333v143.36h-85.333333z" class="svg-fill-grey-500" /><path d="M512 414.72c102.186667 0 184.874667-83.370667 184.874667-186.026667C696.874667 126.037333 614.186667 42.666667 512 42.666667 409.813333 42.666667 327.125333 126.037333 327.125333 228.693333c0 102.656 82.688 186.026667 184.874667 186.026667z m0-85.333333c-54.912 0-99.541333-45.013333-99.541333-100.693334S457.088 128 512 128c54.912 0 99.541333 45.013333 99.541333 100.693333S566.912 329.386667 512 329.386667z" class="svg-fill-grey-800" /><path d="M227.541333 981.333333c102.186667 0 184.917333-83.370667 184.917334-186.026666 0-102.656-82.730667-186.026667-184.917334-186.026667C125.354667 609.28 42.666667 692.650667 42.666667 795.306667 42.666667 897.962667 125.354667 981.333333 227.541333 981.333333z m0-85.333333C172.629333 896 128 850.986667 128 795.306667s44.629333-100.693333 99.541333-100.693334c54.912 0 99.584 45.013333 99.584 100.693334S282.453333 896 227.541333 896zM796.458667 981.333333C898.645333 981.333333 981.333333 897.962667 981.333333 795.306667c0-102.656-82.688-186.026667-184.874666-186.026667-102.186667 0-184.917333 83.370667-184.917334 186.026667 0 102.656 82.730667 186.026667 184.917334 186.026666z m0-85.333333c-54.912 0-99.584-45.013333-99.584-100.693333s44.672-100.693333 99.584-100.693334c54.912 0 99.541333 45.013333 99.541333 100.693334S851.370667 896 796.458667 896z" class="svg-fill-grey-500" /></svg>
