<?xml version="1.0" standalone="no"?><!DOCTYPE svg PUBLIC "-//W3C//DTD SVG 1.1//EN" "http://www.w3.org/Graphics/SVG/1.1/DTD/svg11.dtd"><svg viewBox="0 0 1024 1024" version="1.1" xmlns="http://www.w3.org/2000/svg"><path d="M513.024 41.898667a42.666667 42.666667 0 0 1 42.666667 42.666666v597.333334a42.666667 42.666667 0 0 1-85.333334 0v-597.333334a42.666667 42.666667 0 0 1 42.666667-42.666666z" class="svg-fill-grey-800" /><path d="M506.538667 664.405333l275.541333-266.069333a42.666667 42.666667 0 1 1 59.264 61.44l-306.090667 295.509333a42.538667 42.538667 0 0 1-60.16-0.938666l-291.285333-298.666667A42.666667 42.666667 0 0 1 244.906667 396.117333l261.632 268.288z" class="svg-fill-grey-800" /><path d="M43.690667 639.232v213.333333a128 128 0 0 0 128 128h682.666666a128 128 0 0 0 128-128v-213.333333a42.666667 42.666667 0 0 0-85.333333 0v213.333333a42.666667 42.666667 0 0 1-42.666667 42.666667h-682.666666a42.666667 42.666667 0 0 1-42.666667-42.666667v-213.333333a42.666667 42.666667 0 0 0-85.333333 0z" class="svg-fill-grey-500" /></svg>
