<?xml version="1.0" standalone="no"?><!DOCTYPE svg PUBLIC "-//W3C//DTD SVG 1.1//EN" "http://www.w3.org/Graphics/SVG/1.1/DTD/svg11.dtd"><svg viewBox="0 0 1024 1024" version="1.1" xmlns="http://www.w3.org/2000/svg"><path d="M532.992 140.842667l4.949333-6.656C575.274667 83.84 657.792 42.666667 721.536 42.666667c111.658667 0 201.941333 91.52 201.941333 204.117333a204.714667 204.714667 0 0 1-70.229333 154.752L427.349333 847.189333a116.352 116.352 0 0 1-84.138666 35.968H210.218667a116.352 116.352 0 0 1-116.394667-116.352v-120.917333c0-30.122667 11.690667-59.050667 32.597333-80.725333L463.616 215.04l69.376-74.24z m38.698667 83.626666l-45.952 49.109334-0.426667 0.469333-337.450667 350.293333a31.018667 31.018667 0 0 0-8.704 21.546667v120.917333c0 17.152 13.909333 31.018667 31.061334 31.018667h132.992a31.018667 31.018667 0 0 0 22.442666-9.6l376.490667-393.941333-170.453333-169.813334z m266.453333 22.314667C838.144 181.077333 785.792 128 721.493333 128c-25.130667 0-59.648 13.226667-85.76 30.72l179.754667 158.421333a119.893333 119.893333 0 0 0 22.613333-70.357333z" class="svg-fill-grey-800" /><path d="M93.013333 897.28m42.666667 0l725.333333 0q42.666667 0 42.666667 42.666667l0 0q0 42.666667-42.666667 42.666666l-725.333333 0q-42.666667 0-42.666667-42.666666l0 0q0-42.666667 42.666667-42.666667Z" class="svg-fill-grey-500" /></svg>
