<?xml version="1.0" standalone="no"?><!DOCTYPE svg PUBLIC "-//W3C//DTD SVG 1.1//EN"
        "http://www.w3.org/Graphics/SVG/1.1/DTD/svg11.dtd">
<svg viewBox="0 0 1024 1024" version="1.1"
     xmlns="http://www.w3.org/2000/svg">
    <path d="M69.818182 46.545455h325.818182c27.927273 0 46.545455 18.618182 46.545454 46.545454s-18.618182 46.545455-46.545454 46.545455H69.818182c-27.927273 0-46.545455-18.618182-46.545455-46.545455s18.618182-46.545455 46.545455-46.545454z m0 372.363636h325.818182c27.927273 0 46.545455 18.618182 46.545454 46.545454s-18.618182 46.545455-46.545454 46.545455H69.818182c-27.927273 0-46.545455-18.618182-46.545455-46.545455s18.618182-46.545455 46.545455-46.545454z m46.545454-186.181818h279.272728c27.927273 0 46.545455 18.618182 46.545454 46.545454s-18.618182 46.545455-46.545454 46.545455H116.363636c-27.927273 0-46.545455-18.618182-46.545454-46.545455s18.618182-46.545455 46.545454-46.545454zM490.775273 463.732364c-74.472727 60.509091-121.018182 148.945455-121.018182 246.690909 0 167.563636 134.981818 307.2 302.545454 307.2s302.545455-139.636364 302.545455-307.2c0-97.745455-46.545455-190.836364-121.018182-246.690909-23.272727-13.963636-51.2-9.309091-65.163636 9.309091-13.963636 18.618182-9.309091 51.2 9.309091 65.163636 51.2 41.890909 83.781818 102.4 83.781818 172.218182 0 116.363636-93.090909 214.109091-209.454546 214.109091s-209.454545-93.090909-209.454545-214.109091c0-69.818182 32.581818-130.327273 83.781818-172.218182 18.618182-13.963636 23.272727-46.545455 9.309091-65.163636-13.963636-18.618182-41.890909-23.272727-65.163636-9.309091z"
          fill="#80A0BA"/>
    <path d="M574.557091 491.659636v-307.2c0-37.236364 41.890909-74.472727 97.745454-74.472727s97.745455 37.236364 97.745455 74.472727v311.854546c0 27.927273 18.618182 46.545455 46.545455 46.545454s46.545455-18.618182 46.545454-46.545454v-311.854546c0-93.090909-88.436364-167.563636-190.836364-167.563636s-190.836364 74.472727-190.836363 167.563636v311.854546c0 27.927273 18.618182 46.545455 46.545454 46.545454s46.545455-23.272727 46.545455-51.2z"
          fill="#80A0BA"/>
    <path fill="#fff" d="M672.302545 528.896c-97.745455 0-176.872727 79.127273-176.872727 176.872727s79.127273 176.872727 176.872727 176.872728 172.218182-79.127273 172.218182-176.872728c0-27.927273-18.618182-46.545455-46.545454-46.545454s-46.545455 18.618182-46.545455 46.545454c0 46.545455-37.236364 83.781818-79.127273 83.781818s-83.781818-37.236364-83.781818-83.781818 37.236364-83.781818 83.781818-83.781818c27.927273 0 46.545455-18.618182 46.545455-46.545454s-18.618182-46.545455-46.545455-46.545455z"/>
</svg>