<?xml version="1.0" standalone="no"?><!DOCTYPE svg PUBLIC "-//W3C//DTD SVG 1.1//EN" "http://www.w3.org/Graphics/SVG/1.1/DTD/svg11.dtd"><svg viewBox="0 0 1024 1024" version="1.1" xmlns="http://www.w3.org/2000/svg"><path d="M0 0m204.8 0l614.4 0q204.8 0 204.8 204.8l0 614.4q0 204.8-204.8 204.8l-614.4 0q-204.8 0-204.8-204.8l0-614.4q0-204.8 204.8-204.8Z" fill="#62D256" /><path d="M243.2 213.3504h209.0496a29.8496 29.8496 0 0 1 0 59.6992H243.2a29.8496 29.8496 0 1 1 0-59.6992z m0 238.8992h209.0496a29.8496 29.8496 0 0 1 0 59.7504H243.2a29.8496 29.8496 0 0 1 0-59.7504zM273.0496 332.8h179.2a29.8496 29.8496 0 0 1 0 59.7504h-179.2a29.8496 29.8496 0 1 1 0-59.7504zM514.2528 482.3552a197.376 197.376 0 0 0-78.592 158.208c0 108.544 86.784 196.7104 194.1504 196.7104 107.3152 0 194.0992-88.2176 194.0992-196.7616 0-62.976-29.44-121.088-78.4384-158.0032a29.8496 29.8496 0 0 0-35.9424 47.7184 137.6768 137.6768 0 0 1 54.6816 110.2848c0 75.776-60.3136 137.0112-134.4 137.0112-74.1376 0-134.4-61.184-134.4-137.0112 0-44.1344 20.5824-84.6848 54.7328-110.3872a29.8496 29.8496 0 0 0-35.8912-47.7696z" fill="#FFFFFF" /><path d="M565.76 500.1216v-198.656c0-24.7808 27.5456-47.4112 64-47.4112 36.5056 0 64 22.6304 64 47.4112v198.656a29.8496 29.8496 0 1 0 59.7504 0v-198.656c0-60.6208-56.5248-107.1616-123.6992-107.1616-67.2256 0-123.7504 46.592-123.7504 107.1616v198.656a29.8496 29.8496 0 1 0 59.7504 0h-0.0512z" fill="#FFFFFF" /><path d="M629.76 522.8544a112.0256 112.0256 0 1 0 112.0256 111.9744 29.8496 29.8496 0 0 0-59.6992 0 52.224 52.224 0 1 1-52.2752-52.224 29.8496 29.8496 0 0 0 0-59.7504z" fill="#FFFFFF" /></svg>