<?xml version="1.0" standalone="no"?><!DOCTYPE svg PUBLIC "-//W3C//DTD SVG 1.1//EN" "http://www.w3.org/Graphics/SVG/1.1/DTD/svg11.dtd"><svg viewBox="0 0 1024 1024" version="1.1" xmlns="http://www.w3.org/2000/svg"><path d="M512 981.333333c259.2 0 469.333333-210.133333 469.333333-469.333333S771.2 42.666667 512 42.666667 42.666667 252.8 42.666667 512s210.133333 469.333333 469.333333 469.333333z m0-85.333333a384 384 0 1 1 0-768 384 384 0 0 1 0 768z" class="svg-fill-grey-500" /><path d="M413.141333 719.36a42.666667 42.666667 0 0 0 68.992 50.218667l193.365334-265.472a46.933333 46.933333 0 0 0-46.592-73.770667l-144.853334 27.136L616.192 281.6a42.666667 42.666667 0 0 0-68.224-51.285333l-191.488 254.848a46.933333 46.933333 0 0 0 46.165333 74.325333l146.944-27.52-136.448 187.306667z" class="svg-fill-grey-800" /></svg>
