<?xml version="1.0" standalone="no"?><!DOCTYPE svg PUBLIC "-//W3C//DTD SVG 1.1//EN" "http://www.w3.org/Graphics/SVG/1.1/DTD/svg11.dtd"><svg viewBox="0 0 1024 1024" version="1.1" xmlns="http://www.w3.org/2000/svg"><path d="M341.333333 256m-85.333333 0a85.333333 85.333333 0 1 0 170.666667 0 85.333333 85.333333 0 1 0-170.666667 0Z" class="svg-fill-grey-500" /><path d="M274.474667 341.333333m64 0l0 0q64 0 64 64l0 128q0 64-64 64l0 0q-64 0-64-64l0-128q0-64 64-64Z" class="svg-fill-grey-500" /><path d="M262.869333 616.277333l358.570667-376.448A85.333333 85.333333 0 0 1 683.264 213.333333H853.333333a128 128 0 0 1 128 128v54.442667a128 128 0 0 1-128 128h-95.914666l-344.064 362.368a85.333333 85.333333 0 0 1-61.866667 26.538667H170.666667a128 128 0 0 1-128-128v-40.405334a128 128 0 0 1 128-128h92.202666zM683.264 298.666667l-383.829333 402.944H170.666667a42.666667 42.666667 0 0 0-42.666667 42.666666v40.405334a42.666667 42.666667 0 0 0 42.666667 42.666666h180.778666l369.322667-388.906666H853.333333a42.666667 42.666667 0 0 0 42.666667-42.666667V341.333333a42.666667 42.666667 0 0 0-42.666667-42.666666h-170.069333z" class="svg-fill-grey-800" /><path d="M670.848 923.904l161.706667-169.088a42.666667 42.666667 0 1 0-61.653334-58.965333l-161.706666 169.088a42.666667 42.666667 0 0 0 61.653333 58.965333z" class="svg-fill-grey-500" /><path d="M801.322667 830.933333a42.666667 42.666667 0 0 0 85.333333 0v-185.344h-201.130667a42.666667 42.666667 0 0 0 0 85.333334h115.797334v100.010666z" class="svg-fill-grey-500" /></svg>
