<?xml version="1.0" standalone="no"?><!DOCTYPE svg PUBLIC "-//W3C//DTD SVG 1.1//EN"
        "http://www.w3.org/Graphics/SVG/1.1/DTD/svg11.dtd">
<svg viewBox="0 0 1024 1024" version="1.1"
     xmlns="http://www.w3.org/2000/svg">
    <path d="M512 938.666667c234.666667 0 426.666667-192 426.666667-426.666667S746.666667 85.333333 512 85.333333 85.333333 277.333333 85.333333 512s192 426.666667 426.666667 426.666667z m0-85.333334c-187.733333 0-341.333333-153.6-341.333333-341.333333s153.6-341.333333 341.333333-341.333333 341.333333 153.6 341.333333 341.333333-153.6 341.333333-341.333333 341.333333z"
          fill="#80A0BA"/>
    <path fill="#fff" d="M512 682.666667c-93.866667 0-170.666667-76.8-170.666667-170.666667s76.8-170.666667 170.666667-170.666667 170.666667 76.8 170.666667 170.666667-76.8 170.666667-170.666667 170.666667z m0-85.333334c46.933333 0 85.333333-38.4 85.333333-85.333333s-38.4-85.333333-85.333333-85.333333-85.333333 38.4-85.333333 85.333333 38.4 85.333333 85.333333 85.333333z"/>
    <path d="M512 21.333333c25.6 0 42.666667 17.066667 42.666667 42.666667v170.666667c0 25.6-17.066667 42.666667-42.666667 42.666666s-42.666667-17.066667-42.666667-42.666666v-170.666667c0-25.6 17.066667-42.666667 42.666667-42.666667zM512 750.933333c25.6 0 42.666667 17.066667 42.666667 42.666667v170.666667c0 25.6-17.066667 42.666667-42.666667 42.666666s-42.666667-17.066667-42.666667-42.666666v-170.666667c0-25.6 17.066667-42.666667 42.666667-42.666667zM746.666667 512c0-25.6 17.066667-42.666667 42.666666-42.666667h170.666667c25.6 0 42.666667 17.066667 42.666667 42.666667s-17.066667 42.666667-42.666667 42.666667h-170.666667c-25.6 0-42.666667-17.066667-42.666666-42.666667zM8.533333 507.733333c0-25.6 17.066667-42.666667 42.666667-42.666666h170.666667c25.6 0 42.666667 17.066667 42.666666 42.666666s-17.066667 42.666667-42.666666 42.666667h-170.666667c-21.333333 0-42.666667-17.066667-42.666667-42.666667z"
          fill="#80A0BA"/>
</svg>