<?xml version="1.0" standalone="no"?><!DOCTYPE svg PUBLIC "-//W3C//DTD SVG 1.1//EN"
        "http://www.w3.org/Graphics/SVG/1.1/DTD/svg11.dtd">
<svg viewBox="0 0 1024 1024" version="1.1"
     xmlns="http://www.w3.org/2000/svg">
    <path fill="#fff" d="M405.333333 524.8c-25.6 0-42.666667-25.6-29.866666-46.933333L473.6 256c8.533333-17.066667 29.866667-25.6 46.933333-17.066667 17.066667 8.533333 25.6 29.866667 17.066667 46.933334l-76.8 174.933333h145.066667c25.6 0 42.666667 25.6 29.866666 46.933333l-98.133333 230.4c-8.533333 17.066667-25.6 25.6-46.933333 17.066667-17.066667-8.533333-25.6-29.866667-17.066667-46.933333l76.8-183.466667H405.333333z"/>
    <path d="M477.866667 21.333333L119.466667 230.4c-21.333333 12.8-34.133333 34.133333-34.133334 59.733333v409.6c0 25.6 12.8 46.933333 34.133334 59.733334l354.133333 204.8c21.333333 12.8 46.933333 12.8 72.533333 0l354.133334-204.8c21.333333-12.8 34.133333-34.133333 34.133333-59.733334V290.133333c0-25.6-12.8-46.933333-34.133333-59.733333L546.133333 21.333333c-21.333333-12.8-46.933333-12.8-68.266666 0z m34.133333 76.8L853.333333 298.666667v396.8l-341.333333 196.266666-341.333333-196.266666V298.666667l341.333333-200.533334z"
          fill="#80A0BA"/>
</svg>