<?xml version="1.0" standalone="no"?><!DOCTYPE svg PUBLIC "-//W3C//DTD SVG 1.1//EN" "http://www.w3.org/Graphics/SVG/1.1/DTD/svg11.dtd"><svg viewBox="0 0 1024 1024" version="1.1" xmlns="http://www.w3.org/2000/svg"><path d="M0 0m204.8 0l614.4 0q204.8 0 204.8 204.8l0 614.4q0 204.8-204.8 204.8l-614.4 0q-204.8 0-204.8-204.8l0-614.4q0-204.8 204.8-204.8Z" fill="#F76B64" /><path d="M421.5296 521.6256a24.2688 24.2688 0 0 1-21.9136-34.304L468.8896 330.752a23.8592 23.8592 0 0 1 31.744-12.2368 24.4224 24.4224 0 0 1 12.032 32.1536l-54.1184 122.368h101.5296c17.2544 0 28.8768 17.92 22.016 33.9968l-69.2736 162.048a23.8592 23.8592 0 0 1-31.5392 12.5952 24.4224 24.4224 0 0 1-12.4928-31.9488l54.784-128.0512H421.5296z" fill="#FFFFFF" /><path d="M488.2944 192.2048a49.7664 49.7664 0 0 1 41.728-2.6624l5.6832 2.6624 263.8336 142.9504a49.7664 49.7664 0 0 1 25.7024 37.7344l0.3584 6.0416-0.1536 275.8144c0 16.384-7.9872 31.5392-21.1968 40.7552l-5.1712 3.1744-263.68 140.288a49.7664 49.7664 0 0 1-41.1648 2.5088l-5.632-2.56-263.7824-140.2368a49.7664 49.7664 0 0 1-26.0096-37.888l-0.3584-6.0416V378.88c0-16.2304 7.8848-31.2832 20.9408-40.5504l5.12-3.1744 263.7824-142.9504zM512 247.2448L258.1504 384.8192v263.936l253.7984 134.912 253.7472-134.912 0.1536-263.936L512 247.2448z" fill="#FFFFFF" /></svg>