<?xml version="1.0" standalone="no"?><!DOCTYPE svg PUBLIC "-//W3C//DTD SVG 1.1//EN" "http://www.w3.org/Graphics/SVG/1.1/DTD/svg11.dtd"><svg viewBox="0 0 1024 1024" version="1.1" xmlns="http://www.w3.org/2000/svg"><path d="M596.693333 573.653333h314.24c17.365333 0 31.445333 14.08 31.445334 31.445334v249.770666c0 17.365333-14.08 31.445333-31.445334 31.445334h-210.986666a15.701333 15.701333 0 0 0-8.661334 2.56l-77.312 50.901333a31.445333 31.445333 0 0 1-48.682666-26.24v-308.48c0-17.322667 14.08-31.402667 31.402666-31.402667z m32.597334 64v215.466667l26.837333-17.706667c13.013333-8.533333 28.245333-13.098667 43.818667-13.098666h178.432v-184.661334h-249.088z" class="svg-fill-grey-800" /><path d="M668.117333 676.522667m25.728 0l119.936 0q25.728 0 25.728 25.728l0-0.042667q0 25.728-25.728 25.728l-119.936 0q-25.728 0-25.728-25.728l0 0.042667q0-25.728 25.728-25.728Z" class="svg-fill-grey-800" /><path d="M668.117333 745.088m25.728 0l51.370667 0q25.728 0 25.728 25.728l0-0.042667q0 25.728-25.728 25.728l-51.370667 0q-25.728 0-25.728-25.728l0 0.042667q0-25.728 25.728-25.728Z" class="svg-fill-grey-800" /><path d="M480.256 565.589333A240.128 240.128 0 1 0 480.256 85.333333a240.128 240.128 0 0 0 0 480.256z m0-85.333333a154.794667 154.794667 0 1 1 0-309.589333 154.794667 154.794667 0 0 1 0 309.589333z" class="svg-fill-grey-500" /><path d="M480.256 480.256C238.592 480.256 42.666667 676.181333 42.666667 917.845333a42.666667 42.666667 0 1 0 85.333333 0 352.256 352.256 0 0 1 352.256-352.256 42.666667 42.666667 0 0 0 0-85.333333z" class="svg-fill-grey-500" /></svg>
