<?xml version="1.0" standalone="no"?><!DOCTYPE svg PUBLIC "-//W3C//DTD SVG 1.1//EN" "http://www.w3.org/Graphics/SVG/1.1/DTD/svg11.dtd"><svg viewBox="0 0 1024 1024" version="1.1" xmlns="http://www.w3.org/2000/svg"><path d="M996.693333 426.837333a42.666667 42.666667 0 1 1-84.181333 13.909334 405.461333 405.461333 0 0 0-799.573333-1.322667A42.666667 42.666667 0 0 1 28.757333 425.258667a490.794667 490.794667 0 0 1 967.936 1.578666zM29.226667 591.872a42.666667 42.666667 0 0 1 84.053333-14.634667 405.461333 405.461333 0 0 0 798.464 1.066667 42.666667 42.666667 0 0 1 84.053333 14.848 490.794667 490.794667 0 0 1-966.570666-1.28z" class="svg-fill-grey-500" /><path d="M307.285333 472.576a42.666667 42.666667 0 0 1 42.666667-42.666667h325.333333a42.666667 42.666667 0 1 1 0 85.333334H349.866667a42.666667 42.666667 0 0 1-42.666667-42.666667z" class="svg-fill-grey-800" /><path d="M655.616 492.288l-165.12-159.744a42.666667 42.666667 0 1 1 59.349333-61.312l197.76 191.317333a42.538667 42.538667 0 0 1-0.938666 62.208l-199.850667 182.016a42.666667 42.666667 0 1 1-57.472-63.104l166.272-151.424z" class="svg-fill-grey-800" /><path d="M307.2 447.957333m42.666667 0l0 0q42.666667 0 42.666666 42.666667l0 213.333333q0 42.666667-42.666666 42.666667l0 0q-42.666667 0-42.666667-42.666667l0-213.333333q0-42.666667 42.666667-42.666667Z" class="svg-fill-grey-800" /></svg>
