<?xml version="1.0" standalone="no"?><!DOCTYPE svg PUBLIC "-//W3C//DTD SVG 1.1//EN" "http://www.w3.org/Graphics/SVG/1.1/DTD/svg11.dtd"><svg viewBox="0 0 1024 1024" version="1.1" xmlns="http://www.w3.org/2000/svg"><path d="M0 0m204.8 0l614.4 0q204.8 0 204.8 204.8l0 614.4q0 204.8-204.8 204.8l-614.4 0q-204.8 0-204.8-204.8l0-614.4q0-204.8 204.8-204.8Z" fill="#26B9DA" /><path d="M780.8 183.4496c32.9728 0 59.7504 26.7776 59.7504 59.7504v392.5504c0 32.9728-26.7776 59.6992-59.7504 59.6992H243.2A59.7504 59.7504 0 0 1 183.4496 635.7504V243.2c0-32.9728 26.7776-59.7504 59.7504-59.7504h537.6z m0 59.7504H243.2v392.5504h537.6V243.2z" fill="#FFFFFF" /><path d="M307.2 345.6m25.6 0l358.4 0q25.6 0 25.6 25.6l0 0q0 25.6-25.6 25.6l-358.4 0q-25.6 0-25.6-25.6l0 0q0-25.6 25.6-25.6Z" fill="#FFFFFF" /><path d="M588.8 307.2m25.6 0l0 0q25.6 0 25.6 25.6l0 76.8q0 25.6-25.6 25.6l0 0q-25.6 0-25.6-25.6l0-76.8q0-25.6 25.6-25.6Z" fill="#FFFFFF" /><path d="M384 435.2m25.6 0l0 0q25.6 0 25.6 25.6l0 76.8q0 25.6-25.6 25.6l0 0q-25.6 0-25.6-25.6l0-76.8q0-25.6 25.6-25.6Z" fill="#FFFFFF" /><path d="M307.2 473.6m25.6 0l358.4 0q25.6 0 25.6 25.6l0 0q0 25.6-25.6 25.6l-358.4 0q-25.6 0-25.6-25.6l0 0q0-25.6 25.6-25.6Z" fill="#FFFFFF" /><path d="M256 760.4736m29.8496 0l452.3008 0q29.8496 0 29.8496 29.8496l0 0.0512q0 29.8496-29.8496 29.8496l-452.3008 0q-29.8496 0-29.8496-29.8496l0-0.0512q0-29.8496 29.8496-29.8496Z" fill="#FFFFFF" /></svg>