<?xml version="1.0" standalone="no"?><!DOCTYPE svg PUBLIC "-//W3C//DTD SVG 1.1//EN"
        "http://www.w3.org/Graphics/SVG/1.1/DTD/svg11.dtd">
<svg viewBox="0 0 1024 1024" version="1.1"
     xmlns="http://www.w3.org/2000/svg">
    <path d="M128 42.666667h264.533333c46.933333 0 85.333333 38.4 85.333334 85.333333v264.533333c0 46.933333-38.4 85.333333-85.333334 85.333334H128c-46.933333 0-85.333333-38.4-85.333333-85.333334V128c0-46.933333 38.4-85.333333 85.333333-85.333333z m0 85.333333v264.533333h264.533333V128H128zM631.466667 42.666667H896c46.933333 0 85.333333 38.4 85.333333 85.333333v264.533333c0 46.933333-38.4 85.333333-85.333333 85.333334h-264.533333c-46.933333 0-85.333333-38.4-85.333334-85.333334V128c0-46.933333 38.4-85.333333 85.333334-85.333333z m0 85.333333v264.533333H896V128h-264.533333zM128 546.133333h264.533333c46.933333 0 85.333333 38.4 85.333334 85.333334V896c0 46.933333-38.4 85.333333-85.333334 85.333333H128c-46.933333 0-85.333333-38.4-85.333333-85.333333v-264.533333c0-46.933333 38.4-85.333333 85.333333-85.333334z m0 85.333334V896h264.533333v-264.533333H128z"
          fill="#80A0BA"/>
    <path fill="#fff" d="M725.333333 601.6V597.333333c0-25.6 17.066667-42.666667 42.666667-42.666666s42.666667 17.066667 42.666667 42.666666v4.266667c17.066667 4.266667 29.866667 8.533333 42.666666 17.066667l4.266667-4.266667c17.066667-17.066667 42.666667-17.066667 59.733333 0s17.066667 42.666667 0 59.733333l-4.266666 4.266667c8.533333 12.8 12.8 29.866667 17.066666 42.666667h4.266667c25.6 0 42.666667 17.066667 42.666667 42.666666s-17.066667 42.666667-42.666667 42.666667h-4.266667c-4.266667 17.066667-8.533333 29.866667-17.066666 42.666667l4.266666 4.266666c17.066667 17.066667 17.066667 42.666667 0 59.733334s-42.666667 17.066667-59.733333 0l-4.266667-4.266667c-12.8 8.533333-29.866667 12.8-42.666666 17.066667v4.266666c0 25.6-17.066667 42.666667-42.666667 42.666667s-42.666667-17.066667-42.666667-42.666667v-4.266666c-17.066667-4.266667-29.866667-8.533333-42.666666-17.066667l-4.266667 4.266667c-17.066667 17.066667-42.666667 17.066667-59.733333 0s-17.066667-42.666667 0-59.733334l4.266666-4.266666c-8.533333-12.8-12.8-29.866667-17.066666-42.666667h-4.266667c-25.6 0-42.666667-17.066667-42.666667-42.666667s17.066667-42.666667 42.666667-42.666666h4.266667c4.266667-17.066667 8.533333-29.866667 17.066666-42.666667l-4.266666-4.266667c-17.066667-17.066667-17.066667-42.666667 0-59.733333s42.666667-17.066667 59.733333 0l4.266667 4.266667c12.8-8.533333 25.6-12.8 42.666666-17.066667z m42.666667 251.733333c29.866667 0 59.733333-17.066667 72.533333-42.666666 17.066667-25.6 17.066667-59.733333 0-85.333334s-42.666667-42.666667-72.533333-42.666666c-46.933333 0-85.333333 38.4-85.333333 85.333333s38.4 85.333333 85.333333 85.333333z"/>
</svg>