<?xml version="1.0" standalone="no"?><!DOCTYPE svg PUBLIC "-//W3C//DTD SVG 1.1//EN" "http://www.w3.org/Graphics/SVG/1.1/DTD/svg11.dtd"><svg viewBox="0 0 1024 1024" version="1.1" xmlns="http://www.w3.org/2000/svg"><path d="M512 981.333333a42.666667 42.666667 0 0 1-42.666667-42.666666V298.666667a42.666667 42.666667 0 0 1 85.333334 0v640a42.666667 42.666667 0 0 1-42.666667 42.666666z" class="svg-fill-grey-800" /><path d="M518.528 316.16l-275.541333 266.069333a42.666667 42.666667 0 1 1-59.306667-61.44L489.813333 225.365333a42.538667 42.538667 0 0 1 60.16 0.853334l291.242667 298.666666a42.666667 42.666667 0 0 1-61.098667 59.605334l-261.589333-268.245334z" class="svg-fill-grey-800" /><path d="M85.333333 42.666667m42.666667 0l768 0q42.666667 0 42.666667 42.666666l0 0q0 42.666667-42.666667 42.666667l-768 0q-42.666667 0-42.666667-42.666667l0 0q0-42.666667 42.666667-42.666666Z" class="svg-fill-grey-500" /></svg>
