<?xml version="1.0" standalone="no"?><!DOCTYPE svg PUBLIC "-//W3C//DTD SVG 1.1//EN" "http://www.w3.org/Graphics/SVG/1.1/DTD/svg11.dtd"><svg viewBox="0 0 1024 1024" version="1.1" xmlns="http://www.w3.org/2000/svg"><path d="M749.44 589.226667a38.997333 38.997333 0 0 1-27.605333-66.56l134.826666-134.656a156.16 156.16 0 0 0 0-220.8 156.586667 156.586667 0 0 0-221.056 0l-134.826666 134.656a39.04 39.04 0 0 1-55.253334-55.168l134.826667-134.656a234.965333 234.965333 0 0 1 331.52 0 234.24 234.24 0 0 1 0 331.136l-134.826667 134.656a38.997333 38.997333 0 0 1-27.605333 11.434666M276.992 980.181333a233.813333 233.813333 0 0 1-165.76-68.48 234.24 234.24 0 0 1 0-331.093333l137.301333-137.130667a39.04 39.04 0 0 1 55.210667 55.168L166.442667 635.733333a156.16 156.16 0 0 0 0 220.8 156.714667 156.714667 0 0 0 221.098666 0L524.8 719.36a38.997333 38.997333 0 1 1 55.253333 55.168l-137.258666 137.130667a233.898667 233.898667 0 0 1-165.802667 68.48" class="svg-fill-grey-500" /><path d="M394.325333 667.989333a38.997333 38.997333 0 0 1-27.605333-66.602666l234.410667-234.154667A39.04 39.04 0 0 1 656.384 422.4L421.973333 656.554667a38.997333 38.997333 0 0 1-27.605333 11.434666" class="svg-fill-grey-800" /></svg>
