<?xml version="1.0" standalone="no"?><!DOCTYPE svg PUBLIC "-//W3C//DTD SVG 1.1//EN" "http://www.w3.org/Graphics/SVG/1.1/DTD/svg11.dtd"><svg viewBox="0 0 1024 1024" version="1.1" xmlns="http://www.w3.org/2000/svg"><path fill="#ffffff" d="M508.202667 152.576c2.005333 0 3.968 0.213333 5.888 0.64h385.322666c42.410667 0 76.885333 34.474667 76.885334 76.842667v1.493333l-0.170667 1.450667-69.888 653.226666a76.970667 76.970667 0 0 1-76.842667 75.264H189.098667a76.970667 76.970667 0 0 1-76.842667-75.264L44.288 239.445333a28.074667 28.074667 0 1 1 54.912-4.138666l25.301333 240.896c40.192-24.362667 99.413333-53.76 151.466667-53.76 54.016 0 81.024 29.610667 100.736 51.2 17.706667 19.413333 27.136 28.757333 47.488 28.757333 34.986667 0 50.56-15.445333 70.314667-34.986667 20.224-20.053333 45.397333-44.928 91.050666-44.928 52.266667 0 79.317333 25.6 101.034667 46.208 19.882667 18.816 35.541333 33.706667 71.552 33.706667 43.52 0 115.072-49.877333 141.397333-70.912l21.717334-202.581333a21.888 21.888 0 0 0-21.845334-20.650667h-385.28a28.16 28.16 0 1 1-5.930666-55.68zM394.794667 197.717333c6.912 0.085333 10.709333 12.714667 39.594666 51.882667 17.322667 23.466667 33.792 43.050667 33.792 65.066667 0 39.594667-32.853333 71.68-73.386666 71.68s-73.386667-32.085333-73.386667-71.68c-0.128-22.186667 16.469333-40.96 31.061333-61.909334 28.757333-41.216 36.096-55.125333 42.325334-55.04zM215.978667 42.922667c6.826667 0.085333 10.666667 12.714667 39.552 51.882666 17.322667 23.466667 33.792 43.050667 33.792 65.066667 0 39.594667-32.853333 71.68-73.386667 71.68s-73.386667-32.085333-73.386667-71.68c-0.128-22.186667 16.469333-40.96 31.061334-61.866667 28.757333-41.258667 36.096-55.125333 42.368-55.082666z"  /></svg>