<?xml version="1.0" standalone="no"?><!DOCTYPE svg PUBLIC "-//W3C//DTD SVG 1.1//EN" "http://www.w3.org/Graphics/SVG/1.1/DTD/svg11.dtd"><svg viewBox="0 0 1024 1024" version="1.1" xmlns="http://www.w3.org/2000/svg"><path d="M108.757333 234.666667m-64 0a64 64 0 1 0 128 0 64 64 0 1 0-128 0Z" class="svg-fill-grey-800" /><path d="M106.666667 529.92m-64 0a64 64 0 1 0 128 0 64 64 0 1 0-128 0Z" class="svg-fill-grey-800" /><path d="M106.666667 830.976m-64 0a64 64 0 1 0 128 0 64 64 0 1 0-128 0Z" class="svg-fill-grey-800" /><path d="M237.866667 191.232m42.666666 0l640 0q42.666667 0 42.666667 42.666667l0 0q0 42.666667-42.666667 42.666666l-640 0q-42.666667 0-42.666666-42.666666l0 0q0-42.666667 42.666666-42.666667Z" class="svg-fill-grey-500" /><path d="M237.866667 489.898667m42.666666 0l640 0q42.666667 0 42.666667 42.666666l0 0q0 42.666667-42.666667 42.666667l-640 0q-42.666667 0-42.666666-42.666667l0 0q0-42.666667 42.666666-42.666666Z" class="svg-fill-grey-500" /><path d="M237.866667 788.565333m42.666666 0l640 0q42.666667 0 42.666667 42.666667l0 0q0 42.666667-42.666667 42.666667l-640 0q-42.666667 0-42.666666-42.666667l0 0q0-42.666667 42.666666-42.666667Z" class="svg-fill-grey-500" /></svg>
