<?xml version="1.0" standalone="no"?><!DOCTYPE svg PUBLIC "-//W3C//DTD SVG 1.1//EN" "http://www.w3.org/Graphics/SVG/1.1/DTD/svg11.dtd"><svg viewBox="0 0 1024 1024" version="1.1" xmlns="http://www.w3.org/2000/svg"><path d="M518.101333 518.101333m-79.232 0a79.232 79.232 0 1 0 158.464 0 79.232 79.232 0 1 0-158.464 0Z" class="svg-fill-grey-500" /><path d="M69.077333 554.666667h-20.309333a42.666667 42.666667 0 0 1 0-85.333334h20.309333a445.056 445.056 0 0 1 406.357334-400.810666V42.666667a42.666667 42.666667 0 0 1 85.333333 0v27.008A445.098667 445.098667 0 0 1 954.88 469.333333h8.106667a42.666667 42.666667 0 0 1 0 85.333334h-8.106667a445.098667 445.098667 0 0 1-394.154667 399.658666V981.333333a42.666667 42.666667 0 1 1-85.333333 0v-25.856A445.056 445.056 0 0 1 69.077333 554.666667z m85.802667-85.333334h27.989333a42.666667 42.666667 0 0 1 0 85.333334H154.88a359.765333 359.765333 0 0 0 320.554667 315.136v-22.570667a42.666667 42.666667 0 1 1 85.333333 0v21.12A359.808 359.808 0 0 0 869.12 554.666667h-40.149333a42.666667 42.666667 0 0 1 0-85.333334h40.106666a359.808 359.808 0 0 0-308.309333-313.685333v21.12a42.666667 42.666667 0 1 1-85.333333 0v-22.570667A359.765333 359.765333 0 0 0 154.88 469.333333z" class="svg-fill-grey-800" /></svg>
