<?xml version="1.0" standalone="no"?><!DOCTYPE svg PUBLIC "-//W3C//DTD SVG 1.1//EN" "http://www.w3.org/Graphics/SVG/1.1/DTD/svg11.dtd"><svg viewBox="0 0 1024 1024" version="1.1" xmlns="http://www.w3.org/2000/svg"><path d="M981.333333 136.533333m-42.666666 0l-853.333334 0q-42.666667 0-42.666666-42.666666l0 0q0-42.666667 42.666666-42.666667l853.333334 0q42.666667 0 42.666666 42.666667l0 0q0 42.666667-42.666666 42.666666Z" class="svg-fill-grey-500" /><path d="M436.650667 942.976l-336.469334-523.306667a89.6 89.6 0 0 1 75.392-138.069333L848.426667 281.6a89.6 89.6 0 0 1 75.392 138.069333L587.349333 942.933333a89.6 89.6 0 0 1-150.698666 0zM509.696 898.133333a4.266667 4.266667 0 0 0 5.888-1.28L852.053333 373.504a4.266667 4.266667 0 0 0-3.584-6.570667l-672.853333 0a4.266667 4.266667 0 0 0-3.584 6.570667L508.416 896.853333a4.266667 4.266667 0 0 0 1.28 1.28z" class="svg-fill-grey-800" /></svg>
