<?xml version="1.0" standalone="no"?>
<!DOCTYPE svg PUBLIC "-//W3C//DTD SVG 1.1//EN" "http://www.w3.org/Graphics/SVG/1.1/DTD/svg11.dtd">
<svg viewBox="0 0 1024 1024" version="1.1" xmlns="http://www.w3.org/2000/svg"
     xmlns:xlink="http://www.w3.org/1999/xlink">
    <path d="M481.088 962.112C215.808 962.112 0 746.304 0 481.088 0 215.808 215.808 0 481.088 0c265.216 0 481.024 215.808 481.024 481.088 0 265.216-215.808 481.024-481.024 481.024z m0-892.928A412.352 412.352 0 0 0 69.12 481.088a412.352 412.352 0 0 0 411.904 411.904 412.352 412.352 0 0 0 411.904-411.904A412.352 412.352 0 0 0 481.088 69.12z"
          class="svg-fill-grey-800"></path>
    <path d="M589.44 627.712l-2.56-3.84-8.32-3.648h-3.84c-4.352 0-9.216 1.152-24.32 8.576l-24.256 16.384a106.88 106.88 0 0 1-21.888 10.496c-8.32 2.944-17.152 5.312-26.176 6.912-6.208 1.152-11.136 1.984-16.576 1.728-7.488-0.896-9.6-3.84-10.368-4.992-2.24-3.136-3.072-9.024-2.24-16.64 1.152-11.136 4.352-26.368 9.408-45.312a670.72 670.72 0 0 1 32.384-95.36 348.16 348.16 0 0 1 15.488-33.28c3.52-6.208 8.768-13.056 15.616-20.48 6.528-7.104 21.76-23.808 12.992-39.808-4.736-8.64-13.184-13.824-26.368-14.72-6.4 0-13.568 1.472-21.76 4.288a125.056 125.056 0 0 0-16 6.464c-2.24 1.216-5.632 3.392-20.544 15.616-14.848 12.096-19.008 16.896-21.248 21.12-2.112 4.096-3.84 9.856-5.056 24.576-0.448 5.504-2.56 16.384-10.112 37.824l-21.504 68.864-17.28 47.552a124.8 124.8 0 0 0-5.184 42.88c0.96 12.288 3.392 23.808 7.36 34.048 4.288 11.456 10.304 20.8 17.856 27.712a54.4 54.4 0 0 0 29.568 14.016 56.96 56.96 0 0 0 10.112 0.832c9.216 0 19.904-1.856 32.832-5.696 16-4.736 29.248-9.6 40.32-14.656 11.136-4.992 21.632-10.88 31.168-17.408 8.704-5.952 17.728-12.352 26.88-19.328 11.904-8.832 19.392-17.92 23.04-27.904 3.072-8.512 6.528-18.24 0.64-26.816zM450.752 334.848a34.432 34.432 0 0 0 20.672 7.68c9.728 0.96 23.168-4.864 40.384-17.472 17.152-12.608 26.24-22.592 27.264-30.08 0.96-7.552-1.6-19.2-7.68-34.944-6.08-15.744-11.712-25.792-17.024-30.144a32.576 32.576 0 0 0-18.88-7.232c-14.08-0.512-26.688 5.888-37.824 19.2s-18.304 24-21.44 32a54.976 54.976 0 0 0-4.736 17.024 52.352 52.352 0 0 0 5.12 22.912c3.84 9.472 8.576 16.512 14.08 21.12z"
          class="svg-fill-grey-500"></path>
</svg>
