<?xml version="1.0" standalone="no"?><!DOCTYPE svg PUBLIC "-//W3C//DTD SVG 1.1//EN"
        "http://www.w3.org/Graphics/SVG/1.1/DTD/svg11.dtd">
<svg viewBox="0 0 1024 1024" version="1.1"
     xmlns="http://www.w3.org/2000/svg">
    <path d="M128 42.666667h264.533333c46.933333 0 85.333333 38.4 85.333334 85.333333v264.533333c0 46.933333-38.4 85.333333-85.333334 85.333334H128c-46.933333 0-85.333333-38.4-85.333333-85.333334V128c0-46.933333 38.4-85.333333 85.333333-85.333333z m0 85.333333v264.533333h264.533333V128H128z"
          fill="#80A0BA"/>
    <path fill="#fff" d="M631.466667 42.666667H896c46.933333 0 85.333333 38.4 85.333333 85.333333v264.533333c0 46.933333-38.4 85.333333-85.333333 85.333334h-264.533333c-46.933333 0-85.333333-38.4-85.333334-85.333334V128c0-46.933333 38.4-85.333333 85.333334-85.333333z m0 85.333333v264.533333H896V128h-264.533333z"/>
    <path d="M128 546.133333h264.533333c46.933333 0 85.333333 38.4 85.333334 85.333334V896c0 46.933333-38.4 85.333333-85.333334 85.333333H128c-46.933333 0-85.333333-38.4-85.333333-85.333333v-264.533333c0-46.933333 38.4-85.333333 85.333333-85.333334z m0 85.333334V896h264.533333v-264.533333H128zM631.466667 546.133333H896c46.933333 0 85.333333 38.4 85.333333 85.333334V896c0 46.933333-38.4 85.333333-85.333333 85.333333h-264.533333c-46.933333 0-85.333333-38.4-85.333334-85.333333v-264.533333c0-46.933333 38.4-85.333333 85.333334-85.333334z m0 85.333334V896H896v-264.533333h-264.533333z"
          fill="#80A0BA"/>
</svg>