<?xml version="1.0" standalone="no"?><!DOCTYPE svg PUBLIC "-//W3C//DTD SVG 1.1//EN"
        "http://www.w3.org/Graphics/SVG/1.1/DTD/svg11.dtd">
<svg viewBox="0 0 1070 1024" version="1.1"
     xmlns="http://www.w3.org/2000/svg">
    <path d="M555.101091 26.391273l505.949091 910.661818a50.594909 50.594909 0 0 1-44.357818 75.217454h-354.164364v-101.189818h268.241455l-419.886546-755.898182L428.078545 303.941818H312.459636L466.618182 26.391273a50.594909 50.594909 0 0 1 88.436363 0z"
          class="svg-fill-grey-500"/>
    <path d="M101.934545 354.536727h404.805819a101.189818 101.189818 0 0 1 101.143272 101.189818v455.354182a101.189818 101.189818 0 0 1-101.143272 101.189818H101.934545a101.189818 101.189818 0 0 1-101.189818-101.189818V455.68c0-55.854545 45.288727-101.189818 101.189818-101.189818z m0 556.544h404.805819V455.68H101.934545v455.354182z"
          class="svg-fill-grey-800"/>
    <path d="M506.740364 708.701091V809.890909H101.934545v-101.189818h404.759273z m0-151.784727v101.189818H101.934545v-101.189818h404.759273z"
          class="svg-fill-grey-500"/>
</svg>
