<?xml version="1.0" standalone="no"?><!DOCTYPE svg PUBLIC "-//W3C//DTD SVG 1.1//EN"
        "http://www.w3.org/Graphics/SVG/1.1/DTD/svg11.dtd">
<svg viewBox="0 0 1028 1024" version="1.1"
     xmlns="http://www.w3.org/2000/svg">
    <path d="M938.837333 726.101333v140.8h-853.333333v-140.8c98.133333-21.333333 170.666667-110.933333 170.666667-217.6s-72.533333-196.266667-170.666667-217.6v-140.8h853.333333v140.8c-98.133333 21.333333-170.666667 115.2-170.666666 217.6 0 106.666667 72.533333 196.266667 170.666666 217.6m42.666667-354.133333h42.666667v-221.866667c0-51.2-38.4-89.6-85.333334-89.6h-853.333333c-46.933333 0-85.333333 38.4-85.333333 89.6v226.133334h42.666666c72.533333 0 128 59.733333 128 136.533333 0 72.533333-55.466667 136.533333-128 136.533333h-42.666666v226.133334c0 51.2 38.4 89.6 85.333333 89.6h853.333333c46.933333 0 85.333333-38.4 85.333334-89.6v-226.133334h-42.666667c-72.533333 0-128-59.733333-128-136.533333s55.466667-140.8 128-140.8"
          fill="#80A0BA"/>
    <path fill="#fff" d="M640.170667 525.568c17.066667 0 29.866667-12.8 29.866666-29.866667s-12.8-29.866667-29.866666-29.866666h-85.333334l85.333334-89.6c8.533333-8.533333 8.533333-21.333333 8.533333-29.866667-4.266667-12.8-12.8-21.333333-21.333333-21.333333-8.533333-4.266667-21.333333 0-29.866667 8.533333l-85.333333 89.6-85.333334-93.866667c-12.8-12.8-29.866667-12.8-42.666666 0s-12.8 34.133333 0 42.666667l85.333333 89.6h-85.333333c-17.066667 0-29.866667 12.8-29.866667 29.866667s12.8 29.866667 29.866667 29.866666h98.133333v72.533334h-98.133333c-8.533333 0-21.333333 4.266667-25.6 17.066666-4.266667 8.533333-4.266667 21.333333 0 29.866667s17.066667 17.066667 25.6 17.066667h98.133333v25.6c0 17.066667 12.8 29.866667 29.866667 29.866666s29.866667-12.8 29.866666-29.866666v-25.6h98.133334c8.533333 0 21.333333-4.266667 25.6-17.066667 4.266667-8.533333 4.266667-21.333333 0-29.866667s-17.066667-17.066667-25.6-17.066666h-98.133334v-72.533334h98.133334v4.266667z"/>
</svg>