<?xml version="1.0" standalone="no"?><!DOCTYPE svg PUBLIC "-//W3C//DTD SVG 1.1//EN" "http://www.w3.org/Graphics/SVG/1.1/DTD/svg11.dtd"><svg viewBox="0 0 1024 1024" version="1.1" xmlns="http://www.w3.org/2000/svg"><path d="M642.261333 306.218667l-130.602666 120.192L381.013333 306.218667a39.253333 39.253333 0 0 0-52.266666 0 32.128 32.128 0 0 0 0 48.128l117.802666 108.373333h-62.72c-20.437333 0-36.949333 15.189333-36.949333 34.048 0 18.730667 16.512 34.005333 36.949333 34.005333h92.16v54.058667H383.104c-22.058667 0-39.936 16.512-39.936 36.821333 0 20.266667 17.92 36.693333 39.936 36.693334h92.885333v73.728c0 18.858667 16.512 34.005333 36.949334 34.005333s36.949333-15.146667 36.949333-34.005333v-73.770667h92.032c22.016 0 39.893333-16.384 39.893333-36.650667 0-20.309333-17.877333-36.821333-39.893333-36.821333h-92.032V530.773333h92.714667c20.48 0 36.992-15.274667 36.992-34.005333 0-18.858667-16.554667-34.005333-36.992-34.005333h-65.877334l117.802667-108.416a32.128 32.128 0 0 0 0-48.128 39.253333 39.253333 0 0 0-52.266667 0z" class="svg-fill-grey-800" /><path d="M128 42.666667h768a85.333333 85.333333 0 0 1 85.333333 85.333333v768a85.333333 85.333333 0 0 1-85.333333 85.333333H128a85.333333 85.333333 0 0 1-85.333333-85.333333V128a85.333333 85.333333 0 0 1 85.333333-85.333333z m0 85.333333v768h768V128H128z" class="svg-fill-grey-500" /></svg>
