<?xml version="1.0" standalone="no"?><!DOCTYPE svg PUBLIC "-//W3C//DTD SVG 1.1//EN" "http://www.w3.org/Graphics/SVG/1.1/DTD/svg11.dtd"><svg viewBox="0 0 1024 1024" version="1.1" xmlns="http://www.w3.org/2000/svg"><path d="M0 0m204.8 0l614.4 0q204.8 0 204.8 204.8l0 614.4q0 204.8-204.8 204.8l-614.4 0q-204.8 0-204.8-204.8l0-614.4q0-204.8 204.8-204.8Z" fill="#DB66DB" /><path d="M780.8 183.4496c32.9728 0 59.7504 26.7776 59.7504 59.7504v537.6c0 32.9728-26.7776 59.7504-59.7504 59.7504H243.2a59.7504 59.7504 0 0 1-59.7504-59.7504V243.2c0-32.9728 26.7776-59.7504 59.7504-59.7504h537.6z m0 59.7504H243.2v537.6h537.6V243.2z" fill="#FFFFFF" /><path d="M819.8656 406.3232v59.7504H229.376V406.3232z" fill="#FFFFFF" /><path d="M284.5184 284.5184h75.8272v75.8272h-75.776zM410.88 284.5184h75.8272v75.8272h-75.776zM537.2416 284.5184h75.8272v75.8272h-75.776z" fill="#FFFFFF" /></svg>