<?xml version="1.0" standalone="no"?><!DOCTYPE svg PUBLIC "-//W3C//DTD SVG 1.1//EN" "http://www.w3.org/Graphics/SVG/1.1/DTD/svg11.dtd"><svg viewBox="0 0 1024 1024" version="1.1" xmlns="http://www.w3.org/2000/svg"><path d="M0 0m204.8 0l614.4 0q204.8 0 204.8 204.8l0 614.4q0 204.8-204.8 204.8l-614.4 0q-204.8 0-204.8-204.8l0-614.4q0-204.8 204.8-204.8Z" fill="#AD82F7" /><path d="M387.584 153.6m29.8496 0l0.0512 0q29.8496 0 29.8496 29.8496l0 62.976q0 29.8496-29.8496 29.8496l-0.0512 0q-29.8496 0-29.8496-29.8496l0-62.976q0-29.8496 29.8496-29.8496Z" fill="#FFFFFF" /><path d="M586.7008 153.6m29.8496 0l0.0512 0q29.8496 0 29.8496 29.8496l0 62.976q0 29.8496-29.8496 29.8496l-0.0512 0q-29.8496 0-29.8496-29.8496l0-62.976q0-29.8496 29.8496-29.8496Z" fill="#FFFFFF" /><path d="M478.464 375.1936m29.8496 0l0.0512 0q29.8496 0 29.8496 29.8496l0 161.1264q0 29.8496-29.8496 29.8496l-0.0512 0q-29.8496 0-29.8496-29.8496l0-161.1264q0-29.8496 29.8496-29.8496Z" fill="#FFFFFF" /><path d="M510.8736 663.6544m-51.2 0a51.2 51.2 0 1 0 102.4 0 51.2 51.2 0 1 0-102.4 0Z" fill="#FFFFFF" /><path d="M750.9504 251.7504c32.9728 0 59.7504 26.7264 59.7504 59.6992v469.3504c0 32.9728-26.7776 59.7504-59.7504 59.7504H273.1008A59.7504 59.7504 0 0 1 213.3504 780.8V311.4496c0-32.9728 26.7264-59.6992 59.7504-59.6992H750.9504z m0 59.6992H273.1008v469.3504H750.9504V311.4496z" fill="#FFFFFF" /></svg>