<?xml version="1.0" standalone="no"?><!DOCTYPE svg PUBLIC "-//W3C//DTD SVG 1.1//EN" "http://www.w3.org/Graphics/SVG/1.1/DTD/svg11.dtd"><svg viewBox="0 0 1024 1024" version="1.1" xmlns="http://www.w3.org/2000/svg"><path d="M512 696.874667c101.632 0 183.466667-84.309333 183.466667-187.733334 0-103.381333-81.834667-187.733333-183.466667-187.733333-101.632 0-183.466667 84.352-183.466667 187.733333 0 103.424 81.834667 187.733333 183.466667 187.733334z m0-85.333334c-53.888 0-98.133333-45.568-98.133333-102.4 0-56.832 44.245333-102.4 98.133333-102.4s98.133333 45.568 98.133333 102.4c0 56.832-44.245333 102.4-98.133333 102.4z" class="svg-fill-grey-500" /><path d="M507.136 938.666667c186.368 0 348.16-124.544 485.162667-366.506667 13.653333-24.106667 13.653333-53.546667 0-77.653333C855.296 252.586667 693.504 128 507.136 128 320.341333 128 160.938667 253.056 29.354667 495.786667a78.762667 78.762667 0 0 0 0 75.093333C160.938667 813.610667 320.341333 938.666667 507.136 938.666667z m0-725.333334c149.888 0 286.208 104.362667 409.088 320-122.88 215.637333-259.2 320-409.088 320-149.76 0-283.349333-104.234667-401.066667-320 117.76-215.765333 251.306667-320 401.066667-320z" class="svg-fill-grey-800" /></svg>
