<?xml version="1.0" standalone="no"?><!DOCTYPE svg PUBLIC "-//W3C//DTD SVG 1.1//EN" "http://www.w3.org/Graphics/SVG/1.1/DTD/svg11.dtd"><svg viewBox="0 0 1024 1024" version="1.1" xmlns="http://www.w3.org/2000/svg"><path d="M812.586667 922.453333H137.002667C122.794667 922.453333 112.128 912.384 112.128 901.12v-768c0-11.264 10.666667-21.333333 24.874667-21.333333h675.584c14.250667 0 24.874667 10.069333 24.874666 21.333333v301.738667a42.666667 42.666667 0 0 0 85.333334 0V133.12C922.794667 73.685333 872.96 26.453333 812.586667 26.453333H137.002667C76.629333 26.453333 26.794667 73.685333 26.794667 133.12v768C26.794667 960.554667 76.629333 1007.786667 137.002667 1007.786667h675.584a42.666667 42.666667 0 0 0 0-85.333334z" class="svg-fill-grey-500" /><path d="M213.333333 213.376m42.666667 0l344.874667 0q42.666667 0 42.666666 42.666667l0 0q0 42.666667-42.666666 42.666666l-344.874667 0q-42.666667 0-42.666667-42.666666l0 0q0-42.666667 42.666667-42.666667Z" class="svg-fill-grey-500" /><path d="M213.333333 408.917333m42.666667 0l344.874667 0q42.666667 0 42.666666 42.666667l0 0q0 42.666667-42.666666 42.666667l-344.874667 0q-42.666667 0-42.666667-42.666667l0 0q0-42.666667 42.666667-42.666667Z" class="svg-fill-grey-500" /><path d="M794.794667 902.4a202.666667 202.666667 0 1 0 0-405.333333 202.666667 202.666667 0 0 0 0 405.333333z m0-64a138.666667 138.666667 0 1 1 0-277.333333 138.666667 138.666667 0 0 1 0 277.333333z" class="svg-fill-grey-800" /><path d="M748.117333 615.850667m28.16 0l0 0q28.16 0 28.16 28.16l0 80.213333q0 28.16-28.16 28.16l0 0q-28.16 0-28.16-28.16l0-80.213333q0-28.16 28.16-28.16Z" class="svg-fill-grey-800" /><path d="M890.709333 698.197333m0 28.16l0 0q0 28.16-28.16 28.16l-85.888 0q-28.16 0-28.16-28.16l0 0q0-28.16 28.16-28.16l85.888 0q28.16 0 28.16 28.16Z" class="svg-fill-grey-800" /></svg>
