<?xml version="1.0" standalone="no"?><!DOCTYPE svg PUBLIC "-//W3C//DTD SVG 1.1//EN" "http://www.w3.org/Graphics/SVG/1.1/DTD/svg11.dtd"><svg viewBox="0 0 1024 1024" version="1.1" xmlns="http://www.w3.org/2000/svg"><path d="M211.498667 181.717333A127.573333 127.573333 0 0 0 128 301.397333V981.333333h512V206.933333a127.573333 127.573333 0 0 0-171.52-119.68L211.456 181.717333zM554.666667 896h-341.333334V301.397333a42.24 42.24 0 0 1 27.648-39.594666l256.896-94.464a42.24 42.24 0 0 1 56.746667 39.637333V896z" class="svg-fill-grey-800" /><path d="M554.666667 106.965333l262.357333 108.032a127.573333 127.573333 0 0 1 78.933333 117.930667V981.333333h-341.333333V106.965333z m85.333333 127.402667V896h170.666667V332.928a42.24 42.24 0 0 0-26.154667-39.04L640 234.368z" class="svg-fill-grey-800" /><path d="M39.381333 896.042667m42.666667 0l853.333333 0q42.666667 0 42.666667 42.666666l0 0q0 42.666667-42.666667 42.666667l-853.333333 0q-42.666667 0-42.666667-42.666667l0 0q0-42.666667 42.666667-42.666666Z" class="svg-fill-grey-500" /><path d="M256 341.333333h85.333333v85.333334h-85.333333zM256 469.333333h85.333333v85.333334h-85.333333zM256 597.333333h85.333333v85.333334h-85.333333zM426.666667 341.333333h85.333333v85.333334h-85.333333zM682.666667 341.333333h85.333333v85.333334h-85.333333zM426.666667 469.333333h85.333333v85.333334h-85.333333zM682.666667 469.333333h85.333333v85.333334h-85.333333zM426.666667 597.333333h85.333333v85.333334h-85.333333zM682.666667 597.333333h85.333333v85.333334h-85.333333z" class="svg-fill-grey-500" /></svg>
