<?xml version="1.0" standalone="no"?><!DOCTYPE svg PUBLIC "-//W3C//DTD SVG 1.1//EN" "http://www.w3.org/Graphics/SVG/1.1/DTD/svg11.dtd"><svg viewBox="0 0 1024 1024" version="1.1" xmlns="http://www.w3.org/2000/svg"><path d="M974.592 758.741333a42.666667 42.666667 0 1 1-84.053333-14.72 365.866667 365.866667 0 0 0-58.624-269.738666 42.666667 42.666667 0 0 1 70.4-48.213334 449.322667 449.322667 0 0 1 72.277333 332.672z m-242.346667-483.029333a42.666667 42.666667 0 1 1-39.381333 75.690667A390.826667 390.826667 0 0 0 512 307.498667c-212.309333 0-384 167.381333-384 373.333333 0 22.186667 1.962667 44.074667 5.888 65.536a42.666667 42.666667 0 0 1-83.968 15.274667A451.029333 451.029333 0 0 1 42.666667 680.832c0-253.568 210.346667-458.666667 469.333333-458.666667 77.824 0 152.96 18.56 220.245333 53.546667z" class="svg-fill-grey-500" /><path d="M497.792 806.186667a170.666667 170.666667 0 1 0 0-341.333334 170.666667 170.666667 0 0 0 0 341.333334z m0-85.333334a85.333333 85.333333 0 1 1 0-170.666666 85.333333 85.333333 0 0 1 0 170.666666z" class="svg-fill-grey-800" /><path d="M864.128 307.029333a39.125333 39.125333 0 0 1 0 56.021334l-216.96 211.242666a41.173333 41.173333 0 0 1-57.472 0 39.125333 39.125333 0 0 1 0.042667-56.064l216.96-211.242666a41.173333 41.173333 0 0 1 57.429333 0z" class="svg-fill-grey-800" /></svg>
