<?xml version="1.0" standalone="no"?><!DOCTYPE svg PUBLIC "-//W3C//DTD SVG 1.1//EN" "http://www.w3.org/Graphics/SVG/1.1/DTD/svg11.dtd"><svg viewBox="0 0 1024 1024" version="1.1" xmlns="http://www.w3.org/2000/svg"><path d="M848.213333 453.632c76.672 0 137.472-65.706667 137.472-145.109333 0-69.504-90.88-225.792-140.330666-223.146667-46.037333 0-134.656 154.282667-134.656 223.146667 0 79.402667 60.8 145.066667 137.472 145.066666z m15.232-235.434667c22.272 38.314667 36.906667 74.666667 36.906667 90.325334 0 33.706667-24.149333 59.733333-52.181333 59.733333-28.032 0-52.138667-26.026667-52.138667-59.733333 0-15.786667 14.378667-52.053333 36.352-90.24 5.077333-8.874667 10.368-17.493333 15.445333-25.258667 5.12 7.765333 10.453333 16.341333 15.616 25.173333z" class="svg-fill-grey-500" /><path d="M374.101333 985.685333c180.608 0 327.125333-145.749333 327.125334-325.632 0-154.709333-246.613333-545.365333-330.837334-541.184-82.005333 0-323.413333 386.901333-323.413333 541.184 0 179.882667 146.517333 325.632 327.125333 325.632zM372.736 212.352c7.978667 7.808 17.706667 18.517333 28.586667 31.573333 28.373333 34.048 61.824 80.682667 93.141333 130.304 73.472 116.394667 121.429333 226.133333 121.429333 285.866667 0 132.608-108.202667 240.213333-241.792 240.213333-133.546667 0-241.749333-107.605333-241.749333-240.213333 0-59.904 47.146667-169.344 119.466667-285.354667 30.890667-49.493333 63.914667-96 92.074666-130.176 10.965333-13.312 20.778667-24.234667 28.842667-32.213333z" class="svg-fill-grey-800" /><path d="M491.946667 641.408c-16.213333 72.96-45.781333 108.288-89.472 115.541333a42.666667 42.666667 0 0 0 14.037333 84.181334c82.432-13.738667 135.637333-77.312 158.72-181.205334a42.666667 42.666667 0 1 0-83.285333-18.517333z" class="svg-fill-grey-500" /></svg>
