<?xml version="1.0" standalone="no"?><!DOCTYPE svg PUBLIC "-//W3C//DTD SVG 1.1//EN" "http://www.w3.org/Graphics/SVG/1.1/DTD/svg11.dtd"><svg viewBox="0 0 1024 1024" version="1.1" xmlns="http://www.w3.org/2000/svg"><path d="M453.973333 762.453333L904.832 208.981333a42.666667 42.666667 0 0 0-66.133333-53.888L368.64 732.117333v222.293334a42.666667 42.666667 0 1 0 85.333333 0V762.453333z" class="svg-fill-grey-500" /><path d="M981.333333 81.152A38.613333 38.613333 0 0 0 942.848 42.666667a37.333333 37.333333 0 0 0-19.242667 5.290666L63.36 501.930667a39.125333 39.125333 0 0 0-20.693333 34.56c0 14.464 8.192 27.434667 21.162666 34.176l223.232 122.154666c5.802667 2.389333 12.032 3.84 17.322667 3.84 14.933333 0 27.904-8.192 34.645333-21.162666a39.552 39.552 0 0 0-17.322666-51.925334l-155.861334-88.021333 624.469334-330.837333L891.733333 153.258667l-88.832 706.432-234.794666-112.042667a32.298667 32.298667 0 0 0-16.853334-3.84 38.229333 38.229333 0 0 0-34.645333 21.632 38.784 38.784 0 0 0-1.92 29.312 36.693333 36.693333 0 0 0 19.242667 22.144l283.392 133.674667c4.821333 2.858667 10.581333 3.84 16.810666 3.84a40.405333 40.405333 0 0 0 17.834667-4.309334 37.418667 37.418667 0 0 0 20.181333-28.416L981.333333 85.930667v-4.778667z" class="svg-fill-grey-800" /></svg>
