<?xml version="1.0" standalone="no"?><!DOCTYPE svg PUBLIC "-//W3C//DTD SVG 1.1//EN"
        "http://www.w3.org/Graphics/SVG/1.1/DTD/svg11.dtd">
<svg viewBox="0 0 1026 1024" version="1.1"
     xmlns="http://www.w3.org/2000/svg">
    <path d="M123.252417 739.482071l283.596959-283.59696-60.339778-60.339778-287.639725 287.639725c-30.893967 30.893967-31.708554 80.945813-0.814587 111.839779l177.27827 177.27827c30.863797 30.863797 80.945813 30.07938 111.839779-0.814587l287.609555-287.609555-60.339778-60.339779-283.59696 283.59696L123.192077 739.482071z"
          class="svg-fill-grey-500"/>
    <path d="M717.750086 223.245095L782.856707 157.897114l122.580261 121.373465-62.330992 62.572351-109.06415 44.560926c-10.257762 4.223785-19.519918 10.468952-27.27358 18.403633l-144.755129 148.375515 61.063856 59.615702 144.121562-147.741948 109.03398-44.530757c9.986233-4.072935 19.06737-10.137083 26.670182-17.800235l123.364677-123.847395-243.863215-241.449625-125.717929 126.260987c-7.451963 7.451963-13.365261 16.38225-17.408026 26.096954l-44.560927 107.615996-136.971297 137.574695 60.460458 60.219099 137.604865-138.208263c7.482133-7.482133 13.365261-16.38225 17.438196-26.127124L717.719916 223.214925z"
          class="svg-fill-grey-800"/>
    <path d="M320.985871 265.45277m30.16989 30.169889l395.557419 395.557419q30.169889 30.169889 0 60.339779l0 0q-30.169889 30.169889-60.339779 0l-395.557419-395.557419q-30.169889-30.169889 0-60.339779l0 0q30.169889-30.169889 60.339779 0Z"
          class="svg-fill-grey-500"/>
    <path d="M222.239824 728.349382a42.666667 42.666667 0 0 1 60.309608 1.055946l24.73931 25.584066a42.666667 42.666667 0 0 1-61.365555 59.253663l-24.73931-25.644406a42.624 42.624 0 0 1 1.025777-60.279439z"
          class="svg-fill-grey-500"/>
</svg>
