<?xml version="1.0" standalone="no"?><!DOCTYPE svg PUBLIC "-//W3C//DTD SVG 1.1//EN" "http://www.w3.org/Graphics/SVG/1.1/DTD/svg11.dtd"><svg viewBox="0 0 1024 1024" version="1.1" xmlns="http://www.w3.org/2000/svg"><path d="M128 42.666667h775.253333C946.346667 42.666667 981.333333 77.653333 981.333333 120.746667v589.653333c0 43.093333-34.986667 78.08-78.08 78.08H377.472a39.253333 39.253333 0 0 0-20.906667 6.058667L162.346667 916.906667A78.08 78.08 0 0 1 42.666667 850.901333V128a85.333333 85.333333 0 0 1 85.333333-85.333333z m768 85.333333H128v709.76l183.04-115.413333a124.586667 124.586667 0 0 1 66.432-19.2H896V128z" class="svg-fill-grey-500" /><path d="M238.208 278.186667m42.666667 0l462.208 0q42.666667 0 42.666666 42.666666l0 0q0 42.666667-42.666666 42.666667l-462.208 0q-42.666667 0-42.666667-42.666667l0 0q0-42.666667 42.666667-42.666666Z" class="svg-fill-grey-800" /><path d="M238.208 474.453333m42.666667 0l305.792 0q42.666667 0 42.666666 42.666667l0 0q0 42.666667-42.666666 42.666667l-305.792 0q-42.666667 0-42.666667-42.666667l0 0q0-42.666667 42.666667-42.666667Z" class="svg-fill-grey-800" /></svg>
