<?xml version="1.0" standalone="no"?><!DOCTYPE svg PUBLIC "-//W3C//DTD SVG 1.1//EN" "http://www.w3.org/Graphics/SVG/1.1/DTD/svg11.dtd"><svg viewBox="0 0 1024 1024" version="1.1" xmlns="http://www.w3.org/2000/svg"><path d="M983.125333 469.333333m0 42.666667l0 0q0 42.666667-42.666666 42.666667l-810.666667 0q-42.666667 0-42.666667-42.666667l0 0q0-42.666667 42.666667-42.666667l810.666667 0q42.666667 0 42.666666 42.666667Z" class="svg-fill-grey-500" /><path d="M501.333333 865.834667a42.666667 42.666667 0 1 1-60.373333 60.330666l-385.792-385.962666a42.666667 42.666667 0 0 1-10.538667-43.050667 42.496 42.496 0 0 1 12.757334-26.496l384-373.248a42.666667 42.666667 0 1 1 59.477333 61.184l-358.357333 348.288 358.826666 358.954667z" class="svg-fill-grey-800" /></svg>
