<?xml version="1.0" standalone="no"?><!DOCTYPE svg PUBLIC "-//W3C//DTD SVG 1.1//EN" "http://www.w3.org/Graphics/SVG/1.1/DTD/svg11.dtd"><svg viewBox="0 0 1024 1024" version="1.1" xmlns="http://www.w3.org/2000/svg"><path d="M153.002667 345.856h446.122666c161.834667 0 291.242667 115.712 291.242667 256 0 140.245333-129.408 256-291.242667 256H148.309333a42.666667 42.666667 0 0 0 0 85.333333h450.816c206.976 0 376.576-151.722667 376.576-341.333333 0-189.653333-169.6-341.333333-376.576-341.333333H153.002667a42.666667 42.666667 0 1 0 0 85.333333z" class="svg-fill-grey-500" /><path d="M145.152 309.333333l193.578667 192.341334a42.666667 42.666667 0 0 1-60.16 60.544l-224-222.634667a42.666667 42.666667 0 0 1 0-60.544l224-222.592a42.666667 42.666667 0 0 1 60.16 60.544L145.152 309.333333z" class="svg-fill-grey-800" /></svg>
