<?xml version="1.0" standalone="no"?><!DOCTYPE svg PUBLIC "-//W3C//DTD SVG 1.1//EN"
        "http://www.w3.org/Graphics/SVG/1.1/DTD/svg11.dtd">
<svg t="1583834945538" class="icon" viewBox="0 0 1024 1024" version="1.1" xmlns="http://www.w3.org/2000/svg">
    <path d="M418.112 65.216h190.4c47.104 0 85.312 38.208 85.312 85.312v116.096c0 47.104-38.208 85.312-85.312 85.312H418.112A85.312 85.312 0 0 1 332.8 266.624V150.528c0-47.104 38.208-85.312 85.312-85.312z m0 85.312v116.096h190.4V150.528H418.112z"
          fill="#FFFFFF" />
    <path d="M129.28 674.496h190.4c47.104 0 85.312 38.208 85.312 85.312v116.096c0 47.104-38.208 85.312-85.312 85.312H129.28a85.312 85.312 0 0 1-85.312-85.312v-116.096c0-47.104 38.208-85.312 85.312-85.312z m0 85.312v116.096h190.4v-116.096H129.28zM706.944 674.496h190.336c47.168 0 85.376 38.208 85.376 85.312v116.096c0 47.104-38.208 85.312-85.376 85.312h-190.336a85.312 85.312 0 0 1-85.312-85.312v-116.096c0-47.104 38.208-85.312 85.312-85.312z m0 85.312v116.096h190.336v-116.096h-190.336z"
          fill="#80A0BA" />
    <path d="M267.136 558.528h492.352v136.512H844.8V548.032c0-42.496-36.288-74.88-78.72-74.88H260.544c-42.496 0-78.784 32.384-78.784 74.88v145.344h85.312V558.528z"
          fill="#80A0BA" />
    <path d="M477.184 351.936h72.192v143.36H477.184z" fill="#80A0BA" />
</svg>