<?xml version="1.0" standalone="no"?><!DOCTYPE svg PUBLIC "-//W3C//DTD SVG 1.1//EN"
        "http://www.w3.org/Graphics/SVG/1.1/DTD/svg11.dtd">
<svg viewBox="0 0 1024 1024" version="1.1"
     xmlns="http://www.w3.org/2000/svg">
    <path d="M414.47619 828.952381m48.761905 0l98.352762 0q48.761905 0 48.761905 48.761905l0 0q0 48.761905-48.761905 48.761904l-98.352762 0q-48.761905 0-48.761905-48.761904l0 0q0-48.761905 48.761905-48.761905Z"
          class="svg-fill-grey-500"/>
    <path d="M524.483048 548.864a274.432 274.432 0 1 0 0-548.864 274.432 274.432 0 0 0 0 548.864z m0-97.52381a176.90819 176.90819 0 1 1 0-353.81638 176.90819 176.90819 0 0 1 0 353.81638z"
          class="svg-fill-grey-800"/>
    <path d="M512 487.619048c269.312 0 487.619048 218.307048 487.619048 487.619047a48.761905 48.761905 0 0 1-97.52381 0 390.095238 390.095238 0 1 0-780.190476 0 48.761905 48.761905 0 0 1-97.52381 0c0-269.312 218.307048-487.619048 487.619048-487.619047z"
          class="svg-fill-grey-800"/>
</svg>
