<?xml version="1.0" standalone="no"?><!DOCTYPE svg PUBLIC "-//W3C//DTD SVG 1.1//EN" "http://www.w3.org/Graphics/SVG/1.1/DTD/svg11.dtd"><svg viewBox="0 0 1024 1024" version="1.1" xmlns="http://www.w3.org/2000/svg"><path d="M796.672 927.829333A468.565333 468.565333 0 0 0 981.333333 554.666667c0-259.2-210.133333-469.333333-469.333333-469.333334S42.666667 295.466667 42.666667 554.666667c0 151.808 72.618667 291.541333 192.896 379.306666a42.666667 42.666667 0 0 0 50.346666-68.906666 384 384 0 1 1 458.965334-5.034667 42.666667 42.666667 0 0 0 51.797333 67.84z" class="svg-fill-grey-500" /><path d="M810.666667 554.666667a298.666667 298.666667 0 0 0-597.333334 0 42.666667 42.666667 0 0 0 85.333334 0 213.333333 213.333333 0 1 1 426.666666 0 42.666667 42.666667 0 0 0 85.333334 0z" class="svg-fill-grey-800" /><path d="M512 597.333333m-85.333333 0a85.333333 85.333333 0 1 0 170.666666 0 85.333333 85.333333 0 1 0-170.666666 0Z" class="svg-fill-grey-800" /><path d="M328.583126 509.975979m27.991852-32.200942l0 0q27.991852-32.200942 60.192794-4.20909l96.602826 83.975555q32.200942 27.991852 4.209091 60.192794l0 0q-27.991852 32.200942-60.192794 4.209091l-96.602827-83.975556q-32.200942-27.991852-4.20909-60.192794Z" class="svg-fill-grey-800" /></svg>
