<?xml version="1.0" standalone="no"?><!DOCTYPE svg PUBLIC "-//W3C//DTD SVG 1.1//EN"
        "http://www.w3.org/Graphics/SVG/1.1/DTD/svg11.dtd">
<svg viewBox="0 0 1024 1024" version="1.1"
     xmlns="http://www.w3.org/2000/svg">
    <g transform="translate(0, -30)">
        <path class="svg-fill-grey-800"
              d="M512 904.533333a358.4 358.4 0 1 0 0-716.8 358.4 358.4 0 0 0 0 716.8z m0 79.6672A438.0672 438.0672 0 1 1 512 108.066133a438.0672 438.0672 0 0 1 0 876.1344z m0-494.3872l112.64-112.64 56.32 56.32L568.32 546.133333l112.64 112.64-56.32 56.32L512 602.453333l-112.64 112.64-56.32-56.32L455.68 546.133333l-112.64-112.64 56.32-56.32L512 489.813333z"/>
    </g>
</svg>
