<?xml version="1.0" standalone="no"?><!DOCTYPE svg PUBLIC "-//W3C//DTD SVG 1.1//EN" "http://www.w3.org/Graphics/SVG/1.1/DTD/svg11.dtd"><svg viewBox="0 0 1024 1024" version="1.1" xmlns="http://www.w3.org/2000/svg"><path d="M975.061333 435.114667a42.666667 42.666667 0 0 1-84.181333 13.909333 384.128 384.128 0 0 0-757.546667-1.28 42.666667 42.666667 0 0 1-84.138666-14.165333 469.461333 469.461333 0 0 1 925.866666 1.536z m-925.44 157.866666a42.666667 42.666667 0 0 1 84.053334-14.634666 384.128 384.128 0 0 0 756.48 0.981333 42.666667 42.666667 0 0 1 84.010666 14.848 469.461333 469.461333 0 0 1-924.544-1.237333z" class="svg-fill-grey-500" /><path d="M316.458667 512.512a42.666667 42.666667 0 0 1 42.666666-42.666667h305.749334a42.666667 42.666667 0 1 1 0 85.333334H359.125333a42.666667 42.666667 0 0 1-42.666666-42.666667z" class="svg-fill-grey-800" /><path d="M645.205333 533.248l-155.648-150.613333a42.666667 42.666667 0 1 1 59.306667-61.312l188.373333 182.186666a42.538667 42.538667 0 0 1-0.938666 62.250667l-190.336 173.354667a42.666667 42.666667 0 0 1-57.472-63.104l156.714666-142.762667z" class="svg-fill-grey-800" /></svg>
