<?xml version="1.0" standalone="no"?><!DOCTYPE svg PUBLIC "-//W3C//DTD SVG 1.1//EN"
        "http://www.w3.org/Graphics/SVG/1.1/DTD/svg11.dtd">
<svg viewBox="0 0 1024 1024" version="1.1" xmlns="http://www.w3.org/2000/svg">
    <path d="M708.266667 146.944h123.733333c12.8 0 21.333333 12.8 21.333333 25.6v716.8c0 12.8-8.533333 25.6-21.333333 25.6h-640c-12.8 0-21.333333-12.8-21.333333-25.6v-716.8c0-12.8 8.533333-25.6 21.333333-25.6h128v-85.333333h-128c-59.733333 0-106.666667 51.2-106.666667 110.933333v716.8c0 59.733333 46.933333 110.933333 106.666667 110.933333h640c59.733333 0 106.666667-51.2 106.666667-110.933333v-716.8c0-59.733333-46.933333-110.933333-106.666667-110.933333h-123.733333v85.333333z"
          class="svg-fill-grey-500"/>
    <path d="M310.314667 587.221333c-25.6 0-42.666667 17.066667-42.666667 42.666667s17.066667 42.666667 42.666667 42.666667 42.666667-17.066667 42.666666-42.666667-17.066667-42.666667-42.666666-42.666667z m0-170.666666c-25.6 0-42.666667 17.066667-42.666667 42.666666s17.066667 42.666667 42.666667 42.666667 42.666667-17.066667 42.666666-42.666667-17.066667-42.666667-42.666666-42.666666zM413.866667 415.744h298.666666c25.6 0 42.666667 17.066667 42.666667 42.666667s-17.066667 42.666667-42.666667 42.666666h-298.666666c-25.6 0-42.666667-17.066667-42.666667-42.666666 0-21.333333 21.333333-42.666667 42.666667-42.666667zM413.866667 590.677333h298.666666c25.6 0 42.666667 17.066667 42.666667 42.666667s-17.066667 42.666667-42.666667 42.666667h-298.666666c-25.6 0-42.666667-17.066667-42.666667-42.666667 0-21.333333 21.333333-42.666667 42.666667-42.666667z"
        class="svg-fill-grey-800" />
    <path d="M388.266667 0h247.466666c46.933333 0 85.333333 38.4 85.333334 85.333333v38.4c0 46.933333-38.4 85.333333-85.333334 85.333334H388.266667c-46.933333 0-85.333333-38.4-85.333334-85.333334V85.333333c0-46.933333 38.4-85.333333 85.333334-85.333333z m0 85.333333v38.4h247.466666V85.333333H388.266667z"
          class="svg-fill-grey-500"/>
</svg>
