<?xml version="1.0" standalone="no"?><!DOCTYPE svg PUBLIC "-//W3C//DTD SVG 1.1//EN" "http://www.w3.org/Graphics/SVG/1.1/DTD/svg11.dtd"><svg viewBox="0 0 1024 1024" version="1.1" xmlns="http://www.w3.org/2000/svg"><path d="M513.152 767.445333a42.666667 42.666667 0 0 1-42.666667-42.666666v-597.333334a42.666667 42.666667 0 0 1 85.333334 0v597.333334a42.666667 42.666667 0 0 1-42.666667 42.666666z" class="svg-fill-grey-800" /><path d="M244.138667 411.008a42.666667 42.666667 0 1 1-59.306667-61.397333l306.133333-295.509334a42.538667 42.538667 0 0 1 60.16 0.896l291.242667 298.666667a42.666667 42.666667 0 0 1-61.098667 59.605333l-261.546666-268.288-275.626667 266.026667z" class="svg-fill-grey-800" /><path d="M43.818667 639.445333v213.333334a128 128 0 0 0 128 128h682.666666a128 128 0 0 0 128-128v-213.333334a42.666667 42.666667 0 0 0-85.333333 0v213.333334a42.666667 42.666667 0 0 1-42.666667 42.666666h-682.666666a42.666667 42.666667 0 0 1-42.666667-42.666666v-213.333334a42.666667 42.666667 0 0 0-85.333333 0z" class="svg-fill-grey-500" /></svg>
