<?xml version="1.0" standalone="no"?><!DOCTYPE svg PUBLIC "-//W3C//DTD SVG 1.1//EN" "http://www.w3.org/Graphics/SVG/1.1/DTD/svg11.dtd"><svg viewBox="0 0 1024 1024" version="1.1" xmlns="http://www.w3.org/2000/svg"><path fill="#ffffff" d="M465.749333 380.928h50.133334v335.36h-253.866667V380.928h147.029333zM679.978667 716.330667h-151.04V380.885333h253.909333v335.445334h-102.869333z m266.538666-335.189334c42.794667 4.821333 76.8 77.952 76.8 167.466667s-33.962667 162.602667-76.8 167.466667v0.256h-150.613333V380.885333h150.613333v0.256zM75.52 382.165333v-1.28h173.354667v335.445334H75.562667v-1.28C35.413333 704.682667 4.352 634.112 4.352 548.565333s31.061333-156.16 71.210667-166.4z"  /><path fill="#ffffff" d="M874.666667 170.666667a64 64 0 0 1 0 128h-67.669334A64 64 0 0 1 746.666667 341.333333h-213.333334a64 64 0 0 1-60.373333-85.333333A64.085333 64.085333 0 0 1 533.333333 170.666667h341.333334zM298.666667 355.541333C298.666667 346.069333 312.874667 341.333333 341.333333 341.333333s42.666667 4.736 42.666667 14.208V384H298.666667v-28.458667z"  /></svg>