<?xml version="1.0" standalone="no"?><!DOCTYPE svg PUBLIC "-//W3C//DTD SVG 1.1//EN" "http://www.w3.org/Graphics/SVG/1.1/DTD/svg11.dtd"><svg viewBox="0 0 1024 1024" version="1.1" xmlns="http://www.w3.org/2000/svg"><path d="M512 789.333333a277.333333 277.333333 0 1 0 0-554.666666 277.333333 277.333333 0 0 0 0 554.666666z m0-85.333333a192 192 0 1 1 0-384 192 192 0 0 1 0 384z" class="svg-fill-grey-800" /><path d="M816.298667 168.618667c10.624 0 19.797333 3.882667 27.52 11.605333 7.765333 7.68 11.648 16.938667 11.648 27.477333 0 10.837333-3.882667 20.053333-11.648 27.776l-55.296 55.296a37.290667 37.290667 0 0 1-27.477334 11.306667 38.016 38.016 0 0 1-39.082666-39.125333c0-10.794667 3.712-19.925333 11.264-27.477334l55.253333-55.253333a38.186667 38.186667 0 0 1 27.818667-11.605333z m47.701333 304.256h78.208c10.794667 0 20.053333 3.797333 27.648 11.52 7.68 7.68 11.477333 16.768 11.477333 27.605333s-3.84 20.053333-11.52 27.648a37.461333 37.461333 0 0 1-27.605333 11.477333H864a37.632 37.632 0 0 1-27.690667-11.52 37.589333 37.589333 0 0 1-11.477333-27.605333c0-10.837333 3.84-19.968 11.477333-27.648a37.632 37.632 0 0 1 27.690667-11.477333zM512 42.666667c10.794667 0 19.968 3.925333 27.648 11.477333a37.973333 37.973333 0 0 1 11.477333 27.648V160c0 10.837333-3.84 20.053333-11.477333 27.648A37.717333 37.717333 0 0 1 512 199.253333a37.717333 37.717333 0 0 1-27.690667-11.605333 37.589333 37.589333 0 0 1-11.434666-27.648V81.792c0-10.666667 3.84-19.968 11.434666-27.648a38.144 38.144 0 0 1 27.733334-11.477333zM207.957333 168.618667c10.624 0 19.797333 3.882667 27.562667 11.605333l55.253333 55.253333c7.765333 7.68 11.605333 16.938667 11.605334 27.52 0 10.837333-3.84 20.053333-11.477334 27.648a37.418667 37.418667 0 0 1-27.648 11.434667 38.016 38.016 0 0 1-27.776-11.178667L180.181333 235.605333a37.802667 37.802667 0 0 1-11.306666-27.904 37.546667 37.546667 0 0 1 11.52-27.648 37.973333 37.973333 0 0 1 27.648-11.434666h-0.085334z m553.088 553.002666c10.581333 0 19.754667 3.797333 27.477334 11.605334l55.296 55.296a37.845333 37.845333 0 0 1 11.648 27.733333c0 10.581333-3.882667 19.84-11.648 27.52a37.248 37.248 0 0 1-27.52 11.605333 37.674667 37.674667 0 0 1-27.818667-11.605333l-55.253333-55.253333a37.205333 37.205333 0 0 1-11.264-27.52c0-10.837333 3.797333-20.053333 11.434666-27.733334a37.632 37.632 0 0 1 27.648-11.648z m-679.253333-248.746666H160c10.837333 0 20.010667 3.797333 27.690667 11.52 7.637333 7.68 11.477333 16.768 11.477333 27.605333s-3.84 20.053333-11.477333 27.648a37.632 37.632 0 0 1-27.690667 11.477333H81.792a37.461333 37.461333 0 0 1-27.648-11.52A37.376 37.376 0 0 1 42.666667 512a37.546667 37.546667 0 0 1 11.52-27.648 37.461333 37.461333 0 0 1 27.605333-11.477333zM512 824.874667a37.546667 37.546667 0 0 1 27.648 11.52c7.68 7.68 11.52 16.768 11.52 27.605333v78.208a37.546667 37.546667 0 0 1-11.52 27.648A37.589333 37.589333 0 0 1 512 981.333333a37.632 37.632 0 0 1-27.690667-11.477333 37.589333 37.589333 0 0 1-11.434666-27.648V864c0-10.837333 3.84-19.968 11.434666-27.648a37.632 37.632 0 0 1 27.733334-11.477333z m-248.704-103.253334c10.794667 0 20.053333 3.797333 27.648 11.605334 7.68 7.68 11.52 16.981333 11.52 27.776 0 10.666667-3.925333 19.797333-11.648 27.52L235.52 843.776a37.205333 37.205333 0 0 1-27.477333 11.605333 37.802667 37.802667 0 0 1-27.690667-11.349333 37.845333 37.845333 0 0 1-11.477333-27.733333c0-10.965333 3.754667-20.224 11.306666-27.776l55.296-55.296a37.632 37.632 0 0 1 27.776-11.605334h0.042667z" class="svg-fill-grey-500" /></svg>
