<?xml version="1.0" standalone="no"?><!DOCTYPE svg PUBLIC "-//W3C//DTD SVG 1.1//EN"
        "http://www.w3.org/Graphics/SVG/1.1/DTD/svg11.dtd">
<svg viewBox="0 0 1024 1024" version="1.1"
     xmlns="http://www.w3.org/2000/svg">
    <path d="M312.32 170.666667H170.666667a85.333333 85.333333 0 0 0-85.333334 85.333333v213.333333a85.333333 85.333333 0 0 0 85.333334 85.333334h678.912v187.733333H734.72v85.333333h114.858667a85.333333 85.333333 0 0 0 85.333333-85.333333V554.666667a85.333333 85.333333 0 0 0-85.333333-85.333334H170.666667V256h141.653333V170.666667z"
          fill="#fff"/>
    <path d="M818.901333 85.333333a85.333333 85.333333 0 0 1 85.333334 85.333334v85.333333a85.333333 85.333333 0 0 1-85.333334 85.333333h-426.666666a85.333333 85.333333 0 0 1-85.333334-85.333333V170.666667a85.333333 85.333333 0 0 1 85.333334-85.333334h426.666666z m-426.666666 85.333334v85.333333h426.666666V170.666667h-426.666666zM690.901333 682.666667a85.333333 85.333333 0 0 1 85.333334 85.333333v85.333333a85.333333 85.333333 0 0 1-85.333334 85.333334h-426.666666a85.333333 85.333333 0 0 1-85.333334-85.333334v-85.333333a85.333333 85.333333 0 0 1 85.333334-85.333333h426.666666z m-426.666666 85.333333v85.333333h426.666666v-85.333333h-426.666666z"
          fill="#80A0BA"/>
    <path d="M403.2 514.986667L523.946667 394.24l120.661333 120.704-120.661333 120.661333z" fill="#80A0BA"/>
</svg>