<?xml version="1.0" standalone="no"?><!DOCTYPE svg PUBLIC "-//W3C//DTD SVG 1.1//EN" "http://www.w3.org/Graphics/SVG/1.1/DTD/svg11.dtd"><svg viewBox="0 0 1024 1024" version="1.1" xmlns="http://www.w3.org/2000/svg"><path d="M0 0m204.8 0l614.4 0q204.8 0 204.8 204.8l0 614.4q0 204.8-204.8 204.8l-614.4 0q-204.8 0-204.8-204.8l0-614.4q0-204.8 204.8-204.8Z" fill="#F14BA9" /><path d="M372.224 273.0496H273.0496c-32.9728 0-59.6992 26.7776-59.6992 59.7504v149.3504c0 32.9728 26.7264 59.6992 59.6992 59.6992h475.2384v131.4304h-80.384v59.7504h80.384c33.024 0 59.7504-26.7776 59.7504-59.7504v-131.4304c0-32.9728-26.7264-59.6992-59.7504-59.6992H273.0496V332.8H372.224V273.0496z" fill="#FFFFFF" /><path d="M726.8352 213.3504c32.9728 0 59.7504 26.7264 59.7504 59.6992V332.8c0 32.9728-26.7776 59.7504-59.7504 59.7504H428.1856A59.7504 59.7504 0 0 1 368.4352 332.8V273.0496c0-32.9728 26.7264-59.6992 59.7504-59.6992h298.6496zM428.1856 273.0496V332.8h298.6496V273.0496H428.1856zM637.2352 631.4496c32.9728 0 59.7504 26.7776 59.7504 59.7504v59.7504c0 32.9728-26.7776 59.6992-59.7504 59.6992H338.5856a59.7504 59.7504 0 0 1-59.7504-59.6992V691.2c0-32.9728 26.7264-59.7504 59.7504-59.7504h298.6496zM338.5856 691.2v59.7504h298.6496V691.2H338.5856z" fill="#FFFFFF" /><path d="M435.8144 514.048l84.48-84.4288 84.48 84.48-84.48 84.48z" fill="#FFFFFF" /></svg>