<?xml version="1.0" encoding="UTF-8"?>
<svg viewBox="0 0 16 16" version="1.1" xmlns="http://www.w3.org/2000/svg" xmlns:xlink="http://www.w3.org/1999/xlink">
    <g transform="translate(2.000000, 2.000000)" fill-rule="nonzero">
        <path class="svg-fill-blue-500" d="M9.8303046,5.99910812 L6.14476943,10.7033281 C5.97446681,10.9207025 6.01262603,11.2349768 6.23000042,11.4052794 C6.44737482,11.575582 6.76164914,11.5374228 6.93195176,11.3200484 L10.8583739,6.30836017 C10.999929,6.12767908 11.0002859,5.87382592 10.8592392,5.69274758 L6.98082127,0.713560566 C6.81113044,0.495708244 6.49696465,0.456665637 6.27911232,0.626356465 C6.06126,0.796047292 6.0222174,1.11021309 6.19190822,1.32806541 L9.8303046,5.99910812 Z"></path>
        <path class="svg-fill-blue-500" d="M1.60640884,10.7033281 C1.43610622,10.9207025 1.47426543,11.2349768 1.69163983,11.4052794 C1.90901422,11.575582 2.22328854,11.5374228 2.39359116,11.3200484 L6.32001328,6.30836017 C6.46156843,6.12767908 6.46192527,5.87382592 6.32087864,5.69274758 L2.44246067,0.713560566 C2.27276985,0.495708244 1.95860405,0.456665637 1.74075173,0.626356465 C1.52289941,0.796047292 1.4838568,1.11021309 1.65354763,1.32806541 L5.291944,5.99910812 L1.60640884,10.7033281 Z"></path>
    </g>
</svg>
