<?xml version="1.0" encoding="UTF-8"?>
<svg viewBox="0 0 16 16" version="1.1" xmlns="http://www.w3.org/2000/svg" xmlns:xlink="http://www.w3.org/1999/xlink">
    <g>
        <path d="M2,1.88866667 L14,1.88866667 C14.7363797,1.88866667 15.3333333,2.48562034 15.3333333,3.222 L15.3333333,14 C15.3333333,14.353622 15.1928575,14.6927605 14.942809,14.942809 C14.6927605,15.1928575 14.353622,15.3333333 14,15.3333333 L2,15.3333333 C1.64637801,15.3333333 1.30723947,15.1928575 1.05719096,14.942809 C0.807142458,14.6927605 0.666666672,14.353622 0.666666672,14 L0.666666672,3.222 C0.666666672,2.48562034 1.26362034,1.88866667 2,1.88866667 Z M2,3.222 L2,14 L14,14 L14,3.222 L2,3.222 Z"
              class="svg-fill-grey-500" fill-rule="nonzero"></path>
        <path d="M4.38866667,0.666666672 L4.38866667,0.666666672 C4.83311112,0.666666672 5.05533333,0.888888891 5.05533333,1.33333333 L5.05533333,3.66666667 C5.05533333,4.11111112 4.83311111,4.33333333 4.38866667,4.33333333 L4.38866667,4.33333333 C3.94422222,4.33333333 3.722,4.11111111 3.722,3.66666667 L3.722,1.33333333 C3.722,0.88888888 3.94422222,0.666666672 4.38866667,0.666666672 Z"
              class="svg-fill-grey-500" fill-rule="nonzero"></path>
        <path d="M11.722,0.666666672 L11.722,0.666666672 C12.1664444,0.666666672 12.3886667,0.888888891 12.3886667,1.33333333 L12.3886667,3.66666667 C12.3886667,4.11111112 12.1664444,4.33333333 11.722,4.33333333 L11.722,4.33333333 C11.2775556,4.33333333 11.0553333,4.11111111 11.0553333,3.66666667 L11.0553333,1.33333333 C11.0553333,0.88888888 11.2775556,0.666666672 11.722,0.666666672 Z"
              class="svg-fill-grey-500" fill-rule="nonzero"></path>
        <path d="M3.778,6.778 L6.72266667,6.778 C7.16711112,6.778 7.38933333,7.00022222 7.38933333,7.44466667 L7.38933333,7.44466667 C7.38933333,7.88911112 7.16711111,8.11133333 6.72266667,8.11133333 L3.778,8.11133333 C3.33355555,8.11133333 3.11133333,7.88911111 3.11133333,7.44466667 L3.11133333,7.44466667 C3.11133333,7.00022222 3.33355555,6.778 3.778,6.778 L3.778,6.778 Z"
              class="svg-fill-grey-800" fill-rule="nonzero"></path>
        <path d="M3.778,9.83333333 L6.72266667,9.83333333 C7.16711112,9.83333333 7.38933333,10.0555556 7.38933333,10.5 L7.38933333,10.5 C7.38933333,10.9444444 7.16711111,11.1666667 6.72266667,11.1666667 L3.778,11.1666667 C3.33355555,11.1666667 3.11133333,10.9444444 3.11133333,10.5 L3.11133333,10.5 C3.11133333,10.0555556 3.33355555,9.83333333 3.778,9.83333333 Z"
              class="svg-fill-grey-800" fill-rule="nonzero"></path>
        <path d="M9.278,6.778 L12.2226667,6.778 C12.6671111,6.778 12.8893333,7.00022222 12.8893333,7.44466667 L12.8893333,7.44466667 C12.8893333,7.88911112 12.6671111,8.11133333 12.2226667,8.11133333 L9.278,8.11133333 C8.83355555,8.11133333 8.61133333,7.88911111 8.61133333,7.44466667 L8.61133333,7.44466667 C8.61133333,7.00022222 8.83355555,6.778 9.278,6.778 L9.278,6.778 Z"
              class="svg-fill-grey-800" fill-rule="nonzero"></path>
    </g>
</svg>
