<?xml version="1.0" encoding="UTF-8"?>
<svg viewBox="0 0 14 14" version="1.1" xmlns="http://www.w3.org/2000/svg" xmlns:xlink="http://www.w3.org/1999/xlink">
    <g transform="translate(-1.000000, -1.000000)" fill-rule="nonzero">
        <path d="M8,1 C4.134375,1 1,4.134375 1,8 C1,11.865625 4.134375,15 8,15 C11.865625,15 15,11.865625 15,8 C15,4.134375 11.865625,1 8,1 Z M10.784375,9.6375 C11.040625,9.89375 11.040625,10.309375 10.784375,10.565625 C10.528125,10.821875 10.1125,10.821875 9.85625,10.565625 L8,8.709375 L6.14375,10.565625 C5.8875,10.821875 5.471875,10.821875 5.215625,10.565625 C4.959375,10.309375 4.959375,9.89375 5.215625,9.6375 L7.071875,7.78125 L5.215625,5.925 C4.959375,5.66875 4.959375,5.253125 5.215625,4.996875 C5.471875,4.740625 5.8875,4.740625 6.14375,4.996875 L8,6.853125 L9.85625,4.996875 C10.1125,4.740625 10.528125,4.740625 10.784375,4.996875 C11.040625,5.253125 11.040625,5.66875 10.784375,5.925 L8.928125,7.78125 L10.784375,9.6375 L10.784375,9.6375 Z"
              class="svg-fill-grey-400"></path>
    </g>
</svg>
