<?xml version="1.0" encoding="utf-8"?>
<svg xmlns="http://www.w3.org/2000/svg" xmlns:xlink="http://www.w3.org/1999/xlink" width="14px" height="14px" viewBox="0 0 24 24" xml:space="preserve">
<title>工单消息</title>
	<g transform="translate(2.000000, 0.000000)">
		<g>
			<path class="svg-fill-white" d="M6.8,0L6.8,0c0.6,0,1,0.4,1,1v2.1c0,0.6-0.4,1-1,1l0,0c-0.6,0-1-0.4-1-1V1
				C5.8,0.4,6.3,0,6.8,0z"/>
			<path class="svg-fill-white" d="M13.5,0L13.5,0c0.6,0,1,0.4,1,1v2.1c0,0.6-0.4,1-1,1l0,0c-0.6,0-1-0.4-1-1V1
				C12.5,0.4,12.9,0,13.5,0z"/>
			<path class="svg-fill-white" d="M2,3.3h16c1.1,0,2,0.9,2,2V21c0,1.1-0.9,2-2,2H2c-1.1,0-2-0.9-2-2V5.3C0,4.2,0.9,3.3,2,3.3
				z M2,5.3V21h16V5.3H2z"/>
		</g>
		<path class="svg-fill-white" d="M6,9.9h8c0.6,0,1,0.4,1,1l0,0c0,0.6-0.4,1-1,1H6c-0.6,0-1-0.4-1-1l0,0C5,10.3,5.4,9.9,6,9.9z"/>
		<path class="svg-fill-white" d="M6,14h8c0.6,0,1,0.4,1,1l0,0c0,0.6-0.4,1-1,1H6c-0.6,0-1-0.4-1-1l0,0C5,14.4,5.4,14,6,14z"/>
	</g>
</svg>
