<?xml version="1.0" encoding="UTF-8"?>
<svg viewBox="0 0 40 40" version="1.1" xmlns="http://www.w3.org/2000/svg" xmlns:xlink="http://www.w3.org/1999/xlink">
    <title>product_logo</title>
    <g stroke="none" stroke-width="1" fill="none" fill-rule="evenodd" transform="translate(0, -0.166667)">
        <path d="M14.0942455,17.3599164 L23.0493667,20.610537 C23.5134052,20.7789784 23.8788951,21.1444683 24.0473365,21.6085068 L27.297957,30.563628 C27.454993,30.9962457 27.2315898,31.4742544 26.7989721,31.6312904 C26.6152768,31.69797 26.41399,31.69797 26.2302946,31.6312904 L17.2751734,28.3806698 C16.8111349,28.2122284 16.4456451,27.8467385 16.2772037,27.3827 L13.0265831,18.4275788 C12.8695472,17.9949611 13.0929503,17.5169524 13.525568,17.3599164 C13.7092633,17.2932368 13.9105502,17.2932368 14.0942455,17.3599164 Z"
              class="svg-fill-white" opacity="0.349999994"
              transform="translate(20.162270, 24.495603) rotate(-45.000000) translate(-20.162270, -24.495603)"></path>
        <path d="M14.0942455,13.1932498 L23.0493667,16.4438703 C23.5134052,16.6123117 23.8788951,16.9778016 24.0473365,17.4418401 L27.297957,26.3969613 C27.454993,26.829579 27.2315898,27.3075877 26.7989721,27.4646237 C26.6152768,27.5313033 26.41399,27.5313033 26.2302946,27.4646237 L17.2751734,24.2140031 C16.8111349,24.0455617 16.4456451,23.6800719 16.2772037,23.2160334 L13.0265831,14.2609122 C12.8695472,13.8282945 13.0929503,13.3502857 13.525568,13.1932498 C13.7092633,13.1265702 13.9105502,13.1265702 14.0942455,13.1932498 Z"
              fill="#B5C5FA"
              transform="translate(20.162270, 20.328937) rotate(-45.000000) translate(-20.162270, -20.328937)"></path>
        <path d="M14.0942455,9.02658311 L23.0493667,12.2772037 C23.5134052,12.4456451 23.8788951,12.8111349 24.0473365,13.2751734 L27.297957,22.2302946 C27.454993,22.6629123 27.2315898,23.1409211 26.7989721,23.297957 C26.6152768,23.3646366 26.41399,23.3646366 26.2302946,23.297957 L17.2751734,20.0473365 C16.8111349,19.8788951 16.4456451,19.5134052 16.2772037,19.0493667 L13.0265831,10.0942455 C12.8695472,9.66162779 13.0929503,9.18361906 13.525568,9.02658311 C13.7092633,8.95990352 13.9105502,8.95990352 14.0942455,9.02658311 Z"
              class="svg-fill-white"
              transform="translate(20.162270, 16.162270) rotate(-45.000000) translate(-20.162270, -16.162270)"></path>
    </g>
</svg>
