<?xml version="1.0" standalone="no"?><!DOCTYPE svg PUBLIC "-//W3C//DTD SVG 1.1//EN"
        "http://www.w3.org/Graphics/SVG/1.1/DTD/svg11.dtd">
<svg viewBox="0 0 1024 1024" version="1.1" xmlns="http://www.w3.org/2000/svg"
     xmlns:xlink="http://www.w3.org/1999/xlink">
    <path d="M513.024 41.92c23.552 0 42.688 19.072 42.688 42.688v597.312a42.688 42.688 0 0 1-85.312 0V84.608c0-23.616 19.072-42.688 42.624-42.688z"
          class="svg-fill-grey-800"></path>
    <path d="M506.496 664.384l275.584-266.048a42.688 42.688 0 0 1 59.264 61.44L535.232 755.2a42.56 42.56 0 0 1-60.16-0.896L183.872 455.68a42.688 42.688 0 1 1 61.056-59.52l261.568 268.224z"
          class="svg-fill-grey-800"></path>
    <path d="M43.712 639.232v213.376a128 128 0 0 0 128 128H854.4a128 128 0 0 0 128-128V639.232a42.688 42.688 0 0 0-85.376 0v213.376a42.688 42.688 0 0 1-42.624 42.624H171.712a42.688 42.688 0 0 1-42.688-42.624V639.232a42.688 42.688 0 0 0-85.312 0z"
          class="svg-fill-grey-500"></path>
</svg>