<?xml version="1.0" standalone="no"?><!DOCTYPE svg PUBLIC "-//W3C//DTD SVG 1.1//EN"
        "http://www.w3.org/Graphics/SVG/1.1/DTD/svg11.dtd">
<svg viewBox="0 0 1024 1024" version="1.1" xmlns="http://www.w3.org/2000/svg"
     xmlns:xlink="http://www.w3.org/1999/xlink">
    <path d="M384 736a64 64 0 1 1 0 128 64 64 0 0 1 0-128z m256 0a64 64 0 1 1 0 128 64 64 0 0 1 0-128z m-256-192a64 64 0 1 1 0 128 64 64 0 0 1 0-128z m256 0a64 64 0 1 1 0 128 64 64 0 0 1 0-128z m-256-192a64 64 0 1 1 0 128 64 64 0 0 1 0-128z m256 0a64 64 0 1 1 0 128 64 64 0 0 1 0-128z m-256-192a64 64 0 1 1 0 128 64 64 0 0 1 0-128z m256 0a64 64 0 1 1 0 128 64 64 0 0 1 0-128z"
          class="svg-fill-grey-500"></path>
</svg>
