<?xml version="1.0" standalone="no"?><!DOCTYPE svg PUBLIC "-//W3C//DTD SVG 1.1//EN"
        "http://www.w3.org/Graphics/SVG/1.1/DTD/svg11.dtd">
<svg viewBox="0 0 1024 1024" version="1.1" xmlns="http://www.w3.org/2000/svg"
     xmlns:xlink="http://www.w3.org/1999/xlink">
    <path d="M532.992 140.8l4.928-6.592c37.376-50.368 119.872-91.52 183.616-91.52 111.68 0 201.92 91.52 201.92 204.096a204.736 204.736 0 0 1-70.208 154.752l-425.92 445.632a116.352 116.352 0 0 1-84.096 35.968H210.24a116.352 116.352 0 0 1-116.416-116.352v-120.896c0-30.08 11.712-59.072 32.64-80.704L463.552 215.04 532.992 140.8z m38.72 83.648l-45.952 49.152-0.448 0.448-337.472 350.272a31.04 31.04 0 0 0-8.704 21.568v120.96c0 17.088 13.952 30.976 31.104 30.976h132.992c8.448 0 16.576-3.456 22.4-9.6l376.512-393.92-170.432-169.856z m266.432 22.336c0-65.728-52.352-118.784-116.672-118.784-25.088 0-59.648 13.248-85.76 30.72l179.776 158.4c14.72-20.48 22.656-45.056 22.592-70.336h0.064zM135.68 897.28h725.312c28.48 0 42.688 14.208 42.688 42.688 0 28.416-14.208 42.624-42.688 42.624H135.68c-28.416 0-42.688-14.208-42.688-42.624 0-28.48 14.272-42.688 42.688-42.688z"
          class="svg-fill-grey-500"></path>
</svg>