<?xml version="1.0" encoding="UTF-8"?>
<svg viewBox="0 0 24 24" version="1.1" xmlns="http://www.w3.org/2000/svg" xmlns:xlink="http://www.w3.org/1999/xlink">
    <title>Combined Shape</title>
    <g stroke="none" stroke-width="1" fill-rule="evenodd">
        <g transform="translate(-32.000000, -24.000000)">
            <path d="M32,36 C32,29.371875 37.371875,24 44,24 C50.628125,24 56,29.371875 56,36 C56,42.628125 50.628125,48 44,48 C37.371875,48 32,42.628125 32,36 Z M42.9606866,41.9790178 C44.3453436,41.9790178 45.1686169,41.0677307 45.9769948,39.8862653 C45.9769948,39.7453545 46.0261983,39.3735921 45.995675,39.1628198 L44.9204017,40.4229386 C44.6968494,40.6605624 44.4200645,40.8272554 44.288082,40.7822257 C44.1670878,40.7401663 44.095175,40.6078099 44.1197157,40.4774733 L45.9138727,34.7078495 C46.0627041,33.9747802 45.656989,33.3088396 44.8001401,33.2236515 C43.898239,33.2236515 42.5697448,34.1559683 41.760268,35.3374337 C41.760268,35.479295 41.7346285,35.8300277 41.7642971,36.0408 L42.8406692,34.7797307 C43.0631227,34.5421069 43.3212273,34.3763644 43.452111,34.4213941 C43.5840936,34.4664238 43.6569831,34.6168396 43.6136401,34.7577505 L41.8321808,40.4994535 C41.6264541,41.1703842 42.0153203,41.8295525 42.9606866,41.9790178 Z M45.2448615,30 C45.0379695,30.0046163 44.8356782,30.0588574 44.6379814,30.1627247 C44.4402846,30.2665921 44.2839686,30.4177745 44.1690286,30.6162765 C44.0540886,30.8147786 43.9977688,31.0259724 44.0000676,31.2498642 C44.0023664,31.4737561 44.0586862,31.6826417 44.1690286,31.8765274 C44.279371,32.0704132 44.4299401,32.2227497 44.6207405,32.3335415 C44.8115409,32.4443334 45.0195791,32.4997284 45.2448615,32.4997284 C45.4655463,32.5043448 45.6735846,32.4501037 45.8689826,32.3370037 C46.0643806,32.2239037 46.2172485,32.0704132 46.3275909,31.8765274 C46.4379333,31.6826417 46.4954024,31.472602 46.5,31.246402 C46.5,31.0248183 46.4425309,30.8147786 46.3275909,30.6162765 C46.2126509,30.4177745 46.0540361,30.265438 45.8517417,30.1592625 C45.6494473,30.053087 45.4471559,30 45.2448615,30 Z"
                 class="svg-fill-red-500"></path>
        </g>
    </g>
</svg>
