<?xml version="1.0" encoding="utf-8"?>
<svg xmlns="http://www.w3.org/2000/svg" xmlns:xlink="http://www.w3.org/1999/xlink" width="14px" height="14px"
	 viewBox="0 0 24 24" xml:space="preserve">
	<g transform="translate(2.000000, 1.000000)">
				<path class="svg-fill-white" d="M9.2,11.5L6.5,8.9c-0.4-0.4-1-0.4-1.4,0s-0.4,1,0,1.4l4.1,4l5.7-5.6c0.4-0.4,0.4-1,0-1.4
					s-1-0.4-1.4,0L9.2,11.5z"/>
		<path class="svg-fill-white" d="M2,0h16c1.1,0,2,0.9,2,2v18c0,1.1-0.9,2-2,2H2c-1.1,0-2-0.9-2-2V2C0,0.9,0.9,0,2,0z M2,2v18
					h16V2H2z"/>
	</g>
</svg>
