<?xml version="1.0" encoding="UTF-8"?>
<svg viewBox="0 0 16 16" version="1.1" xmlns="http://www.w3.org/2000/svg" xmlns:xlink="http://www.w3.org/1999/xlink">
    <path class="svg-fill-white"
          d="M8,0 C12.41875,0 16,3.58125 16,8 C16,12.41875 12.41875,16 8,16 C3.58125,16 0,12.41875 0,8 C0,3.58125 3.58125,0 8,0 Z M8.16324102,10.6666667 C8.02531303,10.6697442 7.89045212,10.7059049 7.75865426,10.7751498 C7.6268564,10.8443947 7.5226457,10.945183 7.44601904,11.0775177 C7.36939238,11.2098524 7.33184588,11.3506483 7.33337841,11.4999095 C7.33491094,11.6491707 7.37245744,11.7884278 7.44601904,11.917685 C7.51958064,12.0469421 7.61996006,12.1484998 7.74716032,12.222361 C7.87436058,12.2962222 8.01305276,12.3331523 8.16324102,12.3331523 C8.31036421,12.3362298 8.44905639,12.3000692 8.57932172,12.2246692 C8.70958705,12.1492692 8.81149898,12.0469421 8.88506058,11.917685 C8.95862218,11.7884278 8.99693493,11.6484013 9,11.4976013 C9,11.3498789 8.96168724,11.2098524 8.88506058,11.0775177 C8.80843392,10.945183 8.70269071,10.8436253 8.56782778,10.7728417 C8.43296485,10.702058 8.29810395,10.6666667 8.16324102,10.6666667 Z M8.16666667,3.66666667 C8.1324564,3.66666667 8.09826624,3.66832478 8.06421651,3.67163517 C7.48223374,3.72821683 7.05631198,4.24587558 7.11289364,4.82785836 L7.11289364,4.82785836 L7.52688652,9.08607082 C7.55890782,9.41543277 7.83575179,9.66666667 8.16666667,9.66666667 C8.49758154,9.66666667 8.77442552,9.41543277 8.80644682,9.08607082 L8.80644682,9.08607082 L9.2204397,4.82785836 C9.22375009,4.79380863 9.2254082,4.75961847 9.2254082,4.7254082 C9.2254082,4.1406814 8.75139347,3.66666667 8.16666667,3.66666667 Z"></path>
</svg>
