<?xml version="1.0" encoding="UTF-8"?>
<svg viewBox="0 0 16 16" version="1.1" xmlns="http://www.w3.org/2000/svg" xmlns:xlink="http://www.w3.org/1999/xlink">
    <path d="M0,8 C0,3.58125 3.58125,0 8,0 C12.41875,0 16,3.58125 16,8 C16,12.41875 12.41875,16 8,16 C3.58125,16 0,12.41875 0,8 Z M7.30712442,11.9860119 C8.23022907,11.9860119 8.77907791,11.3784871 9.31799651,10.5908436 C9.31799651,10.496903 9.35079884,10.2490614 9.33045,10.1085465 L8.61360116,10.9486257 C8.46456628,11.1070416 8.28004302,11.2181703 8.19205465,11.1881505 C8.11139186,11.1601109 8.06345,11.0718733 8.07981047,10.9849822 L9.27591512,7.13856634 C9.37513605,6.64985347 9.1046593,6.20589307 8.53342674,6.14910099 C7.9321593,6.14910099 7.04649651,6.77064554 6.50684535,7.55828911 C6.50684535,7.65286337 6.48975233,7.88668515 6.5095314,8.0272 L7.22711279,7.18648713 C7.37541512,7.02807129 7.54748488,6.91757624 7.6347407,6.94759604 C7.72272907,6.97761584 7.77132209,7.07789307 7.74242674,7.17183366 L6.55478721,10.9996356 C6.41763605,11.4469228 6.67688023,11.8863683 7.30712442,11.9860119 Z M8.82990769,4 C8.69197969,4.00307755 8.55711879,4.03923824 8.42532093,4.10848314 C8.29352307,4.17772804 8.18931237,4.27851633 8.11268571,4.41085103 C8.03605904,4.54318573 7.99851254,4.68398158 8.00004508,4.83324282 C8.00157761,4.98250405 8.03912411,5.12176115 8.11268571,5.2510183 C8.1862473,5.38027545 8.28662673,5.48183311 8.41382699,5.55569434 C8.54102725,5.62955557 8.67971943,5.66648563 8.82990769,5.66648563 C8.97703088,5.66956318 9.11572306,5.6334025 9.24598839,5.5580025 C9.37625372,5.48260249 9.47816565,5.38027545 9.55172725,5.2510183 C9.62528884,5.12176115 9.6636016,4.98173467 9.66666667,4.83093466 C9.66666667,4.68321221 9.62835391,4.54318573 9.55172725,4.41085103 C9.47510058,4.27851633 9.36935737,4.17695866 9.23449445,4.10617498 C9.09963152,4.03539131 8.96477062,4 8.82990769,4 Z"
          class="svg-fill-white"></path>
</svg>
