<?xml version="1.0" encoding="UTF-8"?>
<svg viewBox="0 0 24 24" version="1.1" xmlns="http://www.w3.org/2000/svg" xmlns:xlink="http://www.w3.org/1999/xlink">
    <g transform="translate(-505.000000, -228.000000)">
        <path class="svg-fill-blue-500" d="M505,240 C505,233.371875 510.371875,228 517,228 C523.628125,228 529,233.371875 529,240 C529,246.628125 523.628125,252 517,252 C510.371875,252 505,246.628125 505,240 Z M515.960687,245.979018 C517.345344,245.979018 518.168617,245.067731 518.976995,243.886265 C518.976995,243.745354 519.026198,243.373592 518.995675,243.16282 L517.920402,244.422939 C517.696849,244.660562 517.420065,244.827255 517.288082,244.782226 C517.167088,244.740166 517.095175,244.60781 517.119716,244.477473 L518.913873,238.70785 C519.062704,237.97478 518.656989,237.30884 517.80014,237.223651 C516.898239,237.223651 515.569745,238.155968 514.760268,239.337434 C514.760268,239.479295 514.734628,239.830028 514.764297,240.0408 L515.840669,238.779731 C516.063123,238.542107 516.321227,238.376364 516.452111,238.421394 C516.584094,238.466424 516.656983,238.61684 516.61364,238.75775 L514.832181,244.499453 C514.626454,245.170384 515.01532,245.829552 515.960687,245.979018 Z M518.244862,234 C518.03797,234.004616 517.835678,234.058857 517.637981,234.162725 C517.440285,234.266592 517.283969,234.417774 517.169029,234.616277 C517.054089,234.814779 516.997769,235.025972 517.000068,235.249864 C517.002366,235.473756 517.058686,235.682642 517.169029,235.876527 C517.279371,236.070413 517.42994,236.22275 517.62074,236.333542 C517.811541,236.444333 518.019579,236.499728 518.244862,236.499728 C518.465546,236.504345 518.673585,236.450104 518.868983,236.337004 C519.064381,236.223904 519.217248,236.070413 519.327591,235.876527 C519.437933,235.682642 519.495402,235.472602 519.5,235.246402 C519.5,235.024818 519.442531,234.814779 519.327591,234.616277 C519.212651,234.417774 519.054036,234.265438 518.851742,234.159262 C518.649447,234.053087 518.447156,234 518.244862,234 Z"></path>
    </g>
</svg>
