<?xml version="1.0" encoding="UTF-8"?>
<svg width="24px" height="30px" viewBox="0 0 24 30" version="1.1" xmlns="http://www.w3.org/2000/svg" xmlns:xlink="http://www.w3.org/1999/xlink">
    <title>music</title>
    <g stroke="none" stroke-width="1" fill="none" fill-rule="evenodd">
        <path d="M1.43312102,0 C1.07484076,0 0.692675159,0.148253899 0.429936306,0.444761696 C0.167197452,0.741269493 2.13162821e-14,1.11190424 2.13162821e-14,1.48253899 L2.13162821e-14,28.517461 C2.13162821e-14,28.8880958 0.143312102,29.2834395 0.429936306,29.5552383 C0.71656051,29.8517461 1.07484076,30 1.43312102,30 L22.4522293,30 C22.8105096,30 23.1926752,29.8517461 23.455414,29.5552383 C23.7420382,29.2587305 23.8853503,28.8880958 23.8853503,28.517461 L23.8853503,8.40105425 L15.7643312,0 L1.43312102,0 Z" fill="#F76B64"></path>
        <g transform="translate(6.000000, 9.000000)" fill="#FFFFFF">
            <path d="M8.89934225,0.757514402 L3.230102,1.70456031 C3.21173046,1.70749832 3.19458208,1.71288267 3.17791338,1.71926234 L2.97312822,1.71926234 C2.8334949,1.71926234 2.72253412,1.8309666 2.72253412,1.96864526 L2.72253412,8.44945927 C2.5013321,8.32157797 2.2441065,8.24859545 1.96999634,8.24859545 C1.13881589,8.24859545 0.464920789,8.92077571 0.464920789,9.75022934 C0.464920789,10.579683 1.13881589,11.2518393 1.96999634,11.2518393 C2.80116481,11.2518393 3.4750719,10.579659 3.4750719,9.75020537 C3.4750719,9.68945456 3.47139039,9.62967509 3.46453105,9.57138261 C3.47139039,9.54835822 3.4750719,9.5243505 3.4750719,9.49886777 L3.4750719,4.22818929 L8.74281238,3.29927509 L8.74281238,6.94730972 C8.52161035,6.81992009 8.26438475,6.74642193 7.9902746,6.74642193 C7.15909414,6.74642193 6.48519904,7.41909386 6.48519904,8.24857147 C6.48519904,9.07753344 7.15909414,9.75020536 7.9902746,9.75020536 C8.82144307,9.75020536 9.49533816,9.07753343 9.49533816,8.24857147 C9.49533816,8.18782066 9.49166865,8.12804119 9.4848093,8.06925704 C9.49166865,8.04620866 9.49533816,8.02220094 9.49533816,7.9967422 L9.49533816,0.989245289 C9.49533816,0.866760328 9.40641846,0.764361762 9.28932984,0.743783707 C9.24841358,0.71831298 9.19696846,0.708023953 9.14037883,0.717329648 L9.00712518,0.739862367 L8.99340649,0.739862367 C8.96009306,0.739874367 8.92824266,0.746242043 8.89934225,0.757514402 Z"></path>
        </g>
        <path d="M23.8853503,8.12101911 L17.1974522,8.12101911 C16.839172,8.12101911 16.4570064,7.97770701 16.1942675,7.6910828 C15.9076433,7.42834395 15.7643312,7.04617834 15.7643312,6.68789809 L15.7643312,1.24344979e-14 L23.8853503,8.12101911 Z" fill-opacity="0.5" fill="#FFFFFF"></path>
    </g>
</svg>