<?xml version="1.0" encoding="UTF-8"?>
<svg viewBox="0 0 16 16" version="1.1" xmlns="http://www.w3.org/2000/svg" xmlns:xlink="http://www.w3.org/1999/xlink">
    <title>原比例备份 3</title>
    <g stroke="none" stroke-width="1" fill="none" fill-rule="evenodd">
        <path d="M13.5579646,1.02767432 L2.51840787,1.02767432 C1.40758494,1.02767432 0.504247048,1.92151903 0.504247048,3.02767432 L0.504247048,12.9886417 C0.504247048,14.094797 1.40758494,14.9886417 2.51840787,14.9886417 L13.5579646,14.9886417 C14.6625341,14.9886417 15.5579646,14.0932112 15.5579646,12.9886417 L15.5579646,3.02767432 C15.5579646,1.92310482 14.6625341,1.02767432 13.5579646,1.02767432 Z M2.51840787,2.36100766 L13.5579646,2.36100766 C13.9261544,2.36100766 14.2246313,2.65948449 14.2246313,3.02767432 L14.2246313,12.9886417 C14.2246313,13.3568315 13.9261544,13.6553083 13.5579646,13.6553083 L2.51840787,13.6553083 C2.14082986,13.6553083 1.83758038,13.3552457 1.83758038,12.9886417 L1.83758038,3.02767432 C1.83758038,2.66107028 2.14082986,2.36100766 2.51840787,2.36100766 Z"
              class="svg-fill-grey-500" fill-rule="nonzero"></path>
        <rect class="svg-fill-grey-800" x="4.66666667" y="5.33333333" width="1.33333333" height="5.33333333"
              rx="0.666666667"></rect>
        <rect class="svg-fill-grey-800" x="10" y="5.33333333" width="1.33333333" height="5.33333333"
              rx="0.666666667"></rect>
        <circle class="svg-fill-grey-800" cx="8" cy="6.66666667" r="1"></circle>
        <circle class="svg-fill-grey-800" cx="8" cy="9.33333333" r="1"></circle>
    </g>
</svg>
