<?xml version="1.0" encoding="UTF-8"?>
<svg width="24px" height="30px" viewBox="0 0 24 30" version="1.1" xmlns="http://www.w3.org/2000/svg" xmlns:xlink="http://www.w3.org/1999/xlink">
    <!-- Generator: Sketch 60 (88103) - https://sketch.com -->
    <title>pic</title>
    <desc>Created with Sketch.</desc>
    <g stroke="none" stroke-width="1" fill="none" fill-rule="evenodd">
        <g fill-rule="nonzero">
            <path d="M1.44,0 C1.08,0 0.696,0.148253899 0.432,0.444761696 C0.168,0.741269493 2.13162821e-14,1.11190424 2.13162821e-14,1.48253899 L2.13162821e-14,28.517461 C2.13162821e-14,28.8880958 0.144,29.2834395 0.432,29.5552383 C0.72,29.8517461 1.08,30 1.44,30 L22.56,30 C22.92,30 23.304,29.8517461 23.568,29.5552383 C23.856,29.2587305 24,28.8880958 24,28.517461 L24,8.40105425 L15.84,0 L1.44,0 Z" id="路径备份" fill="#00ADD4"></path>
            <path d="M23.8853503,8.12101911 L17.1974522,8.12101911 C16.839172,8.12101911 16.4570064,7.97770701 16.1942675,7.6910828 C15.9076433,7.42834395 15.7643312,7.04617834 15.7643312,6.68789809 L15.7643312,1.24344979e-14 L23.8853503,8.12101911 Z" id="路径备份-2" fill-opacity="0.5" fill="#FFFFFF"></path>
        </g>
        <g transform="translate(6.000000, 10.000000)">
            <rect stroke="#FFFFFF" stroke-width="1.2" x="0.6" y="0.6" width="10.8" height="9.6"></rect>
            <path d="M0.753268494,8.27534511 L3.44923952,6.63876451 C3.5443466,6.58103007 3.6608049,6.57051467 3.76471548,6.61027917 L5.9238742,7.43654606 C5.96982571,7.45413079 6.02185563,7.44188387 6.05513889,7.4056487 L8.19680191,5.07404048 C8.33129975,4.92761396 8.55903392,4.91794386 8.70546044,5.05244169 C8.70838174,5.05512501 8.7112585,5.05785643 8.71408953,5.06063483 L11.1646904,7.46567788 L11.1646904,7.46567788 L11.1646904,10.1514706 L0.753268494,10.1514706" id="路径-25" fill="#FFFFFF"></path>
            <circle fill="#FFFFFF" cx="3.6" cy="4.8" r="1.2"></circle>
        </g>
    </g>
</svg>