<?xml version="1.0" encoding="UTF-8"?>
<svg viewBox="0 0 16 16" version="1.1" xmlns="http://www.w3.org/2000/svg" xmlns:xlink="http://www.w3.org/1999/xlink">
    <g stroke="none" stroke-width="1" fill="none" fill-rule="evenodd" transform="translate(-12.000000, -4.000000)">
        <path d="M12,0 L76,0 C82.627417,-1.21743675e-15 88,5.372583 88,12 C88,18.627417 82.627417,24 76,24 L12,24 C5.372583,24 8.11624501e-16,18.627417 0,12 C-8.11624501e-16,5.372583 5.372583,1.21743675e-15 12,0 Z"
              fill="#FEEAD2"></path>
        <g transform="translate(12.000000, 4.000000)">
            <path d="M8,13.25 C10.8994949,13.25 13.25,10.8994949 13.25,8 C13.25,5.10050506 10.8994949,2.75 8,2.75 C5.10050506,2.75 2.75,5.10050506 2.75,8 C2.75,10.8994949 5.10050506,13.25 8,13.25 Z M8,14.4166667 C4.45617286,14.4166667 1.58333333,11.5438271 1.58333333,8 C1.58333333,4.45617286 4.45617286,1.58333333 8,1.58333333 C11.5438271,1.58333333 14.4166667,4.45617286 14.4166667,8 C14.4166667,11.5438271 11.5438271,14.4166667 8,14.4166667 Z M8,7.17504209 L9.64991582,5.52512627 L10.4748737,6.35008418 L8.82495791,8 L10.4748737,9.64991582 L9.64991582,10.4748737 L8,8.82495791 L6.35008418,10.4748737 L5.52512627,9.64991582 L7.17504209,8 L5.52512627,6.35008418 L6.35008418,5.52512627 L8,7.17504209 Z"
                  fill="#F58300"></path>
        </g>
    </g>
</svg>
