<?xml version="1.0" standalone="no"?><!DOCTYPE svg PUBLIC "-//W3C//DTD SVG 1.1//EN"
        "http://www.w3.org/Graphics/SVG/1.1/DTD/svg11.dtd">
<svg viewBox="0 0 1152 1024" version="1.1" xmlns="http://www.w3.org/2000/svg"
     xmlns:xlink="http://www.w3.org/1999/xlink">
    <path d="M88.32 463.36L282.368 110.72A114.816 114.816 0 0 1 382.976 51.2h381.696c41.472 0 79.744 22.4 100.096 58.624l198.144 352.896c19.456 34.56 19.712 76.672 0.64 111.36L868.608 930.176A114.816 114.816 0 0 1 768 989.824H383.104a114.816 114.816 0 0 1-100.864-59.904L88.064 573.696A114.816 114.816 0 0 1 88.32 463.36z m74.752 41.088a29.44 29.44 0 0 0 0 28.416L357.12 889.088a29.44 29.44 0 0 0 25.856 15.36H768a29.44 29.44 0 0 0 25.856-15.36l194.944-355.84a29.44 29.44 0 0 0-0.128-28.8L790.4 151.552a29.44 29.44 0 0 0-25.728-14.976H382.976a29.44 29.44 0 0 0-25.856 15.36L163.072 504.32z"
          class="svg-fill-grey-800"></path>
    <path d="M572.672 732.032a213.376 213.376 0 1 0 0-426.624 213.376 213.376 0 0 0 0 426.624z m0-85.376a128 128 0 1 1 0-256 128 128 0 0 1 0 256z"
          class="svg-fill-grey-500"></path>
</svg>