<?xml version="1.0" encoding="UTF-8"?>
<svg viewBox="0 0 16 16" version="1.1" xmlns="http://www.w3.org/2000/svg" xmlns:xlink="http://www.w3.org/1999/xlink">
    <path d="M13.5579646,1.02767432 L2.51840787,1.02767432 C1.40758494,1.02767432 0.504247048,1.92151903 0.504247048,3.02767432 L0.504247048,12.9886417 C0.504247048,14.094797 1.40758494,14.9886417 2.51840787,14.9886417 L13.5579646,14.9886417 C14.6625341,14.9886417 15.5579646,14.0932112 15.5579646,12.9886417 L15.5579646,3.02767432 C15.5579646,1.92310482 14.6625341,1.02767432 13.5579646,1.02767432 Z M2.51840787,2.36100766 L13.5579646,2.36100766 C13.9261544,2.36100766 14.2246313,2.65948449 14.2246313,3.02767432 L14.2246313,12.9886417 C14.2246313,13.3568315 13.9261544,13.6553083 13.5579646,13.6553083 L2.51840787,13.6553083 C2.14082986,13.6553083 1.83758038,13.3552457 1.83758038,12.9886417 L1.83758038,3.02767432 C1.83758038,2.66107028 2.14082986,2.36100766 2.51840787,2.36100766 Z"
          class="svg-fill-grey-500" stroke="none"></path>
    <path d="M5.09732584,5.665 C4.91231045,5.665 4.76232584,5.81498461 4.76232584,6 L4.76232584,10 C4.76232584,10.1850154 4.91231045,10.335 5.09732584,10.335 L11.0045815,10.335 C11.1895969,10.335 11.3395815,10.1850154 11.3395815,10 L11.3395815,6 C11.3395815,5.81498461 11.1895969,5.665 11.0045815,5.665 L5.09732584,5.665 Z"
          class="svg-stroke-grey-800" stroke-width="1.33" fill="none"></path>
</svg>