<?xml version="1.0" encoding="UTF-8"?>
<svg viewBox="0 0 16 16" version="1.1" xmlns="http://www.w3.org/2000/svg" xmlns:xlink="http://www.w3.org/1999/xlink">
    <path d="M7.33333333,1.66666667 C10.4629469,1.66666667 13,4.20371975 13,7.33333333 C13,8.5161451 12.6376073,9.61431552 12.0177959,10.5228708 L14.5141262,13.0197685 L13.4770362,14.0568585 L11.039635,11.6199956 C10.046045,12.4798234 8.75043606,13 7.33333333,13 C4.20371975,13 1.66666667,10.4629469 1.66666667,7.33333333 C1.66666667,4.20371975 4.20371975,1.66666667 7.33333333,1.66666667 Z M7.33333333,3.06666667 C4.9769184,3.06666667 3.06666667,4.9769184 3.06666667,7.33333333 C3.06666667,9.68974827 4.9769184,11.6 7.33333333,11.6 C9.68974827,11.6 11.6,9.68974827 11.6,7.33333333 C11.6,4.9769184 9.68974827,3.06666667 7.33333333,3.06666667 Z"
          class="svg-stroke-grey-500"></path>
</svg>
