<?xml version="1.0" encoding="UTF-8"?>
<svg width="46px" height="47px" viewBox="0 0 46 47" version="1.1" xmlns="http://www.w3.org/2000/svg"
     xmlns:xlink="http://www.w3.org/1999/xlink">
    <g transform="translate(0.000000, 0.515625)">
        <path class="svg-fill-grey-500" d="M23.9954751,8 C30.7061198,8 36.2270969,13.1940545 36.7240809,19.8265146 L36.729,19.905 L36.8210394,19.9201682 C40.8365924,20.6370594 43.8763353,24.1527987 43.9963188,28.3829908 L44,28.6428571 C44,33.4425648 40.2507001,37.3579159 35.5507487,37.4961235 L35.2934618,37.5 L35.1078554,37.4967139 L34.9230769,37.5 L31.3908022,37.5 L27.9399668,37.458492 C25.274204,37.4264828 23.1162739,35.3126425 23.0045447,32.6739222 L23,32.4588524 L23,28.6428571 C23,28.0905724 23.4477153,27.6428571 24,27.6428571 C24.5128358,27.6428571 24.9355072,28.0288973 24.9932723,28.526236 L25,28.6428571 L25,32.4588524 C25,34.0429855 26.228601,35.3430037 27.7892533,35.4515273 L27.9639801,35.4586362 L31.4028088,35.5 L34.9043469,35.5001754 L35.103356,35.4969906 L35.3076923,35.5 C38.9989506,35.5 42,32.4346424 42,28.6428571 C42,25.0822682 39.3455641,22.1398686 35.9348551,21.8161921 L35.7011571,21.7982046 L34.7724539,21.7433011 L34.7560373,20.4832499 C34.5961399,14.6547734 29.8279066,10 23.9954751,10 C18.6667021,10 14.1729137,13.9021214 13.3615684,19.1021466 L13.3209823,19.3870559 L13.1961997,20.3547683 L12.2257135,20.2538003 C11.9731464,20.2275236 11.7182235,20.2142857 11.4615385,20.2142857 C7.34544571,20.2142857 4,23.6314195 4,27.8571429 C4,32.0828662 7.34544571,35.5 11.4615385,35.5 L11.7378432,35.4947769 L12.0085905,35.4790813 L12.1771839,35.4801595 L12.3954753,35.4950284 L12.6153846,35.5 L17.1521208,35.5 C17.7044056,35.5 18.1521208,35.9477153 18.1521208,36.5 C18.1521208,37.0128358 17.7660806,37.4355072 17.2687419,37.4932723 L17.1521208,37.5 L12.6153846,37.5 L12.3046967,37.4929671 L12.082,37.477 L11.8153889,37.4932735 L11.4615385,37.5 C6.23127391,37.5 2,33.1780559 2,27.8571429 C2,22.6279697 6.08662573,18.3636152 11.191915,18.218123 L11.489,18.214 L11.5518692,17.9251594 C12.8336863,12.2957092 17.8001338,8.1451775 23.6849167,8.00372916 L23.9954751,8 Z"
              fill-rule="nonzero"></path>
        <path class="svg-fill-grey-500" d="M27.7305845,21.5533009 C28.2828693,21.5533009 28.7305845,22.0010161 28.7305845,22.5533009 C28.7305845,23.0661367 28.3445443,23.488808 27.8472056,23.5465731 L27.7305845,23.5533009 L21.23,23.553 L21.2305845,30.0533009 C21.2305845,30.5661367 20.8445443,30.988808 20.3472056,31.0465731 L20.2305845,31.0533009 C19.7177487,31.0533009 19.2950774,30.6672607 19.2373122,30.169922 L19.2305845,30.0533009 L19.2305845,22.5533009 C19.2305845,22.040465 19.6166247,21.6177937 20.1139634,21.5600286 L20.2305845,21.5533009 L27.7305845,21.5533009 Z"
              fill-rule="nonzero"
              transform="translate(23.980585, 26.303301) rotate(45.000000) translate(-23.980585, -26.303301) "></path>
        <rect class="svg-fill-grey-500" x="23" y="21.5533009" width="2" height="11" rx="1"></rect>
    </g>
</svg>
